<?xml version="1.0" encoding="utf-8"?>
<svg xmlns="http://www.w3.org/2000/svg" viewBox="340.565 153.4204 119.407 83.3149" width="119.407px" height="83.3149px">
  <path d="M 511.231 517.325 L 514.02 516.577 L 514.06 518.369 C 513.117 518.034 512.074 517.63 511.231 517.325 Z M 518.902 514.685 C 519.138 514.302 521.3 513.804 521.715 513.672 C 522.652 513.376 523.61 513.098 524.565 512.809 L 599.348 490.06 C 603.139 488.88 607.021 487.634 610.854 486.576 L 611.772 514.352 L 611.875 517.497 C 610.014 517.933 607.952 518.657 606.123 519.225 C 604.208 519.82 602.256 520.396 600.333 520.988 C 575.503 528.641 550.32 536.021 525.551 543.743 C 524.609 544.037 520.394 545.428 519.768 545.421 C 519.521 540.453 519.457 535.448 519.258 530.467 C 519.177 528.431 518.667 516.609 518.854 515.582 C 518.681 515.269 518.835 515.378 518.735 515.121 C 518.571 514.703 518.825 515 518.496 514.723 C 518.675 514.584 518.189 514.493 518.902 514.685 Z M 507.527 516.009 C 507.518 515.954 507.505 515.7 507.502 515.631 C 507.443 514.378 507.499 510.893 507.215 510.215 C 507.63 510.435 507.235 510.393 507.921 510.322 C 507.922 511.436 507.899 512.581 507.981 513.69 C 508.074 514.943 508.328 516.151 507.668 516.412 L 507.527 516.009 Z M 511.877 518.492 C 512.584 518.519 513.301 518.984 513.883 519.118 C 513.924 519.127 514.154 519.135 514.155 519.135 C 514.329 519.072 514.129 519.423 514.335 518.952 L 514.18 513.064 L 518.445 514.585 L 519.499 545.451 L 495.93 537.073 L 495.555 531.24 L 494.258 530.689 L 494.058 525.571 L 495.157 525.905 C 494.985 525.456 494.893 525.643 494.5 525.341 L 495.171 525.224 C 494.631 524.784 494.011 525.151 493.906 525.309 C 493.759 525.531 493.906 530.123 494.018 530.547 C 494.161 531.085 494.291 531.002 494.603 531.124 C 494.854 531.222 495.135 531.291 495.401 531.365 C 495.446 532.346 495.475 533.33 495.504 534.315 L 495.566 536.494 C 495.644 537.455 495.755 537.294 497.335 537.863 C 497.953 538.085 498.496 538.276 499.127 538.504 C 500.308 538.931 501.433 539.318 502.617 539.75 L 504.546 540.379 C 505.621 540.926 515.027 544.157 516.578 544.734 C 520.404 546.157 519.191 545.955 523.799 544.558 C 533.629 541.579 543.443 538.619 553.242 535.601 C 567.876 531.095 582.764 526.707 597.403 522.164 C 602.257 520.658 607.367 519.285 612.105 517.67 L 612.1 515.983 C 611.705 509.913 611.667 503.44 611.477 497.32 C 611.381 494.205 611.272 491.091 611.156 487.971 C 611.081 485.954 611.312 486.366 609.064 485.522 C 607.099 484.784 606.377 484.216 605.592 485.025 L 608.917 486.282 L 605.919 487.166 L 605.844 485.124 C 605.555 485.402 605.661 485.195 605.599 485.668 L 605.649 487.208 C 604.922 487.646 603.635 487.897 602.718 488.173 C 601.553 488.523 600.977 488.982 600.049 488.286 L 599.9 483.731 C 599.889 483.494 599.889 483.206 599.872 482.98 L 599.719 482.326 C 599.47 482.742 599.603 483.474 599.648 483.954 L 599.754 487.453 C 599.866 488.682 599.679 488.271 599.33 488.62 L 600.682 488.802 C 600.185 488.928 599.869 488.931 599.272 488.533 C 599.23 487.493 599.2 486.455 599.161 485.415 C 599.141 484.905 599.228 482.847 598.912 482.492 C 598.656 482.901 598.934 486.884 598.971 487.986 C 599.002 488.883 599.007 488.768 599.697 489.09 L 595.96 490.207 L 595.632 481.662 C 595.47 481.325 595.666 481.565 595.422 481.433 L 595.683 490.28 C 594.656 490.781 592.048 491.424 590.844 491.787 L 576.42 496.179 C 570.011 498.112 563.589 500.071 557.182 502.027 C 555.538 502.528 519.206 513.47 518.664 513.832 L 521.452 513.159 C 522.361 512.873 523.361 512.591 524.3 512.295 C 537.451 508.154 550.932 504.315 564.145 500.173 C 571.741 497.792 579.355 495.599 586.932 493.256 L 609.291 486.438 C 609.557 486.336 609.401 486.41 609.547 486.312 C 609.002 485.721 607.072 485.365 606.209 484.929 C 606.962 484.857 609.721 486.074 610.538 486.37 C 602.45 488.729 594.433 491.284 586.376 493.72 C 578.357 496.144 570.355 498.595 562.332 501.036 C 548.394 505.276 534.065 509.542 520.143 513.89 C 519.909 513.964 518.725 514.366 518.614 514.38 C 518.207 514.431 518.684 514.453 517.997 514.14 C 517.041 513.704 515.389 513.388 514.537 512.8 C 515.193 512.697 517.61 513.819 518.596 514.088 C 518.571 514.069 518.541 514.037 518.525 514.024 C 518.51 514.011 518.474 513.975 518.455 513.959 C 518.436 513.943 518.406 513.913 518.384 513.896 C 517.936 513.535 516.931 513.266 516.375 513.06 C 513.768 512.093 513.89 512.302 513.969 514.605 C 513.987 515.154 513.999 515.678 514.023 516.231 C 513.573 516.428 511.569 517.106 511.049 517.19 C 510.581 517.265 508.918 516.48 508.307 516.319 C 508.305 515.372 508.277 510.664 508.045 510.18 C 507.882 509.881 507.96 509.944 507.303 509.714 L 505.085 508.853 C 514.932 505.666 525.521 502.698 535.534 499.591 L 538.573 498.657 C 538.985 498.569 539.306 498.424 539.741 498.334 C 539.921 498.217 539.783 498.408 539.795 498.028 L 538.14 498.593 L 540.328 490.794 C 540.372 490.603 540.404 490.189 540.407 490.167 L 540.704 489.529 C 540.879 488.995 540.851 489.312 540.635 489.002 L 540.36 489.763 L 539.817 489.611 C 540.153 489.238 540.004 489.259 540.168 488.855 L 540.618 488.019 C 540.659 487.927 542.173 486.206 542.915 486.422 C 542.93 486.647 543.129 486.258 542.833 486.563 C 542.639 486.764 542.462 486.74 541.939 487.306 L 541.349 487.961 C 541.067 488.387 540.936 488.351 540.668 489.015 C 541.132 488.872 540.776 489.129 541.127 488.662 C 541.431 488.257 541.524 487.925 542.084 487.443 C 542.553 487.039 543.148 486.657 543.902 486.448 C 546.796 485.645 553.651 483.31 555.973 482.788 C 557.128 482.527 556.287 482.668 556.949 482.332 L 556.869 482.61 C 556.865 482.588 556.841 482.669 556.833 482.701 C 557.734 482.805 558.08 482.988 558.373 483.344 C 559.182 484.32 561.458 489.965 561.918 491.176 C 561.896 491.195 561.861 491.218 561.847 491.227 C 561.832 491.236 561.793 491.265 561.774 491.276 L 559.27 492.089 C 558.356 492.368 557.457 492.634 556.522 492.924 C 554.701 493.489 552.946 493.995 551.124 494.564 L 540.285 497.836 L 540.287 498.111 C 542.098 497.696 544.131 496.967 545.934 496.421 C 547.803 495.856 549.642 495.282 551.526 494.717 C 553.416 494.151 555.23 493.592 557.12 493.01 C 558.089 492.712 558.999 492.447 559.965 492.146 C 560.927 491.847 562.447 491.717 562.137 490.988 C 566.986 489.706 593.712 481.138 595.013 481.07 L 566.233 489.962 C 565.083 490.317 563.802 490.564 562.699 491.035 L 562.375 491.239 C 562.364 491.215 562.327 491.279 562.307 491.304 C 562.708 491.466 566.105 490.279 566.837 490.06 L 589.896 483.036 C 591.414 482.586 592.973 482.122 594.512 481.637 C 595.783 481.238 595.538 481.33 596.791 481.801 C 596.933 481.855 598.734 482.666 598.845 482.382 C 598.858 482.349 598.904 482.362 598.943 482.305 L 596.095 481.192 C 596.232 481.123 596.119 481.14 596.345 481.138 C 596.599 481.136 596.32 481.119 596.53 481.155 L 598.808 481.975 C 599.223 482.162 599.169 482.462 599.176 482.42 C 599.179 482.403 599.178 482.473 599.197 482.515 L 599.752 482.216 C 599.204 481.594 597.376 481.27 596.454 480.836 L 595.9 466.312 C 594.938 465.493 588.895 463.634 587.014 462.902 C 585.406 462.277 585.632 462.228 583.953 462.755 C 576.722 465.023 578.583 463.552 575.951 467.04 C 575.362 467.822 573.757 469.576 573.717 470.573 C 573.638 472.56 573.835 474.591 573.909 476.581 C 574.202 484.463 572.441 484.004 563.72 486.553 C 562.912 486.789 561.42 487.36 560.661 487.442 C 559.118 485.198 559.65 482.639 556.309 482.215 L 556.347 482.302 C 556.373 482.612 556.823 482.136 556.283 482.456 C 556.16 482.529 555.893 482.562 555.688 482.58 C 555.919 482.451 555.958 482.464 556.058 482.192 L 555.526 482.349 C 553.063 482.745 546.952 484.809 544.543 485.55 C 544.05 485.702 543.566 485.876 543.118 486.041 C 542.371 486.316 541.812 486.558 541.229 487.107 C 539.273 488.949 539.131 491.7 538.298 494.304 C 535.707 494.982 533.005 495.882 530.454 496.678 L 508.868 503.257 C 508.531 503.361 508.144 503.467 507.785 503.469 L 506.967 503.334 C 506.958 503.302 506.605 503.525 507.484 503.787 C 508.171 503.992 507.783 503.688 508.053 503.967 C 509.613 504 514.076 502.384 515.804 501.872 L 530.722 497.335 C 532.266 496.884 536.918 495.622 538.083 495.066 C 537.045 498.32 537.802 498.138 535.934 498.7 L 522.592 502.768 C 520.371 503.433 506.446 507.831 504.693 508.187 L 504.183 494.127 L 494.903 490.664 C 495.268 490.414 499.844 489.049 500.62 488.848 C 501.246 488.686 501.517 488.94 501.93 489.239 C 502.396 489.578 502.624 489.734 503.05 490.035 C 503.512 490.361 503.737 490.497 504.181 490.824 C 504.491 491.052 504.895 491.335 505.239 491.52 C 505.31 493.655 505.488 495.993 505.493 498.083 C 505.497 499.636 505.258 501.843 506.403 503.087 C 506.858 503.581 506.562 503.345 506.778 503.149 L 506.312 502.553 C 505.554 501.537 505.758 499.166 505.709 497.957 C 505.635 496.102 505.73 493.159 505.441 491.446 C 505.263 491.132 501.562 488.746 501.006 488.455 C 501 488.452 500.952 488.373 500.694 488.299 C 499.933 488.081 494.996 489.865 493.568 490.263 C 493.246 490.353 492.84 490.394 492.744 490.721 L 492.698 492.328 C 492.717 492.884 492.739 493.438 492.762 493.994 C 492.808 495.091 492.823 496.212 492.865 497.324 C 492.974 500.207 493.218 516.382 493.628 516.949 C 493.91 517.338 494.771 517.383 495.13 517.535 C 494.89 517.888 495.034 517.372 494.968 518.059 C 494.957 518.174 494.978 518.58 494.979 518.695 C 495.007 520.105 494.983 525.224 495.359 526.051 C 495.64 525.489 495.423 525.087 495.391 524.329 L 495.242 518.496 C 495.165 517.496 495.691 517.505 493.759 516.895 L 492.897 490.858 C 494.159 491.176 498.964 493.027 500.791 493.701 C 501.256 493.873 501.628 493.996 502.105 494.179 C 503.614 494.759 503.134 494.507 503.305 494.342 L 493.323 490.664 L 493.75 490.439 C 493.854 490.4 494.11 490.334 494.244 490.295 L 496.993 489.458 C 497.931 489.18 499.785 488.395 500.762 488.531 C 499.607 489.013 495.368 490.008 494.605 490.537 C 494.6 490.54 494.577 490.553 494.572 490.557 C 494.565 490.562 494.536 490.577 494.529 490.582 C 493.792 491.091 494.552 490.332 494.267 490.788 C 495.153 490.968 500.577 493.077 501.947 493.569 C 502.341 493.711 502.856 493.837 503.197 494.001 C 504.134 494.453 503.304 494.06 503.552 494.355 L 503.981 494.632 L 504.342 505.64 C 504.379 507.21 504.809 508.605 504.085 508.881 C 503.705 508.394 503.904 508.453 503.903 508.453 L 503.484 496.158 C 503.473 495.674 503.542 494.81 503.29 494.534 C 503.02 494.967 503.445 502.98 503.499 504.237 C 503.727 509.602 502.99 508.999 505.493 509.865 C 505.793 509.969 506.11 510.107 506.431 510.216 C 506.757 510.326 506.652 510.28 506.899 510.33 L 507.143 510.38 C 507.153 510.357 507.195 510.387 507.217 510.399 C 507.078 510.585 507.141 510.422 507.101 510.773 L 507.379 516.648 C 507.683 517.085 511.27 517.871 511.877 518.492 Z M 537.558 498.458 C 537.318 497.935 537.823 496.881 537.994 496.28 L 539.555 490.803 C 539.826 489.783 539.788 489.996 540.02 489.929 C 540.299 490.194 540.256 489.687 540.142 490.473 L 537.983 498.193 C 537.781 498.516 538 498.393 537.558 498.458 Z M 585.384 463.164 C 586.605 463.487 591.726 465.459 593.512 466.133 C 593.848 466.26 594.527 466.559 594.8 466.612 C 595.282 466.707 595.606 466.218 595.725 466.728 L 596.238 480.846 C 595.656 480.984 595.685 481.521 595.629 480.442 C 595.502 478.001 595.344 467.247 595.112 466.62 C 594.813 466.966 594.913 466.892 594.926 467.487 L 595.387 480.957 C 594.089 480.68 592.031 481.639 590.698 482.044 C 590.199 482.196 586.568 483.504 586.061 483.24 L 585.384 463.164 Z M 573.825 483.344 C 574.228 482.337 574.746 481.799 574.893 480.302 C 575.013 479.089 574.879 477.567 574.834 476.324 C 574.592 469.61 574.119 471.337 576.283 468.274 C 577.027 467.222 578.145 465.289 579.024 464.994 C 580.816 464.394 583.332 463.579 585.117 463.173 C 585.571 466.843 585.47 477.5 585.79 482.475 C 585.809 482.771 585.899 483.261 585.748 483.553 L 562.028 490.737 L 560.929 488.117 L 567.713 486.071 C 568.833 485.732 569.948 485.39 571.053 485.059 C 571.848 484.821 573.559 484.245 573.587 483.238 C 573.218 483.311 573.526 483.195 573.244 483.401 C 573.068 483.529 572.309 484.694 571.263 484.56 C 571.751 484.053 571.74 484.407 572.476 483.664 C 572.789 483.347 573.127 482.928 573.375 482.513 C 573.605 482.126 573.851 481.616 574.002 481.09 C 574.449 479.527 573.88 479.701 574.526 479.55 C 574.864 480.038 574.519 481.137 574.319 481.669 C 573.79 483.08 573.386 482.798 573.825 483.344 Z M 574.484 479.296 C 574.092 479.033 574.225 478.814 574.218 478.252 L 574.1 470.449 C 574.379 470.591 574.296 470.476 574.387 470.82 L 574.524 474.797 C 574.544 475.362 574.868 478.844 574.484 479.296 Z M 578.332 464.828 C 578.552 464.556 578.751 464.585 579.147 464.474 C 579.549 464.362 579.855 464.244 580.208 464.136 C 580.944 463.912 581.664 463.728 582.476 463.458 C 585.249 462.535 585.094 462.429 587.008 463.166 C 587.929 463.521 595.262 466.269 595.523 466.253 C 594.702 466.521 593.179 465.729 592.401 465.449 L 586.412 463.247 C 584.858 462.675 584.803 462.982 583.239 463.45 L 578.56 464.925 C 578.198 465.138 576.549 467.38 576.299 467.773 L 574.581 470.179 C 574.198 470.46 574.583 470.417 574.01 470.146 C 574.469 469.474 577.601 465.418 577.707 464.76 C 577.988 465.047 577.789 464.919 578.215 465.073 L 578.332 464.828 Z" style="fill-rule: evenodd;" id="path687" transform="matrix(1, 0, 0, 1, -152.13299560546875, -308.97299194335943)"/>
  <path d="M 610.874 515.17 L 611.075 515.08 C 611.052 514.906 611.015 514.944 611.189 514.966 C 610.988 512.626 610.918 499.925 610.508 499.045 L 555.933 515.62 L 519.825 526.628 C 519.877 529.37 520.009 532.046 520.079 534.69 L 520.336 542.123 C 520.347 542.161 520.36 542.198 520.371 542.233 L 520.47 542.449 C 520.479 542.429 520.504 542.523 520.551 542.554 L 520.456 539.31 L 524.201 540.709 C 523.758 540.985 523.052 541.126 522.473 541.307 C 521.509 541.609 521.538 541.709 520.537 541.483 L 520.507 542.134 C 520.884 542.068 520.831 542.032 521.248 542.015 C 520.823 542.224 520.913 542.064 520.557 542.376 L 520.819 542.431 C 520.845 542.431 520.885 542.431 520.912 542.429 C 521.031 542.42 521.2 542.361 521.301 542.329 L 565.658 528.816 C 567.504 528.242 610.084 515.141 610.874 515.17 Z M 521.433 539.234 C 520.522 538.93 520.449 539.114 520.431 538.182 L 525.874 540.157 C 525.356 540.585 524.962 540.531 524.25 540.254 C 523.753 540.06 523.326 539.908 522.846 539.74 C 522.354 539.568 521.921 539.397 521.432 539.234 L 521.433 539.234 Z M 520.346 535.809 L 528.369 538.707 C 528.782 538.859 529.139 538.94 529.458 539.205 C 526.24 539.829 527.647 540.51 524.862 539.516 C 523.415 538.999 521.813 538.297 520.403 537.934 L 520.346 535.809 Z M 525.774 537.323 C 524.885 536.995 523.983 536.68 523.135 536.379 C 522.58 536.182 520.98 535.781 520.73 535.336 L 520.73 534.803 C 521.684 535.062 530.665 538.358 531.122 538.676 C 529.868 539.08 529.58 538.683 528.405 538.276 C 527.528 537.973 526.652 537.647 525.774 537.323 Z M 521.087 534.6 C 521.97 534.265 523.844 533.535 524.662 533.833 L 531.383 536.327 C 532.5 536.73 533.612 537.11 534.706 537.544 C 534.004 537.881 531.894 538.593 531.169 538.339 L 521.087 534.6 Z M 528.223 534.746 C 525.822 533.868 525.977 534.231 525.985 533.214 L 536.372 537.006 C 535.414 537.618 534.717 537.072 533.685 536.708 C 532.776 536.387 531.868 536.065 530.955 535.726 C 530.03 535.382 529.167 535.091 528.223 534.746 Z M 525.788 533.17 L 525.714 533.968 L 524.704 533.522 L 525.788 533.17 Z M 526.896 532.811 C 527.833 532.458 529.111 531.982 530.017 532.317 C 531.093 532.713 532.222 533.108 533.303 533.517 C 534.401 533.932 535.425 534.336 536.569 534.726 L 539.804 535.976 C 538.999 536.402 537.114 537.034 536.248 536.708 C 534.348 535.992 527.178 533.501 526.441 533.032 L 526.896 532.811 Z M 538.77 535.079 C 537.944 534.789 537.073 534.476 536.231 534.162 C 535.325 533.826 531.709 532.694 531.214 532.264 L 531.233 531.636 L 541.468 535.464 C 540.564 535.992 539.691 535.401 538.77 535.079 Z M 530.059 531.906 C 530.381 531.734 530.782 531.7 531.039 531.499 L 530.923 532.358 L 529.868 532.037 L 530.059 531.906 Z M 531.495 531.4 C 533.188 531.113 533.951 530.258 535.103 530.682 L 545.117 534.369 C 544.243 534.777 542.397 535.455 541.529 535.144 L 531.495 531.4 Z M 544.147 533.543 C 542.39 532.909 537.573 531.073 536.431 530.815 L 536.432 530.045 L 546.814 533.873 C 545.571 534.34 545.306 533.96 544.147 533.543 Z M 536.276 529.993 L 536.192 530.791 L 535.08 530.372 L 536.276 529.993 Z M 536.814 529.802 C 538.021 529.383 539.477 528.781 540.381 529.119 L 550.286 532.79 C 549.545 533.198 547.549 533.85 546.708 533.544 L 540.067 531.094 C 539.499 530.886 538.961 530.679 538.389 530.468 C 537.923 530.296 537.2 530.104 536.814 529.802 Z M 551.968 532.252 C 551.087 532.854 550.199 532.261 549.234 531.91 C 547.428 531.251 542.877 529.514 541.589 529.186 L 541.624 528.446 L 551.968 532.252 Z M 541.345 528.465 L 541.355 529.202 L 540.322 528.762 L 541.345 528.465 Z M 543.698 527.717 C 544.984 527.336 544.649 527.196 545.372 527.448 C 546.193 527.734 555.021 530.838 555.481 531.296 C 554.351 531.504 553.048 532.363 551.896 531.942 L 541.95 528.317 L 543.698 527.717 Z M 554.51 530.347 C 553.641 530.033 552.764 529.726 551.873 529.401 C 551.171 529.145 547.066 527.837 546.843 527.4 L 546.85 526.866 L 557.204 530.713 C 555.946 531.142 555.73 530.787 554.51 530.347 Z M 546.575 526.867 L 546.584 527.607 L 545.477 527.205 L 546.575 526.867 Z M 547.153 526.7 C 547.964 526.352 549.864 525.603 550.654 525.88 L 557.399 528.361 C 558.435 528.724 559.849 529.179 560.776 529.617 C 560.027 529.971 558.038 530.671 557.275 530.41 C 554.942 529.61 548.883 527.181 547.153 526.7 Z M 554.232 526.785 C 551.867 525.946 552.087 526.261 552.072 525.283 L 562.453 529.15 C 561.571 529.361 561.725 529.493 560.82 529.157 L 554.232 526.785 Z M 533.763 525.632 L 533.766 526.404 L 532.415 525.958 L 533.763 525.632 Z M 528.478 524.359 L 528.601 525.864 C 527.988 526.244 520.555 528.402 520.097 528.528 L 520.079 526.851 L 528.478 524.359 Z M 551.795 525.273 L 551.822 525.994 C 551.637 525.954 551.383 525.897 551.219 525.833 C 550.862 525.693 550.985 525.736 550.799 525.563 L 551.795 525.273 Z M 529.044 524.123 C 529.261 524.428 529.142 524.52 529.209 524.965 C 529.272 525.38 529.299 525.267 529.488 525.608 C 529.436 525.64 529.534 525.672 529.116 525.791 C 529.029 525.815 528.922 525.794 528.879 525.791 C 528.777 525.49 528.784 525.243 528.773 524.832 C 528.752 524.088 528.591 524.33 529.044 524.123 Z M 529.94 525.376 C 530.395 525.16 532.475 524.45 532.949 524.534 C 533.472 524.628 533.274 524.804 533.876 524.617 L 533.885 525.361 C 533.193 525.418 532.43 525.727 532.02 526.019 C 532.318 526.19 532.906 526.398 533.244 526.554 C 532.141 526.93 531.043 527.133 529.904 527.489 C 528.746 527.852 527.89 528.182 526.734 528.542 C 525.65 528.879 524.607 529.189 523.496 529.529 C 522.456 529.847 521.198 530.302 520.155 530.51 L 520.099 528.808 L 530.013 525.809 C 530.226 524.905 529.862 525.819 529.94 525.376 Z M 552.506 525.096 C 552.948 524.805 553.649 524.674 554.185 524.513 C 554.946 524.284 555.16 524.064 556.029 524.352 L 565.867 528.04 C 565.407 528.336 564.742 528.434 564.179 528.611 C 563.375 528.864 563.186 529.072 562.352 528.781 L 552.506 525.096 Z M 564.877 527.148 C 564.025 526.828 563.205 526.55 562.332 526.238 C 561.339 525.883 557.849 524.8 557.287 524.328 L 557.322 523.708 L 567.562 527.528 C 566.68 528.038 565.732 527.47 564.877 527.148 Z M 532.616 523.055 L 532.643 524.261 L 529.503 525.139 L 529.402 524.019 L 532.616 523.055 Z M 557.076 523.678 L 557.027 524.433 L 555.922 524.009 L 557.076 523.678 Z M 557.584 523.457 C 558.733 523.233 560.095 522.339 561.123 522.712 L 569.545 525.818 C 569.893 525.956 570.072 526.008 570.391 526.123 L 571.195 526.506 C 570.114 526.709 568.669 527.586 567.64 527.21 C 566.38 526.751 558.071 523.77 557.584 523.457 Z M 533.782 522.697 C 533.894 523.779 534.175 525.079 532.935 524.2 C 532.916 523.98 532.922 523.751 532.904 523.552 L 532.76 522.993 L 533.782 522.697 Z M 567.421 524.604 C 566.513 524.282 565.628 523.94 564.7 523.614 C 562.209 522.739 562.46 523.078 562.46 522.102 C 562.146 522.287 562.258 522.548 562.067 522.797 L 561.166 522.424 C 562.732 521.915 562.602 522.129 564.185 522.727 L 572.896 525.924 C 571.694 526.424 571.33 526.021 570.153 525.584 C 569.274 525.257 568.309 524.919 567.421 524.604 Z M 534.044 522.792 C 534.131 522.563 534.014 522.587 534.703 522.424 C 534.448 522.732 534.569 522.322 534.51 522.913 L 534.635 526.59 C 534.424 526.407 534.525 526.466 534.201 526.368 L 534.044 522.792 Z M 562.87 521.939 C 563.689 521.563 565.511 520.869 566.39 521.156 L 576.38 524.882 C 575.504 525.219 573.688 525.912 572.814 525.615 L 562.87 521.939 Z M 575.336 523.985 C 574.466 523.66 573.614 523.367 572.79 523.074 C 571.162 522.496 569.319 521.702 567.7 521.256 L 567.752 520.54 C 569.451 521.143 571.221 521.783 572.929 522.431 C 574.457 523.011 576.694 523.676 578.049 524.344 C 577.066 524.846 576.285 524.339 575.336 523.985 Z M 567.418 520.522 L 567.446 521.265 L 566.405 520.832 L 567.418 520.522 Z M 568.054 520.385 C 568.15 520.313 568.138 520.312 568.317 520.227 C 568.353 520.21 568.468 520.163 568.508 520.149 L 569.792 519.769 C 571.832 519.185 571.742 519.63 574.939 520.807 C 575.591 521.046 581.014 522.895 581.578 523.349 C 578.101 524.019 580.361 524.946 574.724 522.804 L 568.054 520.385 Z M 583.287 522.749 C 582.134 523.229 581.783 522.854 580.61 522.421 C 579.289 521.934 573.366 519.897 572.955 519.592 L 572.941 518.94 L 583.287 522.749 Z M 572.733 518.883 L 572.672 519.67 L 571.561 519.255 L 572.733 518.883 Z M 573.248 518.758 C 574.17 518.377 575.896 517.656 576.852 517.99 L 586.856 521.707 C 585.807 521.981 584.267 522.81 583.284 522.445 L 573.248 518.758 Z M 587.258 514.47 C 588.894 513.963 588.711 514.239 590.282 514.808 C 591.533 515.26 598.347 517.664 598.967 518.036 C 598.267 518.216 597.962 518.369 597.359 518.126 L 588.842 515.049 C 588.81 515.037 588.737 515.012 588.663 514.984 C 588.606 514.817 588.627 514.767 588.581 514.594 L 588.355 514.381 C 588.235 514.968 588.336 513.924 588.322 514.59 C 588.311 515.131 588.272 514.701 588.425 514.96 L 587.258 514.47 Z M 591.698 516.067 C 591.698 516.038 591.651 515.99 591.632 516.011 C 591.381 516.277 591.72 516.085 591.725 516.09 C 591.727 516.091 591.698 516.079 591.698 516.067 Z M 580.34 518.85 C 577.921 518.005 578.167 518.316 578.161 517.354 L 588.53 521.198 C 587.157 521.575 586.839 521.209 585.607 520.752 C 584.737 520.43 583.854 520.107 582.976 519.801 C 582.061 519.482 581.255 519.17 580.34 518.85 Z M 577.913 517.325 L 577.917 518.086 L 576.9 517.638 L 577.913 517.325 Z M 578.58 517.16 C 578.607 517.143 578.647 517.126 578.665 517.117 C 579.617 516.69 581.21 516.087 582.138 516.425 L 591.926 520.104 C 591.112 520.557 589.257 521.139 588.365 520.813 L 578.58 517.16 Z M 590.977 519.222 L 584.393 516.843 C 583.137 516.387 583.486 516.6 583.33 516.264 L 583.335 515.753 L 593.642 519.592 C 592.738 520.094 591.8 519.527 590.977 519.222 Z M 583.103 515.76 L 583.055 516.503 L 581.981 516.072 L 583.103 515.76 Z M 567.189 514.472 C 570.301 513.383 575.27 512.087 578.673 510.985 L 587.225 508.384 C 587.889 508.271 589.343 509.03 590.003 509.238 C 589.324 509.56 570.674 515.279 569.266 515.459 C 569.46 515.914 569.25 515.755 569.73 515.952 C 569.211 516.094 567.598 516.704 567.253 516.563 C 567.521 516.291 567.239 516.486 567.741 516.307 C 567.935 516.238 568.156 516.18 568.329 516.13 L 569.287 515.813 C 569.298 515.778 569.338 515.784 569.361 515.766 C 568.804 515.447 568.315 516.091 567.237 516.151 L 567.189 514.472 Z M 583.679 515.51 C 584.834 515.321 586.163 514.399 587.22 514.793 C 588.583 515.3 596.777 518.216 597.292 518.557 C 596.251 518.751 594.691 519.626 593.744 519.279 C 592.013 518.644 584.226 515.897 583.679 515.51 Z M 588.964 513.984 C 589.42 513.715 590.134 513.586 590.706 513.42 C 591.528 513.181 591.675 512.935 592.501 513.229 L 602.409 516.891 C 601.97 517.187 601.277 517.309 600.68 517.494 C 599.892 517.736 599.662 517.947 598.828 517.645 L 588.964 513.984 Z M 592.498 512.984 C 592.717 512.822 592.349 513.011 592.774 512.803 L 593.548 512.564 L 593.547 513.337 L 592.498 512.984 Z M 604.141 516.428 C 603.069 516.926 602.341 516.39 601.338 516.034 L 595.886 514.061 C 593.043 513.054 594.047 513.558 593.696 512.564 L 604.141 516.428 Z M 594.144 512.476 C 594.274 512.364 594.21 512.401 594.416 512.288 L 595.001 512.077 C 596.679 511.599 596.237 511.496 597.467 511.971 L 607.057 515.468 L 605.4 516.08 C 604.532 516.361 604.528 516.244 603.729 515.948 C 602.305 515.422 594.972 512.647 594.144 512.476 Z M 592.225 504.899 L 592.346 508.613 C 591.278 508.795 590.898 509.324 589.793 508.889 C 589.031 508.59 588.315 508.309 587.546 508.074 L 587.562 506.314 L 592.225 504.899 Z M 588.821 513.672 C 587.831 514.125 585.779 514.633 584.608 514.99 L 571.654 518.933 C 565.951 520.647 560.183 522.448 554.483 524.162 L 524.552 533.274 C 523.225 533.679 521.635 534.248 520.299 534.536 L 520.191 531.162 C 522.383 530.728 525.256 529.629 527.531 528.96 C 529.318 528.434 533.092 527.263 534.913 526.853 L 534.78 522.379 L 566.751 512.664 C 570.107 511.614 573.654 510.533 577.068 509.507 C 580.475 508.484 583.873 507.359 587.284 506.415 L 587.342 508.08 L 567.179 514.197 L 567.134 512.808 C 567.102 512.789 567.053 512.749 567.041 512.747 C 567.03 512.746 566.967 512.822 566.957 512.79 C 566.941 512.735 566.916 512.892 566.883 512.935 L 567.055 516.974 C 567.717 516.888 569.388 516.376 569.99 516.123 C 571.098 515.657 577.793 513.604 578.299 513.619 C 578.725 513.269 581.495 512.54 581.997 512.386 L 593.189 509.001 L 593.152 505.505 C 593.129 504.682 593.012 504.829 592.833 504.692 C 592.856 505.42 593.105 508.195 592.788 508.629 C 592.366 508.21 592.525 505.968 592.483 504.827 L 596.169 503.728 L 596.395 511.412 L 588.821 513.672 Z M 609.54 499.642 L 610.023 514.6 C 609.672 514.831 608.807 515.031 608.344 515.182 C 607.463 515.469 607.358 515.345 606.55 515.046 L 599.906 512.6 C 598.953 512.237 597.547 511.642 596.633 511.414 C 596.634 510.231 596.475 504.377 596.318 503.651 L 609.54 499.642 Z M 610.216 513.046 C 610.168 512.373 610.21 511.691 610.195 511.016 L 609.72 499.566 L 610.349 499.404 C 610.611 501.684 610.545 504.65 610.629 507.015 C 610.649 507.579 611.098 514.157 610.708 514.618 C 610.155 514.454 610.332 514.698 610.216 513.046 Z" style="fill-rule: evenodd;" id="path689" transform="matrix(1, 0, 0, 1, -152.13299560546875, -308.97299194335943)"/>
  <path d="M 578.589 474.055 C 578.729 473.581 578.77 473.807 578.959 473.377 C 579.112 473.03 579.041 472.856 579.253 472.457 L 579.363 472.77 C 579.444 473.018 579.491 473.028 579.45 473.358 C 579.387 473.867 579.078 474.009 578.589 474.055 Z M 578.24 473.01 C 578.593 472.897 578.595 472.984 578.758 472.694 C 578.891 473.404 578.796 473.617 578.162 473.747 C 578.387 473.498 578.487 473.511 578.324 473.108 C 578.269 473.169 578.221 473.115 578.149 473.33 C 578.11 473.447 578.1 473.584 578.128 473.715 C 578.174 473.941 578.181 473.902 578.289 474.04 C 578.313 474.069 578.397 474.15 578.421 474.174 L 578.58 474.306 C 580.664 474.259 579.393 471.082 578.24 473.01 Z" style="fill-rule: evenodd;" id="path767" transform="matrix(1, 0, 0, 1, -152.13299560546875, -308.97299194335943)"/>
</svg>