<?xml version="1.0" encoding="utf-8"?>
<svg xmlns="http://www.w3.org/2000/svg" viewBox="180.918 152.4875 119.407 83.3148" width="119.407px" height="83.3148px">
  <path d="M 244.749 197.72 L 245.127 197.53 C 245.222 197.72 245.222 197.72 245.317 197.814 C 245.412 197.814 245.506 197.814 245.601 197.814 C 245.79 197.72 245.885 197.72 245.98 197.625 C 246.075 197.53 246.075 197.436 246.075 197.341 C 246.075 197.341 246.075 197.341 246.075 197.246 C 245.98 197.246 245.98 197.246 245.885 197.246 C 245.885 197.246 245.696 197.246 245.506 197.246 C 245.317 197.246 245.127 197.246 245.033 197.246 C 244.938 197.152 244.843 197.057 244.843 196.867 C 244.843 196.773 244.843 196.678 244.938 196.583 C 245.033 196.394 245.127 196.299 245.222 196.204 C 245.317 196.204 245.506 196.109 245.696 196.015 C 245.98 195.92 246.169 195.92 246.264 196.015 C 246.454 196.109 246.548 196.204 246.548 196.394 L 246.075 196.583 C 246.075 196.489 245.98 196.394 245.98 196.394 C 245.885 196.394 245.79 196.394 245.696 196.394 C 245.506 196.394 245.412 196.489 245.317 196.583 C 245.317 196.583 245.317 196.678 245.317 196.678 C 245.317 196.773 245.317 196.773 245.317 196.773 C 245.412 196.867 245.506 196.867 245.79 196.773 C 245.98 196.773 246.169 196.773 246.264 196.867 C 246.359 196.867 246.454 196.867 246.454 196.962 C 246.548 197.057 246.548 197.152 246.548 197.246 C 246.548 197.341 246.548 197.53 246.454 197.625 C 246.359 197.72 246.264 197.814 246.075 197.91 C 245.98 198.004 245.79 198.099 245.601 198.099 C 245.317 198.194 245.127 198.194 244.938 198.194 C 244.843 198.099 244.749 197.91 244.749 197.72 Z M 247.022 195.731 L 247.401 195.541 L 247.401 196.678 C 247.401 196.868 247.401 196.962 247.401 196.962 C 247.401 197.057 247.495 197.152 247.495 197.152 C 247.59 197.152 247.685 197.152 247.78 197.152 C 247.969 197.152 248.064 197.057 248.159 196.962 C 248.159 196.962 248.253 196.868 248.253 196.773 C 248.253 196.678 248.253 196.583 248.253 196.394 L 248.348 195.352 L 248.727 195.162 L 248.727 196.205 C 248.727 196.489 248.727 196.678 248.632 196.773 C 248.632 196.868 248.632 196.962 248.537 197.057 C 248.443 197.152 248.348 197.246 248.253 197.341 C 248.159 197.341 247.969 197.436 247.78 197.53 C 247.59 197.53 247.495 197.625 247.306 197.53 C 247.211 197.53 247.117 197.53 247.117 197.436 C 247.022 197.436 247.022 197.341 246.927 197.246 C 246.927 197.152 246.927 196.962 246.927 196.773 L 247.022 195.731 Z M 251.19 196.489 L 250.716 196.583 L 250.527 196.205 L 249.58 196.489 L 249.39 196.962 L 248.916 197.152 L 249.864 194.878 L 250.337 194.689 L 251.19 196.489 Z M 250.337 195.92 L 250.053 195.257 L 249.769 196.109 L 250.337 195.92 Z" style="fill-rule: evenodd;" id="path-1"/>
  <path d="M 252.759 196.05 L 252.759 193.966 L 253.232 193.871 L 253.137 195.577 L 254.274 195.198 L 254.274 195.577 L 252.759 196.05 Z M 254.558 194.44 C 254.558 194.25 254.558 194.061 254.653 193.966 C 254.748 193.777 254.748 193.682 254.842 193.587 C 254.937 193.493 255.032 193.398 255.221 193.303 C 255.316 193.208 255.506 193.113 255.695 193.113 C 255.979 193.019 256.263 193.019 256.453 193.113 C 256.642 193.303 256.737 193.493 256.737 193.871 C 256.737 194.156 256.642 194.44 256.358 194.724 C 256.169 194.914 255.979 195.103 255.6 195.198 C 255.316 195.292 255.032 195.292 254.842 195.198 C 254.653 195.008 254.558 194.818 254.558 194.44 Z M 255.032 194.345 C 255.032 194.534 255.032 194.724 255.127 194.818 C 255.316 194.914 255.411 194.914 255.6 194.818 C 255.79 194.818 255.979 194.724 256.074 194.534 C 256.169 194.345 256.263 194.156 256.263 193.966 C 256.263 193.682 256.169 193.587 256.074 193.493 C 255.979 193.398 255.884 193.398 255.695 193.493 C 255.506 193.493 255.316 193.587 255.221 193.777 C 255.127 193.871 255.032 194.061 255.032 194.345 Z M 258.063 193.682 L 258.158 193.303 L 259.105 193.019 L 259.105 193.871 C 259.01 193.966 258.821 194.061 258.632 194.25 C 258.442 194.345 258.253 194.44 258.063 194.44 C 257.874 194.534 257.684 194.534 257.495 194.534 C 257.305 194.44 257.211 194.345 257.116 194.25 C 257.021 194.061 257.021 193.966 257.021 193.777 C 257.021 193.493 257.021 193.303 257.116 193.113 C 257.305 192.924 257.4 192.735 257.59 192.64 C 257.779 192.545 257.968 192.451 258.158 192.356 C 258.442 192.261 258.632 192.261 258.821 192.356 C 258.916 192.356 259.01 192.545 259.105 192.64 L 258.632 192.924 C 258.632 192.829 258.537 192.735 258.442 192.735 C 258.347 192.64 258.253 192.64 258.158 192.735 C 257.968 192.735 257.779 192.924 257.684 193.019 C 257.495 193.208 257.495 193.398 257.495 193.587 C 257.495 193.871 257.495 193.966 257.59 194.061 C 257.779 194.156 257.874 194.156 258.063 194.156 C 258.158 194.061 258.253 194.061 258.347 193.966 C 258.442 193.966 258.537 193.871 258.632 193.777 L 258.632 193.493 L 258.063 193.682 Z M 259.389 193.019 C 259.389 192.829 259.484 192.64 259.484 192.451 C 259.579 192.356 259.673 192.261 259.768 192.166 C 259.863 192.072 259.958 191.977 260.052 191.882 C 260.147 191.788 260.337 191.693 260.526 191.693 C 260.81 191.598 261.094 191.598 261.284 191.693 C 261.473 191.788 261.568 192.072 261.568 192.356 C 261.568 192.735 261.473 193.019 261.284 193.208 C 261.094 193.493 260.81 193.682 260.431 193.777 C 260.147 193.871 259.863 193.871 259.673 193.682 C 259.484 193.587 259.389 193.398 259.389 193.019 Z M 259.863 192.924 C 259.863 193.113 259.958 193.303 260.052 193.398 C 260.147 193.493 260.337 193.493 260.431 193.398 C 260.621 193.398 260.81 193.208 260.905 193.113 C 261 192.924 261.094 192.735 261.094 192.545 C 261.094 192.261 261.094 192.166 261 192.072 C 260.81 191.977 260.715 191.977 260.526 191.977 C 260.337 192.072 260.147 192.166 260.052 192.356 C 259.958 192.451 259.863 192.64 259.863 192.924 Z" style="fill-rule: evenodd;" id="path-2"/>
  <path d="M 252.256 199.716 L 251.688 199.905 L 251.593 199.526 L 250.646 199.716 L 250.457 200.284 L 249.983 200.378 L 250.93 198.105 L 251.404 198.011 L 252.256 199.716 Z M 251.404 199.147 L 251.12 198.484 L 250.836 199.337 L 251.404 199.147 Z M 254.246 198.863 C 254.34 198.958 254.53 198.958 254.625 198.958 L 254.435 199.337 C 254.34 199.337 254.34 199.337 254.246 199.242 C 254.246 199.242 254.151 199.242 253.962 199.147 C 253.772 199.337 253.677 199.337 253.488 199.432 C 253.109 199.526 252.825 199.526 252.635 199.337 C 252.446 199.242 252.351 199.053 252.446 198.673 C 252.446 198.389 252.541 198.105 252.73 197.821 C 252.919 197.632 253.204 197.442 253.488 197.348 C 253.867 197.253 254.151 197.253 254.34 197.348 C 254.53 197.537 254.625 197.726 254.53 198.011 C 254.53 198.2 254.53 198.389 254.435 198.579 C 254.435 198.673 254.34 198.769 254.246 198.863 Z M 253.962 198.769 C 253.962 198.673 254.056 198.579 254.056 198.484 C 254.056 198.389 254.056 198.295 254.151 198.2 C 254.151 197.916 254.056 197.821 253.962 197.726 C 253.867 197.632 253.677 197.632 253.488 197.632 C 253.299 197.726 253.204 197.821 253.014 198.011 C 252.919 198.105 252.919 198.295 252.825 198.579 C 252.825 198.769 252.919 198.958 253.014 199.053 C 253.109 199.147 253.299 199.147 253.488 199.053 C 253.488 199.053 253.583 199.053 253.677 198.958 C 253.583 198.958 253.488 198.958 253.393 198.958 L 253.488 198.673 C 253.677 198.673 253.772 198.673 253.962 198.769 Z M 255.004 196.968 L 255.382 196.779 L 255.382 197.916 C 255.382 198.105 255.382 198.2 255.382 198.2 C 255.382 198.295 255.477 198.389 255.477 198.389 C 255.572 198.389 255.667 198.389 255.761 198.389 C 255.951 198.389 256.045 198.295 256.14 198.2 C 256.14 198.2 256.235 198.105 256.235 198.011 C 256.235 197.916 256.235 197.821 256.235 197.632 L 256.33 196.495 L 256.709 196.4 L 256.709 197.442 C 256.709 197.726 256.709 197.916 256.614 198.011 C 256.614 198.105 256.614 198.2 256.519 198.295 C 256.424 198.389 256.33 198.484 256.235 198.579 C 256.14 198.579 255.951 198.673 255.761 198.769 C 255.572 198.769 255.477 198.769 255.288 198.769 C 255.193 198.769 255.098 198.769 255.098 198.673 C 255.004 198.673 255.004 198.579 254.909 198.484 C 254.909 198.389 254.909 198.2 254.909 198.011 L 255.004 196.968 Z M 257.087 198.295 L 257.182 196.306 L 257.656 196.116 L 257.561 198.2 L 257.087 198.295 Z" style="fill-rule: evenodd;" id="path-3"/>
  <g id="Layer1008" transform="matrix(1, 0, 0, 1, -536.1900024414062, 47.51399993896486)">
    <path d="M 735.641 159.905 L 738.43 159.158 L 738.47 160.949 C 737.527 160.614 736.484 160.21 735.641 159.905 Z M 743.312 157.265 C 743.548 156.882 745.711 156.384 746.125 156.252 C 747.062 155.956 748.02 155.678 748.975 155.389 L 823.758 132.64 C 827.549 131.46 831.431 130.214 835.264 129.156 L 836.182 156.932 L 836.285 160.077 C 834.424 160.513 832.362 161.237 830.533 161.805 C 828.618 162.4 826.666 162.976 824.743 163.568 C 799.913 171.221 774.731 178.601 749.961 186.323 C 749.019 186.617 744.804 188.008 744.179 188.001 C 743.931 183.033 743.867 178.028 743.669 173.047 C 743.587 171.011 743.078 159.19 743.264 158.162 C 743.091 157.849 743.245 157.958 743.145 157.701 C 742.982 157.283 743.236 157.58 742.907 157.303 C 743.085 157.164 742.599 157.073 743.312 157.265 Z M 731.937 158.589 C 731.928 158.534 731.915 158.28 731.912 158.211 C 731.853 156.958 731.909 153.473 731.625 152.795 C 732.04 153.015 731.645 152.974 732.331 152.902 C 732.332 154.016 732.309 155.161 732.391 156.27 C 732.484 157.523 732.738 158.731 732.079 158.992 L 731.937 158.589 Z M 736.287 161.072 C 736.994 161.099 737.712 161.564 738.293 161.699 C 738.334 161.708 738.564 161.715 738.565 161.715 C 738.74 161.652 738.539 162.003 738.745 161.532 L 738.59 155.644 L 742.856 157.165 L 743.909 188.031 L 720.34 179.653 L 719.965 173.82 L 718.668 173.269 L 718.468 168.151 L 719.568 168.485 C 719.396 168.036 719.304 168.223 718.91 167.921 L 719.581 167.804 C 719.042 167.364 718.421 167.731 718.316 167.889 C 718.169 168.111 718.316 172.703 718.429 173.127 C 718.571 173.666 718.701 173.582 719.013 173.704 C 719.264 173.802 719.545 173.871 719.811 173.945 C 719.856 174.926 719.886 175.91 719.914 176.895 L 719.977 179.074 C 720.054 180.035 720.166 179.874 721.746 180.443 C 722.363 180.665 722.906 180.856 723.538 181.084 C 724.718 181.511 725.844 181.898 727.027 182.33 L 728.956 182.959 C 730.031 183.507 739.438 186.737 740.988 187.314 C 744.814 188.737 743.601 188.535 748.209 187.138 C 758.039 184.159 767.853 181.199 777.653 178.181 C 792.286 173.675 807.174 169.287 821.813 164.744 C 826.667 163.238 831.777 161.865 836.515 160.25 L 836.51 158.563 C 836.115 152.493 836.077 146.02 835.887 139.9 C 835.791 136.785 835.682 133.671 835.566 130.551 C 835.492 128.534 835.722 128.946 833.474 128.102 C 831.509 127.365 830.787 126.796 830.002 127.605 L 833.327 128.862 L 830.329 129.746 L 830.254 127.704 C 829.965 127.982 830.071 127.775 830.009 128.248 L 830.059 129.788 C 829.332 130.227 828.045 130.477 827.128 130.753 C 825.963 131.104 825.387 131.562 824.459 130.866 L 824.31 126.311 C 824.299 126.074 824.299 125.786 824.282 125.56 L 824.129 124.906 C 823.88 125.323 824.013 126.054 824.058 126.534 L 824.164 130.033 C 824.276 131.262 824.089 130.851 823.741 131.2 L 825.092 131.382 C 824.595 131.509 824.279 131.511 823.682 131.113 C 823.64 130.073 823.61 129.035 823.571 127.995 C 823.552 127.486 823.638 125.428 823.323 125.072 C 823.066 125.481 823.344 129.464 823.381 130.566 C 823.412 131.463 823.417 131.348 824.107 131.67 L 820.371 132.787 L 820.042 124.242 C 819.88 123.905 820.076 124.146 819.833 124.013 L 820.093 132.86 C 819.066 133.361 816.458 134.004 815.254 134.367 L 800.831 138.759 C 794.422 140.692 787.999 142.651 781.592 144.607 C 779.948 145.108 743.616 156.05 743.074 156.412 L 745.862 155.739 C 746.771 155.453 747.771 155.171 748.71 154.875 C 761.861 150.734 775.343 146.895 788.555 142.753 C 796.152 140.372 803.765 138.179 811.342 135.836 L 833.701 129.018 C 833.968 128.916 833.811 128.99 833.957 128.893 C 833.412 128.301 831.482 127.946 830.619 127.509 C 831.373 127.438 834.131 128.654 834.948 128.95 C 826.86 131.309 818.843 133.865 810.786 136.3 C 802.767 138.724 794.765 141.175 786.742 143.616 C 772.805 147.856 758.475 152.123 744.553 156.471 C 744.319 156.544 743.135 156.946 743.024 156.96 C 742.617 157.011 743.094 157.033 742.407 156.72 C 741.451 156.284 739.8 155.968 738.947 155.38 C 739.603 155.277 742.02 156.399 743.006 156.669 C 742.982 156.649 742.951 156.617 742.936 156.604 C 742.92 156.591 742.885 156.555 742.866 156.539 C 742.846 156.523 742.816 156.493 742.794 156.476 C 742.346 156.115 741.341 155.846 740.785 155.64 C 738.178 154.673 738.301 154.882 738.379 157.186 C 738.398 157.734 738.41 158.258 738.433 158.811 C 737.984 159.008 735.979 159.686 735.46 159.77 C 734.991 159.845 733.328 159.06 732.718 158.899 C 732.716 157.952 732.687 153.244 732.455 152.76 C 732.292 152.462 732.37 152.524 731.713 152.295 L 729.495 151.433 C 739.342 148.246 749.931 145.278 759.944 142.171 L 762.983 141.237 C 763.395 141.149 763.716 141.005 764.152 140.914 C 764.331 140.797 764.193 140.988 764.205 140.608 L 762.55 141.173 L 764.738 133.375 C 764.782 133.183 764.814 132.769 764.817 132.747 L 765.114 132.11 C 765.289 131.575 765.261 131.892 765.045 131.582 L 764.771 132.343 L 764.227 132.191 C 764.563 131.819 764.414 131.839 764.579 131.435 L 765.028 130.6 C 765.069 130.507 766.583 128.786 767.325 129.002 C 767.341 129.227 767.539 128.838 767.243 129.143 C 767.049 129.344 766.873 129.32 766.349 129.886 L 765.759 130.541 C 765.477 130.968 765.346 130.931 765.078 131.595 C 765.542 131.452 765.186 131.709 765.537 131.242 C 765.841 130.837 765.934 130.505 766.494 130.023 C 766.963 129.619 767.559 129.237 768.312 129.028 C 771.206 128.225 778.061 125.89 780.383 125.368 C 781.539 125.108 780.697 125.248 781.359 124.912 L 781.28 125.19 C 781.276 125.168 781.252 125.25 781.243 125.281 C 782.145 125.385 782.49 125.569 782.784 125.924 C 783.592 126.9 785.868 132.545 786.328 133.756 C 786.306 133.775 786.272 133.798 786.257 133.807 C 786.242 133.816 786.203 133.845 786.184 133.856 L 783.681 134.669 C 782.766 134.948 781.867 135.214 780.932 135.504 C 779.111 136.069 777.356 136.575 775.534 137.144 L 764.695 140.416 L 764.697 140.692 C 766.508 140.276 768.542 139.547 770.344 139.001 C 772.213 138.436 774.053 137.862 775.937 137.297 C 777.826 136.731 779.64 136.172 781.53 135.59 C 782.499 135.292 783.41 135.027 784.375 134.726 C 785.337 134.427 786.857 134.297 786.547 133.568 C 791.397 132.286 818.122 123.718 819.423 123.65 L 790.643 132.542 C 789.493 132.898 788.212 133.144 787.109 133.615 L 786.786 133.819 C 786.774 133.795 786.737 133.859 786.717 133.884 C 787.118 134.046 790.515 132.859 791.248 132.64 L 814.306 125.616 C 815.824 125.166 817.383 124.702 818.923 124.218 C 820.193 123.818 819.948 123.91 821.201 124.381 C 821.343 124.435 823.144 125.246 823.255 124.962 C 823.268 124.929 823.314 124.942 823.353 124.885 L 820.505 123.772 C 820.642 123.703 820.529 123.72 820.755 123.718 C 821.009 123.716 820.73 123.699 820.94 123.736 L 823.218 124.556 C 823.633 124.742 823.579 125.043 823.586 125 C 823.589 124.983 823.588 125.054 823.607 125.095 L 824.162 124.796 C 823.614 124.174 821.786 123.85 820.864 123.416 L 820.31 108.892 C 819.348 108.073 813.305 106.214 811.424 105.483 C 809.816 104.857 810.042 104.808 808.363 105.335 C 801.132 107.604 802.993 106.132 800.362 109.62 C 799.772 110.402 798.167 112.156 798.127 113.153 C 798.048 115.14 798.245 117.171 798.319 119.161 C 798.612 127.043 796.852 126.584 788.13 129.133 C 787.322 129.369 785.83 129.94 785.071 130.022 C 783.528 127.778 784.06 125.22 780.719 124.795 L 780.757 124.882 C 780.783 125.192 781.233 124.717 780.694 125.036 C 780.57 125.109 780.303 125.142 780.098 125.161 C 780.329 125.032 780.368 125.044 780.468 124.772 L 779.937 124.93 C 777.473 125.325 771.363 127.389 768.953 128.13 C 768.46 128.282 767.976 128.456 767.528 128.621 C 766.781 128.896 766.222 129.138 765.64 129.687 C 763.684 131.529 763.541 134.28 762.708 136.884 C 760.118 137.563 757.415 138.463 754.864 139.258 L 733.278 145.837 C 732.942 145.941 732.554 146.047 732.195 146.049 L 731.377 145.914 C 731.368 145.882 731.015 146.105 731.894 146.367 C 732.581 146.572 732.193 146.268 732.463 146.547 C 734.023 146.58 738.486 144.964 740.214 144.452 L 755.132 139.915 C 756.676 139.464 761.328 138.202 762.493 137.646 C 761.455 140.9 762.212 140.718 760.345 141.28 L 747.002 145.348 C 744.781 146.013 730.857 150.411 729.103 150.767 L 728.593 136.708 L 719.313 133.244 C 719.678 132.994 724.255 131.629 725.03 131.428 C 725.656 131.266 725.927 131.52 726.34 131.819 C 726.806 132.158 727.034 132.314 727.46 132.615 C 727.922 132.941 728.147 133.077 728.592 133.404 C 728.901 133.632 729.305 133.915 729.649 134.1 C 729.72 136.235 729.898 138.573 729.903 140.663 C 729.907 142.216 729.668 144.423 730.813 145.667 C 731.268 146.161 730.972 145.925 731.188 145.729 L 730.722 145.133 C 729.964 144.117 730.168 141.746 730.12 140.538 C 730.045 138.682 730.14 135.739 729.851 134.026 C 729.673 133.712 725.972 131.326 725.416 131.035 C 725.41 131.032 725.362 130.953 725.105 130.88 C 724.343 130.661 719.407 132.445 717.978 132.843 C 717.656 132.933 717.25 132.974 717.154 133.301 L 717.108 134.908 C 717.127 135.464 717.15 136.018 717.173 136.575 C 717.218 137.672 717.233 138.792 717.275 139.904 C 717.384 142.787 717.629 158.962 718.039 159.529 C 718.32 159.918 719.182 159.963 719.54 160.115 C 719.3 160.468 719.444 159.952 719.379 160.64 C 719.368 160.754 719.389 161.16 719.39 161.275 C 719.417 162.685 719.394 167.805 719.769 168.631 C 720.05 168.069 719.833 167.667 719.801 166.909 L 719.653 161.076 C 719.575 160.076 720.102 160.085 718.169 159.476 L 717.307 133.438 C 718.569 133.756 723.374 135.607 725.201 136.281 C 725.667 136.453 726.038 136.576 726.515 136.759 C 728.024 137.339 727.544 137.087 727.715 136.922 L 717.733 133.244 L 718.16 133.019 C 718.264 132.98 718.52 132.914 718.654 132.875 L 721.403 132.038 C 722.341 131.76 724.195 130.975 725.172 131.111 C 724.017 131.594 719.778 132.588 719.015 133.117 C 719.01 133.12 718.987 133.133 718.982 133.137 C 718.975 133.142 718.946 133.157 718.939 133.162 C 718.202 133.671 718.962 132.912 718.677 133.368 C 719.563 133.548 724.988 135.657 726.357 136.149 C 726.752 136.291 727.266 136.417 727.607 136.581 C 728.544 137.033 727.714 136.64 727.962 136.935 L 728.391 137.212 L 728.752 148.22 C 728.789 149.79 729.219 151.185 728.495 151.461 C 728.116 150.974 728.314 151.033 728.314 151.033 L 727.894 138.738 C 727.883 138.254 727.952 137.39 727.701 137.114 C 727.43 137.547 727.855 145.56 727.909 146.817 C 728.137 152.182 727.401 151.579 729.903 152.445 C 730.203 152.549 730.52 152.687 730.841 152.796 C 731.167 152.906 731.062 152.86 731.309 152.91 L 731.553 152.96 C 731.563 152.937 731.605 152.967 731.627 152.979 C 731.489 153.165 731.551 153.002 731.511 153.353 L 731.789 159.228 C 732.093 159.665 735.68 160.451 736.287 161.072 Z M 761.968 141.038 C 761.728 140.515 762.234 139.461 762.404 138.86 L 763.965 133.383 C 764.236 132.363 764.198 132.576 764.43 132.509 C 764.709 132.774 764.666 132.267 764.552 133.053 L 762.393 140.773 C 762.191 141.096 762.41 140.973 761.968 141.038 Z M 809.794 105.744 C 811.015 106.067 816.136 108.039 817.922 108.714 C 818.258 108.84 818.937 109.139 819.21 109.192 C 819.692 109.287 820.016 108.798 820.135 109.308 L 820.648 123.427 C 820.066 123.564 820.095 124.102 820.039 123.023 C 819.912 120.581 819.754 109.827 819.522 109.2 C 819.223 109.546 819.323 109.472 819.336 110.068 L 819.797 123.537 C 818.499 123.26 816.441 124.219 815.109 124.624 C 814.609 124.776 810.978 126.084 810.471 125.821 L 809.794 105.744 Z M 798.235 125.924 C 798.638 124.917 799.156 124.379 799.303 122.882 C 799.423 121.669 799.289 120.147 799.244 118.904 C 799.002 112.19 798.529 113.917 800.693 110.855 C 801.437 109.803 802.555 107.869 803.434 107.575 C 805.226 106.974 807.742 106.159 809.527 105.753 C 809.981 109.423 809.88 120.08 810.2 125.055 C 810.219 125.351 810.31 125.841 810.158 126.133 L 786.438 133.317 L 785.339 130.697 L 792.123 128.651 C 793.243 128.312 794.358 127.97 795.463 127.639 C 796.258 127.401 797.969 126.825 797.997 125.818 C 797.628 125.891 797.936 125.775 797.654 125.981 C 797.478 126.109 796.719 127.275 795.673 127.141 C 796.161 126.633 796.15 126.987 796.886 126.244 C 797.2 125.927 797.537 125.508 797.785 125.093 C 798.016 124.706 798.261 124.196 798.412 123.67 C 798.859 122.107 798.29 122.281 798.936 122.13 C 799.274 122.618 798.929 123.717 798.729 124.249 C 798.201 125.66 797.796 125.378 798.235 125.924 Z M 798.894 121.876 C 798.502 121.614 798.635 121.394 798.628 120.832 L 798.51 113.03 C 798.789 113.172 798.706 113.056 798.797 113.4 L 798.934 117.377 C 798.954 117.942 799.278 121.425 798.894 121.876 Z M 802.742 107.408 C 802.962 107.136 803.161 107.165 803.558 107.055 C 803.959 106.943 804.265 106.824 804.618 106.716 C 805.354 106.492 806.074 106.308 806.886 106.038 C 809.659 105.115 809.504 105.01 811.418 105.747 C 812.339 106.101 819.672 108.849 819.933 108.833 C 819.112 109.101 817.589 108.309 816.811 108.029 L 810.822 105.828 C 809.268 105.255 809.213 105.562 807.649 106.03 L 802.97 107.505 C 802.608 107.718 800.959 109.96 800.709 110.353 L 798.992 112.759 C 798.608 113.04 798.994 112.997 798.42 112.727 C 798.879 112.055 802.011 107.998 802.117 107.34 C 802.398 107.627 802.199 107.5 802.625 107.653 L 802.742 107.408 Z" style="fill:#0e0e10;fill-rule:evenodd" id="path820"/>
    <path d="M 835.284 157.75 L 835.485 157.66 C 835.462 157.486 835.425 157.524 835.599 157.546 C 835.398 155.206 835.328 142.505 834.919 141.625 L 780.343 158.2 L 744.235 169.208 C 744.287 171.951 744.419 174.626 744.489 177.27 L 744.747 184.703 C 744.757 184.741 744.77 184.779 744.781 184.813 L 744.88 185.029 C 744.889 185.009 744.914 185.103 744.961 185.135 L 744.866 181.89 L 748.611 183.289 C 748.169 183.565 747.462 183.706 746.883 183.887 C 745.919 184.19 745.948 184.289 744.948 184.063 L 744.917 184.714 C 745.294 184.649 745.241 184.612 745.658 184.596 C 745.233 184.804 745.323 184.644 744.967 184.956 L 745.229 185.011 C 745.255 185.011 745.295 185.011 745.322 185.009 C 745.441 185 745.61 184.941 745.711 184.91 L 790.068 171.396 C 791.914 170.822 834.494 157.721 835.284 157.751 L 835.284 157.75 Z M 745.843 181.814 C 744.932 181.51 744.859 181.694 744.842 180.762 L 750.284 182.737 C 749.766 183.165 749.372 183.111 748.661 182.834 C 748.163 182.64 747.736 182.488 747.256 182.32 C 746.765 182.148 746.331 181.977 745.843 181.814 Z M 744.756 178.389 L 752.78 181.287 C 753.192 181.439 753.549 181.52 753.868 181.786 C 750.65 182.41 752.057 183.09 749.273 182.096 C 747.825 181.579 746.223 180.877 744.813 180.514 L 744.756 178.389 Z M 750.184 179.903 C 749.295 179.575 748.393 179.26 747.545 178.959 C 746.99 178.762 745.39 178.361 745.14 177.916 L 745.14 177.383 C 746.094 177.642 755.075 180.938 755.532 181.256 C 754.279 181.66 753.99 181.263 752.815 180.857 C 751.938 180.553 751.062 180.227 750.184 179.903 Z M 745.497 177.18 C 746.38 176.845 748.255 176.115 749.072 176.413 L 755.793 178.908 C 756.911 179.31 758.022 179.691 759.116 180.124 C 758.414 180.461 756.304 181.173 755.579 180.919 L 745.497 177.18 Z M 752.633 177.326 C 750.232 176.448 750.388 176.811 750.395 175.794 L 760.782 179.586 C 759.824 180.198 759.128 179.652 758.095 179.288 C 757.186 178.967 756.279 178.645 755.365 178.306 C 754.44 177.962 753.577 177.671 752.633 177.326 Z M 750.198 175.75 L 750.124 176.548 L 749.114 176.102 L 750.198 175.75 Z M 751.306 175.391 C 752.243 175.038 753.521 174.562 754.428 174.897 C 755.503 175.294 756.632 175.688 757.713 176.097 C 758.811 176.513 759.835 176.916 760.979 177.306 L 764.214 178.556 C 763.409 178.982 761.524 179.614 760.658 179.288 C 758.758 178.573 751.589 176.081 750.852 175.612 L 751.306 175.391 Z M 763.18 177.659 C 762.354 177.37 761.483 177.056 760.641 176.743 C 759.736 176.406 756.119 175.274 755.624 174.844 L 755.643 174.216 L 765.878 178.044 C 764.974 178.572 764.101 177.981 763.18 177.659 Z M 754.469 174.486 C 754.792 174.315 755.192 174.28 755.45 174.079 L 755.333 174.939 L 754.278 174.618 L 754.469 174.486 Z M 755.905 173.98 C 757.598 173.693 758.361 172.838 759.513 173.262 L 769.527 176.95 C 768.653 177.357 766.807 178.035 765.94 177.724 L 755.905 173.98 Z M 768.557 176.123 C 766.8 175.489 761.983 173.653 760.841 173.395 L 760.842 172.625 L 771.224 176.453 C 769.981 176.92 769.716 176.541 768.557 176.123 Z M 760.687 172.574 L 760.602 173.371 L 759.491 172.952 L 760.687 172.574 Z M 761.224 172.382 C 762.431 171.963 763.887 171.361 764.791 171.699 L 774.697 175.37 C 773.955 175.778 771.959 176.43 771.118 176.124 L 764.478 173.674 C 763.909 173.466 763.372 173.26 762.8 173.048 C 762.333 172.876 761.61 172.684 761.224 172.382 Z M 776.378 174.832 C 775.498 175.434 774.609 174.841 773.645 174.49 C 771.839 173.832 767.287 172.094 765.999 171.766 L 766.035 171.026 L 776.378 174.832 Z M 765.755 171.045 L 765.765 171.782 L 764.733 171.342 L 765.755 171.045 Z M 768.108 170.297 C 769.394 169.916 769.059 169.776 769.783 170.028 C 770.603 170.314 779.431 173.418 779.892 173.876 C 778.762 174.084 777.458 174.943 776.306 174.522 L 766.36 170.897 L 768.108 170.297 Z M 778.92 172.927 C 778.052 172.613 777.174 172.306 776.283 171.981 C 775.581 171.725 771.477 170.417 771.253 169.98 L 771.26 169.446 L 781.614 173.293 C 780.356 173.722 780.141 173.367 778.92 172.927 Z M 770.985 169.447 L 770.994 170.187 L 769.887 169.785 L 770.985 169.447 Z M 771.564 169.28 C 772.374 168.932 774.274 168.183 775.064 168.46 L 781.809 170.941 C 782.845 171.304 784.259 171.759 785.186 172.197 C 784.437 172.551 782.448 173.251 781.685 172.99 C 779.353 172.19 773.293 169.761 771.564 169.28 Z M 778.642 169.365 C 776.277 168.526 776.497 168.841 776.483 167.863 L 786.863 171.73 C 785.981 171.941 786.135 172.073 785.231 171.737 L 778.642 169.365 Z M 758.173 168.212 L 758.176 168.984 L 756.825 168.538 L 758.173 168.212 Z M 752.889 166.939 L 753.011 168.444 C 752.398 168.824 744.965 170.982 744.507 171.108 L 744.489 169.431 L 752.889 166.939 Z M 776.206 167.854 L 776.232 168.574 C 776.047 168.534 775.793 168.477 775.629 168.413 C 775.272 168.273 775.395 168.316 775.209 168.143 L 776.206 167.854 Z M 753.454 166.703 C 753.671 167.008 753.552 167.1 753.619 167.545 C 753.682 167.96 753.709 167.847 753.898 168.188 C 753.846 168.22 753.944 168.252 753.526 168.371 C 753.439 168.395 753.332 168.374 753.289 168.371 C 753.187 168.07 753.194 167.823 753.183 167.412 C 753.162 166.668 753.001 166.91 753.454 166.703 Z M 754.35 167.956 C 754.806 167.74 756.886 167.03 757.359 167.114 C 757.882 167.208 757.684 167.384 758.286 167.197 L 758.295 167.941 C 757.603 167.998 756.84 168.307 756.43 168.599 C 756.728 168.77 757.316 168.978 757.654 169.134 C 756.551 169.51 755.453 169.713 754.314 170.069 C 753.156 170.432 752.3 170.762 751.144 171.122 C 750.06 171.459 749.018 171.769 747.907 172.109 C 746.866 172.427 745.608 172.882 744.565 173.09 L 744.509 171.388 L 754.423 168.389 C 754.636 167.485 754.272 168.399 754.35 167.956 Z M 776.916 167.676 C 777.358 167.385 778.059 167.255 778.595 167.093 C 779.356 166.864 779.57 166.644 780.44 166.932 L 790.277 170.62 C 789.818 170.916 789.152 171.014 788.589 171.191 C 787.785 171.444 787.596 171.652 786.762 171.361 L 776.916 167.676 Z M 789.287 169.729 C 788.436 169.408 787.615 169.13 786.742 168.818 C 785.749 168.463 782.259 167.38 781.697 166.908 L 781.732 166.288 L 791.972 170.108 C 791.09 170.618 790.143 170.051 789.287 169.729 Z M 757.026 165.636 L 757.053 166.841 L 753.913 167.719 L 753.812 166.599 L 757.026 165.636 Z M 781.487 166.258 L 781.437 167.013 L 780.332 166.589 L 781.487 166.258 Z M 781.994 166.037 C 783.143 165.813 784.505 164.919 785.533 165.292 L 793.955 168.399 C 794.303 168.536 794.482 168.588 794.801 168.703 L 795.605 169.087 C 794.525 169.289 793.08 170.166 792.05 169.791 C 790.79 169.331 782.482 166.35 781.994 166.037 Z M 758.192 165.278 C 758.304 166.359 758.585 167.659 757.345 166.78 C 757.326 166.56 757.333 166.332 757.314 166.132 L 757.17 165.573 L 758.192 165.278 Z M 791.831 167.184 C 790.923 166.862 790.038 166.52 789.11 166.194 C 786.619 165.319 786.87 165.659 786.871 164.682 C 786.556 164.867 786.668 165.128 786.477 165.377 L 785.576 165.004 C 787.142 164.495 787.013 164.709 788.595 165.307 L 797.306 168.504 C 796.104 169.004 795.74 168.601 794.563 168.164 C 793.684 167.837 792.719 167.499 791.831 167.184 Z M 758.454 165.372 C 758.541 165.143 758.424 165.167 759.113 165.004 C 758.858 165.312 758.979 164.902 758.92 165.493 L 759.045 169.17 C 758.834 168.987 758.935 169.046 758.611 168.948 L 758.454 165.372 Z M 787.281 164.519 C 788.1 164.143 789.921 163.449 790.801 163.736 L 800.79 167.462 C 799.914 167.799 798.098 168.492 797.224 168.195 L 787.281 164.519 Z M 799.746 166.565 C 798.877 166.24 798.024 165.947 797.2 165.654 C 795.573 165.076 793.729 164.282 792.11 163.836 L 792.162 163.12 C 793.861 163.723 795.631 164.363 797.339 165.011 C 798.867 165.591 801.104 166.256 802.459 166.924 C 801.476 167.426 800.696 166.919 799.746 166.565 Z M 791.829 163.102 L 791.856 163.845 L 790.815 163.412 L 791.829 163.102 Z M 792.464 162.965 C 792.561 162.893 792.548 162.892 792.727 162.807 C 792.763 162.79 792.878 162.744 792.918 162.729 L 794.203 162.349 C 796.242 161.765 796.152 162.211 799.349 163.387 C 800.001 163.627 805.424 165.475 805.988 165.929 C 802.511 166.599 804.771 167.526 799.134 165.384 L 792.464 162.965 Z M 807.697 165.329 C 806.544 165.809 806.193 165.434 805.02 165.001 C 803.699 164.514 797.776 162.477 797.365 162.172 L 797.351 161.52 L 807.697 165.329 Z M 797.143 161.463 L 797.083 162.25 L 795.971 161.835 L 797.143 161.463 Z M 797.658 161.338 C 798.58 160.957 800.306 160.236 801.262 160.571 L 811.266 164.287 C 810.217 164.561 808.677 165.39 807.695 165.025 L 797.658 161.338 Z M 811.668 157.05 C 813.304 156.543 813.121 156.819 814.692 157.388 C 815.943 157.84 822.757 160.244 823.377 160.616 C 822.678 160.796 822.372 160.949 821.769 160.706 L 813.252 157.629 C 813.22 157.617 813.147 157.592 813.073 157.564 C 813.016 157.397 813.037 157.347 812.992 157.174 L 812.765 156.961 C 812.645 157.548 812.746 156.504 812.732 157.17 C 812.721 157.711 812.682 157.281 812.836 157.54 L 811.668 157.05 Z M 816.108 158.647 C 816.108 158.618 816.061 158.57 816.042 158.591 C 815.791 158.857 816.13 158.665 816.135 158.67 C 816.137 158.671 816.108 158.659 816.108 158.647 Z M 804.75 161.43 C 802.331 160.585 802.577 160.896 802.571 159.934 L 812.94 163.778 C 811.567 164.155 811.249 163.789 810.017 163.332 C 809.148 163.01 808.264 162.687 807.386 162.381 C 806.471 162.062 805.665 161.75 804.75 161.43 Z M 802.323 159.905 L 802.327 160.666 L 801.31 160.218 L 802.323 159.905 Z M 802.99 159.74 C 803.017 159.723 803.057 159.706 803.075 159.697 C 804.028 159.27 805.62 158.667 806.548 159.006 L 816.336 162.684 C 815.523 163.137 813.667 163.719 812.775 163.393 L 802.99 159.74 Z M 815.387 161.802 L 808.804 159.424 C 807.547 158.968 807.896 159.18 807.74 158.844 L 807.745 158.333 L 818.053 162.172 C 817.148 162.674 816.21 162.107 815.387 161.802 Z M 807.513 158.34 L 807.465 159.083 L 806.392 158.652 L 807.513 158.34 Z M 791.599 157.052 C 794.711 155.963 799.681 154.667 803.083 153.565 L 811.635 150.964 C 812.299 150.851 813.753 151.61 814.413 151.819 C 813.734 152.14 795.084 157.859 793.676 158.039 C 793.87 158.494 793.66 158.335 794.14 158.532 C 793.621 158.674 792.008 159.285 791.663 159.143 C 791.931 158.871 791.649 159.066 792.151 158.887 C 792.345 158.818 792.566 158.76 792.739 158.71 L 793.697 158.393 C 793.709 158.358 793.748 158.364 793.771 158.347 C 793.214 158.027 792.725 158.671 791.647 158.731 L 791.599 157.052 Z M 808.089 158.09 C 809.244 157.901 810.573 156.979 811.63 157.373 C 812.993 157.88 821.188 160.796 821.702 161.137 C 820.661 161.331 819.101 162.207 818.154 161.859 C 816.423 161.224 808.637 158.477 808.089 158.09 Z M 813.374 156.564 C 813.831 156.295 814.544 156.166 815.117 156 C 815.938 155.761 816.085 155.515 816.911 155.809 L 826.82 159.471 C 826.38 159.767 825.687 159.889 825.09 160.074 C 824.302 160.316 824.072 160.527 823.238 160.225 L 813.374 156.564 Z M 816.908 155.564 C 817.127 155.402 816.759 155.591 817.185 155.383 L 817.958 155.144 L 817.957 155.917 L 816.908 155.564 Z M 828.551 159.008 C 827.479 159.506 826.751 158.97 825.748 158.614 L 820.296 156.641 C 817.453 155.634 818.457 156.138 818.106 155.144 L 828.551 159.008 Z M 818.554 155.056 C 818.685 154.944 818.62 154.981 818.826 154.868 L 819.411 154.657 C 821.089 154.179 820.647 154.076 821.877 154.551 L 831.467 158.048 L 829.81 158.66 C 828.942 158.941 828.938 158.824 828.139 158.528 C 826.715 158.002 819.383 155.227 818.554 155.056 Z M 816.635 147.479 L 816.756 151.193 C 815.688 151.375 815.308 151.904 814.203 151.47 C 813.441 151.17 812.725 150.889 811.956 150.654 L 811.972 148.894 L 816.635 147.479 Z M 813.231 156.252 C 812.241 156.705 810.189 157.214 809.019 157.57 L 796.064 161.513 C 790.361 163.227 784.593 165.028 778.893 166.742 L 748.962 175.854 C 747.635 176.259 746.045 176.828 744.709 177.116 L 744.601 173.742 C 746.793 173.308 749.666 172.209 751.941 171.54 C 753.728 171.014 757.502 169.843 759.324 169.433 L 759.191 164.959 L 791.161 155.244 C 794.517 154.194 798.064 153.113 801.478 152.087 C 804.885 151.064 808.283 149.939 811.694 148.995 L 811.752 150.66 L 791.589 156.777 L 791.544 155.388 C 791.512 155.369 791.463 155.329 791.451 155.328 C 791.441 155.327 791.377 155.402 791.367 155.37 C 791.351 155.315 791.326 155.472 791.294 155.515 L 791.465 159.554 C 792.127 159.468 793.798 158.956 794.4 158.703 C 795.508 158.237 802.203 156.184 802.709 156.199 C 803.136 155.849 805.906 155.12 806.407 154.966 L 817.599 151.581 L 817.562 148.085 C 817.539 147.262 817.422 147.409 817.243 147.272 C 817.266 148 817.515 150.775 817.198 151.209 C 816.776 150.79 816.935 148.548 816.893 147.407 L 820.579 146.308 L 820.805 153.992 L 813.231 156.252 Z M 833.95 142.222 L 834.433 157.18 C 834.082 157.411 833.217 157.611 832.754 157.762 C 831.873 158.049 831.768 157.925 830.96 157.626 L 824.317 155.18 C 823.363 154.817 821.957 154.222 821.043 153.994 C 821.044 152.811 820.885 146.957 820.728 146.231 L 833.95 142.222 Z M 834.626 155.626 C 834.579 154.953 834.62 154.271 834.605 153.596 L 834.13 142.146 L 834.76 141.984 C 835.021 144.264 834.955 147.23 835.039 149.595 C 835.059 150.159 835.508 156.737 835.118 157.198 C 834.565 157.034 834.742 157.278 834.626 155.626 Z" style="fill:#0e0e10;fill-rule:evenodd" id="path822"/>
    <path d="M 772.391 157.555 C 772.432 159.734 773.215 159.85 775.123 159.271 C 775.995 159.007 778.5 158.118 779.201 158.13 C 779.667 157.696 780.701 157.558 781.398 157.346 L 788.171 155.289 C 791.155 154.36 794.134 153.496 797.101 152.573 C 807.35 149.383 806.725 150.817 806.589 144.772 C 806.44 138.151 806.651 138.389 801.62 139.934 C 800.116 140.395 798.721 140.837 797.207 141.282 C 794.211 142.164 791.261 143.124 788.277 143.999 C 786.937 144.392 774.309 148.102 773.316 148.677 L 772.971 148.914 C 772.497 149.361 772.158 150.08 772.137 150.94 C 772.625 150.735 772.306 151.048 772.48 150.331 C 772.549 150.046 772.59 149.698 772.791 149.451 L 773.434 148.859 C 773.811 148.615 775.436 148.183 776.026 148.009 L 792.117 143.112 C 795.664 142.009 799.261 140.931 802.818 139.862 C 803.304 139.716 803.7 139.592 804.184 139.43 C 806.641 138.612 806.038 140.972 806.056 141.948 C 806.066 142.51 806.039 143.15 806.168 143.673 C 806.3 144.212 806.328 143.381 806.239 144.286 C 806.213 144.551 806.183 144.708 806.177 145.015 C 806.137 147.358 806.79 149.271 804.751 149.911 L 775.567 158.803 C 772.562 159.711 772.65 159.92 772.53 155.263 C 772.51 154.508 772.471 153.755 772.449 153.001 L 772.389 151.306 C 772.258 150.904 772.561 151.185 772.127 151.004 L 772.391 157.555 Z" style="fill:#0e0e10;fill-rule:evenodd" id="path824"/>
    <path d="M 802.999 116.635 C 803.139 116.162 803.18 116.387 803.369 115.957 C 803.522 115.61 803.451 115.436 803.663 115.037 L 803.773 115.35 C 803.854 115.598 803.901 115.608 803.86 115.938 C 803.797 116.447 803.488 116.589 802.999 116.635 Z M 802.65 115.591 C 803.003 115.477 803.005 115.565 803.168 115.274 C 803.301 115.985 803.206 116.197 802.572 116.327 C 802.797 116.078 802.897 116.091 802.734 115.689 C 802.679 115.749 802.631 115.696 802.559 115.91 C 802.52 116.027 802.511 116.164 802.538 116.295 C 802.584 116.521 802.591 116.482 802.7 116.62 C 802.723 116.649 802.807 116.73 802.832 116.754 L 802.99 116.886 C 805.075 116.839 803.803 113.663 802.65 115.591 Z" style="fill:#0e0e10;fill-rule:evenodd" id="path900"/>
  </g>
</svg>