<?xml version="1.0" encoding="utf-8"?>
<svg xmlns="http://www.w3.org/2000/svg" viewBox="42.745 163.6403 115.712 80.7363" width="115.712px" height="80.7363px">
  <g id="Layer1005" transform="matrix(1, 0, 0, 1, -533.2659912109375, 44.10319900512697)">
    <path d="M 593.971 172.768 L 596.674 172.044 L 596.713 173.78 C 595.799 173.456 594.788 173.064 593.971 172.768 Z M 601.404 170.21 C 601.633 169.839 603.729 169.356 604.13 169.229 C 605.039 168.941 605.967 168.672 606.892 168.392 L 679.36 146.347 C 683.034 145.204 686.796 143.997 690.51 142.971 L 691.399 169.887 L 691.499 172.936 C 689.696 173.358 687.698 174.059 685.925 174.61 C 684.069 175.186 682.178 175.744 680.315 176.318 C 656.253 183.734 631.85 190.885 607.848 198.369 C 606.935 198.653 602.85 200.002 602.244 199.994 C 602.004 195.18 601.943 190.33 601.75 185.504 C 601.671 183.531 601.177 172.075 601.358 171.08 C 601.19 170.776 601.339 170.882 601.242 170.633 C 601.084 170.228 601.33 170.516 601.012 170.247 C 601.184 170.112 600.713 170.024 601.404 170.21 L 601.404 170.21 Z M 590.381 171.493 C 590.372 171.44 590.36 171.193 590.357 171.127 C 590.3 169.913 590.354 166.535 590.079 165.879 C 590.482 166.092 590.099 166.051 590.763 165.982 C 590.764 167.062 590.742 168.171 590.822 169.246 C 590.912 170.46 591.157 171.63 590.519 171.884 L 590.381 171.493 Z M 594.597 173.899 C 595.282 173.925 595.977 174.376 596.541 174.506 C 596.581 174.515 596.804 174.522 596.805 174.522 C 596.973 174.461 596.779 174.801 596.979 174.345 L 596.829 168.639 L 600.962 170.113 L 601.983 200.024 L 579.144 191.905 L 578.78 186.252 L 577.523 185.719 L 577.329 180.759 L 578.395 181.083 C 578.228 180.648 578.139 180.829 577.758 180.536 L 578.408 180.423 C 577.885 179.997 577.284 180.352 577.183 180.505 C 577.04 180.72 577.182 185.171 577.291 185.581 C 577.43 186.103 577.555 186.022 577.857 186.14 C 578.101 186.235 578.373 186.302 578.631 186.373 C 578.675 187.324 578.703 188.278 578.73 189.232 L 578.791 191.344 C 578.866 192.275 578.975 192.119 580.506 192.671 C 581.104 192.886 581.63 193.071 582.242 193.292 C 583.386 193.705 584.477 194.08 585.624 194.499 L 587.493 195.109 C 588.534 195.639 597.65 198.77 599.152 199.329 C 602.86 200.708 601.684 200.513 606.15 199.159 C 615.675 196.271 625.186 193.404 634.682 190.479 C 648.863 186.112 663.29 181.86 677.476 177.458 C 682.179 175.998 687.131 174.668 691.723 173.102 L 691.718 171.468 C 691.334 165.586 691.297 159.313 691.114 153.382 C 691.021 150.364 690.915 147.346 690.803 144.323 C 690.73 142.369 690.954 142.768 688.775 141.95 C 686.872 141.235 686.172 140.684 685.411 141.468 L 688.633 142.686 L 685.727 143.543 L 685.655 141.564 C 685.375 141.833 685.478 141.633 685.418 142.092 L 685.466 143.583 C 684.761 144.008 683.514 144.252 682.626 144.519 C 681.497 144.858 680.939 145.303 680.039 144.628 L 679.895 140.214 C 679.885 139.985 679.885 139.706 679.868 139.487 L 679.719 138.853 C 679.478 139.256 679.608 139.965 679.65 140.43 L 679.754 143.821 C 679.863 145.012 679.681 144.614 679.343 144.952 L 680.653 145.128 C 680.171 145.251 679.865 145.253 679.286 144.867 C 679.246 143.86 679.217 142.853 679.179 141.846 C 679.16 141.352 679.244 139.358 678.938 139.014 C 678.69 139.41 678.959 143.27 678.995 144.338 C 679.024 145.206 679.029 145.095 679.698 145.407 L 676.077 146.489 L 675.759 138.209 C 675.602 137.883 675.792 138.116 675.556 137.987 L 675.809 146.56 C 674.814 147.046 672.286 147.669 671.119 148.021 L 657.142 152.277 C 650.932 154.15 644.708 156.048 638.499 157.944 C 636.906 158.43 601.699 169.033 601.174 169.383 L 603.875 168.732 C 604.756 168.454 605.725 168.181 606.635 167.894 C 619.379 163.881 632.443 160.161 645.247 156.148 C 652.608 153.84 659.986 151.715 667.328 149.445 L 688.995 142.838 C 689.254 142.738 689.102 142.81 689.244 142.716 C 688.715 142.142 686.845 141.798 686.009 141.375 C 686.739 141.306 689.412 142.485 690.204 142.771 C 682.366 145.058 674.598 147.534 666.79 149.894 C 659.019 152.243 651.265 154.618 643.49 156.983 C 629.984 161.092 616.098 165.227 602.607 169.44 C 602.38 169.511 601.233 169.901 601.126 169.914 C 600.73 169.964 601.193 169.985 600.527 169.682 C 599.601 169.259 598.001 168.954 597.174 168.384 C 597.81 168.284 600.152 169.371 601.108 169.632 C 601.084 169.613 601.054 169.583 601.04 169.569 C 601.025 169.557 600.99 169.522 600.972 169.507 C 600.953 169.491 600.924 169.462 600.903 169.445 C 600.468 169.096 599.494 168.835 598.956 168.636 C 596.429 167.698 596.548 167.901 596.624 170.133 C 596.642 170.664 596.654 171.172 596.676 171.708 C 596.241 171.899 594.299 172.556 593.795 172.637 C 593.341 172.71 591.729 171.949 591.138 171.793 C 591.135 170.876 591.108 166.314 590.883 165.844 C 590.726 165.555 590.801 165.616 590.164 165.393 L 588.015 164.559 C 597.557 161.471 607.819 158.595 617.522 155.583 L 620.466 154.678 C 620.866 154.593 621.177 154.453 621.599 154.365 C 621.773 154.252 621.639 154.437 621.65 154.069 L 620.047 154.616 L 622.167 147.059 C 622.21 146.874 622.241 146.472 622.244 146.451 L 622.532 145.833 C 622.701 145.316 622.674 145.623 622.464 145.323 L 622.199 146.06 L 621.672 145.912 C 621.998 145.551 621.853 145.571 622.013 145.18 L 622.448 144.37 C 622.488 144.281 623.955 142.613 624.674 142.822 C 624.689 143.04 624.881 142.663 624.595 142.959 C 624.407 143.153 624.236 143.13 623.728 143.679 L 623.157 144.313 C 622.883 144.727 622.757 144.691 622.497 145.335 C 622.946 145.197 622.601 145.445 622.941 144.992 C 623.236 144.6 623.326 144.279 623.869 143.811 C 624.324 143.42 624.9 143.05 625.631 142.847 C 628.435 142.069 635.077 139.806 637.328 139.3 C 638.447 139.048 637.632 139.184 638.273 138.858 L 638.197 139.128 C 638.193 139.106 638.169 139.186 638.162 139.216 C 639.035 139.317 639.369 139.495 639.654 139.839 C 640.437 140.785 642.643 146.255 643.089 147.429 C 643.067 147.447 643.034 147.469 643.02 147.478 C 643.005 147.487 642.968 147.515 642.95 147.525 L 640.523 148.314 C 639.637 148.584 638.766 148.842 637.86 149.123 C 636.095 149.67 634.395 150.16 632.629 150.712 L 622.125 153.882 L 622.127 154.15 C 623.882 153.747 625.853 153.04 627.6 152.512 C 629.41 151.964 631.193 151.408 633.019 150.86 C 634.85 150.311 636.608 149.77 638.439 149.206 C 639.378 148.917 640.261 148.66 641.196 148.369 C 642.128 148.079 643.601 147.953 643.301 147.247 C 648.001 146.004 673.899 137.702 675.159 137.635 L 647.27 146.252 C 646.156 146.597 644.915 146.836 643.846 147.292 L 643.532 147.49 C 643.521 147.467 643.485 147.529 643.466 147.553 C 643.854 147.71 647.146 146.56 647.856 146.347 L 670.201 139.541 C 671.672 139.105 673.183 138.655 674.674 138.186 C 675.905 137.798 675.668 137.888 676.882 138.344 C 677.02 138.396 678.765 139.182 678.873 138.907 C 678.885 138.875 678.93 138.888 678.968 138.833 L 676.208 137.754 C 676.34 137.687 676.231 137.703 676.45 137.702 C 676.697 137.7 676.426 137.683 676.629 137.718 L 678.837 138.513 C 679.239 138.694 679.187 138.985 679.193 138.944 C 679.195 138.928 679.195 138.996 679.213 139.036 L 679.752 138.746 C 679.221 138.144 677.449 137.829 676.556 137.409 L 676.019 123.334 C 675.087 122.541 669.231 120.74 667.408 120.03 C 665.85 119.424 666.069 119.377 664.441 119.888 C 657.434 122.086 659.238 120.66 656.688 124.04 C 656.116 124.798 654.561 126.497 654.523 127.463 C 654.446 129.389 654.637 131.357 654.708 133.286 C 654.992 140.923 653.287 140.479 644.835 142.949 C 644.052 143.178 642.606 143.731 641.871 143.81 C 640.376 141.636 640.891 139.156 637.653 138.745 L 637.691 138.83 C 637.715 139.13 638.152 138.669 637.629 138.978 C 637.509 139.049 637.25 139.081 637.052 139.099 C 637.275 138.974 637.313 138.986 637.41 138.723 L 636.895 138.876 C 634.508 139.259 628.587 141.258 626.252 141.977 C 625.774 142.124 625.305 142.293 624.871 142.452 C 624.147 142.719 623.605 142.954 623.041 143.486 C 621.145 145.271 621.007 147.937 620.2 150.46 C 617.69 151.117 615.071 151.99 612.599 152.761 L 591.681 159.136 C 591.355 159.236 590.98 159.34 590.631 159.342 L 589.839 159.21 C 589.83 159.179 589.488 159.395 590.34 159.649 C 591.005 159.848 590.63 159.554 590.891 159.824 C 592.403 159.856 596.728 158.29 598.403 157.794 L 612.859 153.397 C 614.355 152.96 618.862 151.737 619.992 151.198 C 618.986 154.352 619.72 154.175 617.91 154.72 L 604.98 158.662 C 602.828 159.307 589.334 163.569 587.635 163.913 L 587.14 150.289 L 578.148 146.932 C 578.501 146.69 582.936 145.368 583.688 145.173 C 584.295 145.015 584.557 145.262 584.957 145.552 C 585.409 145.88 585.63 146.031 586.043 146.323 C 586.49 146.639 586.709 146.771 587.139 147.088 C 587.439 147.309 587.831 147.583 588.164 147.762 C 588.233 149.831 588.405 152.097 588.41 154.122 C 588.414 155.627 588.182 157.765 589.292 158.971 C 589.733 159.45 589.446 159.221 589.655 159.031 L 589.204 158.453 C 588.469 157.469 588.667 155.172 588.62 154 C 588.548 152.202 588.64 149.351 588.359 147.691 C 588.187 147.386 584.601 145.074 584.062 144.792 C 584.056 144.789 584.01 144.713 583.76 144.641 C 583.022 144.43 578.239 146.158 576.854 146.544 C 576.542 146.631 576.149 146.671 576.056 146.988 L 576.011 148.545 C 576.03 149.084 576.051 149.621 576.074 150.16 C 576.118 151.223 576.132 152.308 576.173 153.387 C 576.279 156.18 576.516 171.854 576.913 172.404 C 577.185 172.781 578.021 172.824 578.368 172.972 C 578.135 173.314 578.275 172.814 578.211 173.48 C 578.201 173.591 578.221 173.985 578.222 174.096 C 578.249 175.462 578.226 180.423 578.59 181.224 C 578.862 180.68 578.652 180.29 578.621 179.556 L 578.477 173.903 C 578.402 172.934 578.912 172.943 577.039 172.352 L 576.204 147.12 C 577.427 147.429 582.083 149.223 583.853 149.876 C 584.305 150.042 584.665 150.161 585.127 150.339 C 586.589 150.901 586.124 150.657 586.29 150.497 L 576.617 146.932 L 577.031 146.715 C 577.131 146.677 577.38 146.613 577.51 146.575 L 580.173 145.764 C 581.082 145.494 582.879 144.733 583.826 144.866 C 582.707 145.333 578.599 146.297 577.859 146.809 C 577.855 146.812 577.832 146.825 577.827 146.829 C 577.82 146.834 577.792 146.848 577.785 146.853 C 577.071 147.346 577.808 146.611 577.532 147.053 C 578.39 147.227 583.647 149.271 584.974 149.748 C 585.356 149.885 585.855 150.007 586.185 150.167 C 587.093 150.604 586.289 150.223 586.529 150.509 L 586.945 150.778 L 587.295 161.445 C 587.331 162.967 587.747 164.318 587.046 164.585 C 586.678 164.114 586.87 164.171 586.87 164.171 L 586.463 152.257 C 586.452 151.788 586.52 150.95 586.276 150.683 C 586.014 151.102 586.426 158.868 586.478 160.085 C 586.699 165.285 585.985 164.7 588.41 165.539 C 588.701 165.64 589.008 165.774 589.319 165.879 C 589.635 165.986 589.533 165.942 589.772 165.99 L 590.009 166.039 C 590.019 166.016 590.059 166.045 590.081 166.057 C 589.946 166.237 590.007 166.079 589.968 166.419 L 590.238 172.112 C 590.532 172.536 594.008 173.298 594.597 173.899 L 594.597 173.899 Z M 619.482 154.485 C 619.25 153.979 619.74 152.957 619.905 152.375 L 621.418 147.067 C 621.681 146.079 621.644 146.285 621.868 146.22 C 622.139 146.477 622.097 145.986 621.987 146.748 L 619.895 154.228 C 619.699 154.541 619.911 154.422 619.482 154.485 Z M 665.829 120.284 C 667.012 120.597 671.974 122.507 673.705 123.161 C 674.03 123.284 674.688 123.574 674.953 123.626 C 675.42 123.717 675.734 123.243 675.849 123.738 L 676.347 137.419 C 675.783 137.552 675.811 138.073 675.756 137.027 C 675.633 134.662 675.48 124.24 675.255 123.632 C 674.966 123.968 675.062 123.896 675.075 124.474 L 675.522 137.526 C 674.264 137.257 672.269 138.187 670.979 138.58 C 670.495 138.727 666.976 139.994 666.485 139.739 L 665.829 120.284 Z M 654.628 139.839 C 655.018 138.863 655.52 138.342 655.663 136.891 C 655.778 135.716 655.648 134.241 655.605 133.036 C 655.371 126.53 654.912 128.204 657.009 125.236 C 657.73 124.217 658.813 122.343 659.665 122.058 C 661.402 121.476 663.84 120.686 665.57 120.292 C 666.01 123.849 665.912 134.176 666.221 138.997 C 666.24 139.284 666.328 139.759 666.181 140.041 L 643.195 147.003 L 642.131 144.464 L 648.705 142.482 C 649.79 142.153 650.87 141.822 651.941 141.501 C 652.711 141.271 654.37 140.712 654.396 139.737 C 654.039 139.807 654.337 139.695 654.064 139.894 C 653.894 140.019 653.158 141.148 652.145 141.018 C 652.617 140.526 652.607 140.869 653.32 140.149 C 653.624 139.842 653.951 139.436 654.191 139.034 C 654.415 138.659 654.653 138.165 654.799 137.655 C 655.232 136.14 654.681 136.309 655.306 136.163 C 655.634 136.635 655.299 137.7 655.106 138.216 C 654.594 139.583 654.202 139.31 654.628 139.84 L 654.628 139.839 Z M 655.266 135.916 C 654.886 135.662 655.015 135.449 655.008 134.905 L 654.894 127.344 C 655.164 127.481 655.084 127.37 655.172 127.703 L 655.305 131.557 C 655.324 132.104 655.638 135.479 655.266 135.916 L 655.266 135.916 Z M 658.995 121.896 C 659.208 121.633 659.401 121.661 659.785 121.554 C 660.174 121.445 660.471 121.33 660.813 121.226 C 661.526 121.008 662.223 120.831 663.01 120.569 C 665.697 119.674 665.547 119.572 667.402 120.286 C 668.295 120.63 675.401 123.293 675.654 123.278 C 674.858 123.537 673.382 122.77 672.628 122.498 L 666.825 120.365 C 665.318 119.81 665.266 120.108 663.75 120.561 L 659.216 121.99 C 658.865 122.197 657.267 124.37 657.025 124.75 L 655.36 127.082 C 654.988 127.354 655.362 127.312 654.806 127.05 C 655.252 126.399 658.286 122.468 658.389 121.83 C 658.661 122.108 658.468 121.985 658.881 122.134 L 658.995 121.896 Z" style="fill:#0e0e10;fill-rule:evenodd" id="path543"/>
    <path d="M 690.529 170.68 L 690.724 170.593 C 690.702 170.424 690.666 170.461 690.834 170.483 C 690.64 168.215 690.572 155.907 690.175 155.054 L 637.289 171.116 L 602.299 181.784 C 602.349 184.441 602.477 187.033 602.545 189.596 L 602.795 196.799 C 602.805 196.836 602.817 196.872 602.828 196.905 L 602.924 197.114 C 602.932 197.095 602.957 197.187 603.002 197.217 L 602.911 194.073 L 606.539 195.429 C 606.111 195.696 605.426 195.832 604.865 196.008 C 603.931 196.301 603.959 196.398 602.989 196.178 L 602.959 196.81 C 603.325 196.746 603.273 196.711 603.678 196.695 C 603.266 196.896 603.353 196.741 603.008 197.044 L 603.262 197.097 C 603.288 197.097 603.326 197.097 603.353 197.095 C 603.468 197.087 603.631 197.029 603.729 196.999 L 646.713 183.904 C 648.502 183.347 689.764 170.652 690.529 170.68 L 690.529 170.68 Z M 603.857 193.999 C 602.974 193.705 602.904 193.883 602.887 192.979 L 608.161 194.894 C 607.659 195.308 607.277 195.256 606.587 194.988 C 606.105 194.8 605.691 194.652 605.226 194.49 C 604.75 194.323 604.33 194.157 603.857 193.999 L 603.857 193.999 Z M 602.804 190.681 L 610.579 193.489 C 610.978 193.636 611.324 193.715 611.634 193.972 C 608.515 194.576 609.879 195.236 607.18 194.273 C 605.778 193.772 604.225 193.091 602.859 192.739 L 602.804 190.681 Z M 608.064 192.148 C 607.202 191.83 606.328 191.524 605.506 191.233 C 604.969 191.042 603.418 190.653 603.176 190.222 L 603.176 189.705 C 604.1 189.956 612.803 193.15 613.246 193.458 C 612.031 193.85 611.752 193.465 610.613 193.071 C 609.764 192.777 608.914 192.462 608.064 192.148 L 608.064 192.148 Z M 603.522 189.509 C 604.377 189.184 606.194 188.477 606.986 188.765 L 613.499 191.183 C 614.582 191.572 615.659 191.941 616.719 192.362 C 616.039 192.688 613.994 193.378 613.292 193.132 L 603.522 189.509 Z M 610.437 189.65 C 608.11 188.8 608.261 189.151 608.268 188.165 L 618.334 191.84 C 617.405 192.433 616.73 191.904 615.73 191.551 C 614.849 191.24 613.969 190.928 613.084 190.6 C 612.188 190.267 611.351 189.984 610.437 189.65 L 610.437 189.65 Z M 608.077 188.123 L 608.006 188.897 L 607.027 188.464 L 608.077 188.123 Z M 609.151 187.775 C 610.059 187.433 611.297 186.972 612.176 187.296 C 613.218 187.681 614.312 188.063 615.36 188.459 C 616.424 188.862 617.416 189.253 618.525 189.631 L 621.659 190.842 C 620.879 191.255 619.053 191.867 618.214 191.551 C 616.372 190.858 609.425 188.444 608.71 187.989 L 609.151 187.775 Z M 620.658 189.973 C 619.857 189.692 619.013 189.388 618.197 189.085 C 617.32 188.759 613.815 187.662 613.335 187.245 L 613.354 186.637 L 623.272 190.346 C 622.396 190.858 621.55 190.285 620.658 189.973 L 620.658 189.973 Z M 612.216 186.898 C 612.529 186.732 612.917 186.698 613.166 186.504 L 613.053 187.337 L 612.031 187.025 L 612.216 186.898 Z M 613.607 186.408 C 615.248 186.129 615.988 185.301 617.104 185.712 L 626.808 189.285 C 625.961 189.68 624.172 190.337 623.332 190.035 L 613.607 186.408 Z M 625.868 188.484 C 624.165 187.87 619.498 186.091 618.391 185.841 L 618.392 185.095 L 628.453 188.804 C 627.248 189.257 626.992 188.889 625.868 188.484 L 625.868 188.484 Z M 618.241 185.045 L 618.159 185.817 L 617.082 185.411 L 618.241 185.045 Z M 618.762 184.859 C 619.931 184.453 621.343 183.87 622.218 184.197 L 631.817 187.755 C 631.099 188.15 629.165 188.782 628.35 188.486 L 621.915 186.111 C 621.364 185.91 620.843 185.71 620.289 185.505 C 619.837 185.338 619.136 185.152 618.762 184.859 L 618.762 184.859 Z M 633.447 187.233 C 632.594 187.817 631.732 187.242 630.798 186.902 C 629.048 186.264 624.637 184.58 623.389 184.262 L 623.424 183.545 L 633.447 187.233 Z M 623.153 183.563 L 623.162 184.277 L 622.162 183.851 L 623.153 183.563 Z M 625.433 182.839 C 626.679 182.469 626.355 182.334 627.055 182.578 C 627.851 182.855 636.405 185.863 636.852 186.307 C 635.757 186.508 634.494 187.341 633.377 186.933 L 623.739 183.42 L 625.433 182.839 Z M 635.911 185.387 C 635.069 185.083 634.218 184.786 633.355 184.47 C 632.674 184.222 628.697 182.955 628.48 182.531 L 628.487 182.014 L 638.521 185.742 C 637.302 186.158 637.093 185.813 635.911 185.387 Z M 628.221 182.015 L 628.229 182.732 L 627.157 182.343 L 628.221 182.015 Z M 628.781 181.853 C 629.567 181.516 631.408 180.79 632.173 181.059 L 638.71 183.463 C 639.714 183.815 641.084 184.255 641.982 184.68 C 641.256 185.023 639.329 185.701 638.59 185.448 C 636.329 184.674 630.457 182.32 628.781 181.853 L 628.781 181.853 Z M 635.641 181.936 C 633.349 181.123 633.562 181.428 633.548 180.48 L 643.607 184.228 C 642.753 184.432 642.902 184.559 642.025 184.235 L 635.641 181.936 Z M 615.805 180.818 L 615.809 181.567 L 614.499 181.134 L 615.805 180.818 Z M 610.684 179.585 L 610.803 181.043 C 610.209 181.411 603.007 183.502 602.562 183.625 L 602.545 182 L 610.684 179.585 Z M 633.28 180.471 L 633.305 181.169 C 633.126 181.131 632.88 181.075 632.721 181.013 C 632.375 180.878 632.494 180.919 632.314 180.751 L 633.28 180.471 Z M 611.233 179.356 C 611.442 179.651 611.327 179.741 611.392 180.172 C 611.453 180.574 611.48 180.465 611.663 180.795 C 611.613 180.826 611.708 180.857 611.302 180.972 C 611.218 180.996 611.114 180.975 611.073 180.972 C 610.974 180.68 610.981 180.441 610.97 180.043 C 610.949 179.322 610.793 179.557 611.233 179.356 L 611.233 179.356 Z M 612.101 180.57 C 612.542 180.361 614.558 179.673 615.017 179.755 C 615.523 179.845 615.332 180.016 615.915 179.834 L 615.924 180.555 C 615.253 180.611 614.514 180.91 614.117 181.194 C 614.406 181.359 614.975 181.561 615.303 181.712 C 614.234 182.076 613.17 182.273 612.066 182.618 C 610.944 182.969 610.115 183.289 608.994 183.638 C 607.944 183.965 606.933 184.265 605.857 184.594 C 604.849 184.903 603.629 185.344 602.618 185.545 L 602.564 183.896 L 612.172 180.989 C 612.378 180.114 612.025 180.998 612.101 180.57 L 612.101 180.57 Z M 633.968 180.299 C 634.397 180.017 635.076 179.89 635.595 179.734 C 636.333 179.512 636.54 179.299 637.383 179.578 L 646.916 183.152 C 646.47 183.438 645.825 183.533 645.28 183.705 C 644.501 183.95 644.318 184.152 643.509 183.869 L 633.968 180.299 Z M 645.956 182.288 C 645.131 181.978 644.336 181.708 643.49 181.405 C 642.528 181.062 639.146 180.012 638.602 179.554 L 638.635 178.954 L 648.558 182.655 C 647.704 183.15 646.785 182.6 645.956 182.288 L 645.956 182.288 Z M 614.694 178.322 L 614.72 179.49 L 611.678 180.341 L 611.579 179.255 L 614.694 178.322 Z M 638.397 178.925 L 638.349 179.657 L 637.279 179.246 L 638.397 178.925 Z M 638.889 178.71 C 640.002 178.494 641.323 177.627 642.319 177.988 L 650.479 180.999 C 650.817 181.132 650.991 181.183 651.299 181.294 L 652.079 181.666 C 651.032 181.862 649.631 182.711 648.634 182.348 C 647.413 181.903 639.361 179.014 638.889 178.71 L 638.889 178.71 Z M 615.824 177.975 C 615.932 179.022 616.204 180.283 615.003 179.43 C 614.985 179.217 614.991 178.996 614.973 178.802 L 614.833 178.261 L 615.824 177.975 Z M 648.421 179.822 C 647.542 179.51 646.684 179.178 645.785 178.862 C 643.37 178.015 643.614 178.344 643.615 177.398 C 643.31 177.577 643.418 177.83 643.233 178.071 L 642.361 177.71 C 643.877 177.216 643.752 177.424 645.286 178.003 L 653.727 181.101 C 652.562 181.585 652.209 181.195 651.069 180.771 C 650.217 180.455 649.282 180.127 648.421 179.822 L 648.421 179.822 Z M 616.078 178.066 C 616.162 177.844 616.049 177.867 616.717 177.71 C 616.469 178.008 616.586 177.611 616.529 178.184 L 616.65 181.747 C 616.446 181.569 616.544 181.627 616.23 181.531 L 616.078 178.066 Z M 644.012 177.24 C 644.805 176.875 646.57 176.203 647.423 176.481 L 657.103 180.091 C 656.254 180.418 654.495 181.089 653.648 180.802 L 644.012 177.24 Z M 656.092 179.222 C 655.249 178.907 654.423 178.623 653.624 178.34 C 652.047 177.779 650.26 177.01 648.692 176.577 L 648.743 175.884 C 650.389 176.468 652.104 177.089 653.759 177.716 C 655.239 178.278 657.407 178.923 658.721 179.57 C 657.768 180.056 657.012 179.565 656.092 179.222 L 656.092 179.222 Z M 648.419 175.867 L 648.446 176.586 L 647.437 176.167 L 648.419 175.867 Z M 649.035 175.734 C 649.128 175.664 649.116 175.663 649.29 175.58 C 649.325 175.564 649.436 175.519 649.475 175.505 L 650.72 175.137 C 652.696 174.571 652.609 175.003 655.707 176.142 C 656.338 176.375 661.594 178.166 662.14 178.606 C 658.771 179.255 660.961 180.153 655.498 178.078 L 649.035 175.734 Z M 663.796 178.024 C 662.679 178.489 662.339 178.126 661.202 177.707 C 659.922 177.235 654.183 175.26 653.785 174.965 L 653.77 174.334 L 663.796 178.024 Z M 653.569 174.278 L 653.51 175.041 L 652.434 174.639 L 653.569 174.278 Z M 654.068 174.157 C 654.962 173.788 656.634 173.089 657.561 173.413 L 667.255 177.015 C 666.239 177.28 664.746 178.084 663.794 177.73 L 654.068 174.157 Z M 667.645 170.002 C 669.23 169.51 669.052 169.778 670.575 170.329 C 671.787 170.767 678.39 173.097 678.991 173.458 C 678.313 173.632 678.017 173.78 677.433 173.545 L 669.18 170.563 C 669.148 170.552 669.078 170.527 669.006 170.5 C 668.951 170.338 668.971 170.289 668.927 170.122 L 668.707 169.915 C 668.591 170.485 668.689 169.473 668.676 170.118 C 668.665 170.642 668.627 170.226 668.776 170.476 L 667.645 170.002 Z M 671.947 171.549 C 671.947 171.521 671.902 171.475 671.883 171.495 C 671.64 171.753 671.968 171.567 671.973 171.571 C 671.974 171.572 671.947 171.561 671.947 171.549 Z M 660.941 174.247 C 658.596 173.427 658.835 173.729 658.829 172.796 L 668.877 176.522 C 667.547 176.887 667.239 176.532 666.045 176.09 C 665.202 175.777 664.346 175.465 663.495 175.168 C 662.609 174.859 661.828 174.556 660.941 174.247 L 660.941 174.247 Z M 658.589 172.768 L 658.593 173.506 L 657.607 173.071 L 658.589 172.768 Z M 659.235 172.608 C 659.261 172.592 659.3 172.575 659.318 172.567 C 660.241 172.153 661.784 171.568 662.683 171.897 L 672.168 175.461 C 671.38 175.9 669.582 176.465 668.718 176.148 L 659.235 172.608 Z M 671.248 174.607 L 664.869 172.302 C 663.651 171.86 663.989 172.066 663.838 171.74 L 663.842 171.245 L 673.831 174.965 C 672.954 175.452 672.045 174.902 671.248 174.606 L 671.248 174.607 Z M 663.618 171.252 L 663.572 171.972 L 662.531 171.555 L 663.618 171.252 Z M 648.196 170.004 C 651.213 168.949 656.028 167.693 659.326 166.624 L 667.613 164.104 C 668.256 163.995 669.665 164.731 670.304 164.932 C 669.647 165.244 651.573 170.785 650.209 170.96 C 650.398 171.401 650.194 171.247 650.659 171.438 C 650.156 171.575 648.593 172.167 648.258 172.03 C 648.518 171.766 648.245 171.955 648.732 171.782 C 648.919 171.715 649.134 171.659 649.301 171.611 L 650.23 171.303 C 650.241 171.269 650.279 171.275 650.302 171.258 C 649.762 170.949 649.288 171.573 648.243 171.63 L 648.196 170.004 Z M 664.176 171.009 C 665.295 170.826 666.583 169.933 667.608 170.315 C 668.928 170.806 676.869 173.632 677.368 173.962 C 676.359 174.15 674.847 174.999 673.93 174.662 C 672.252 174.047 664.707 171.384 664.176 171.009 Z M 669.298 169.53 C 669.74 169.27 670.431 169.145 670.986 168.984 C 671.782 168.752 671.925 168.514 672.725 168.799 L 682.327 172.348 C 681.901 172.634 681.23 172.753 680.651 172.932 C 679.887 173.167 679.665 173.371 678.857 173.078 L 669.298 169.53 Z M 672.723 168.561 C 672.934 168.405 672.578 168.588 672.99 168.386 L 673.739 168.154 L 673.739 168.904 L 672.723 168.561 Z M 684.005 171.899 C 682.966 172.381 682.261 171.862 681.289 171.518 L 676.006 169.605 C 673.25 168.629 674.223 169.118 673.883 168.154 L 684.005 171.899 Z M 674.318 168.069 C 674.444 167.961 674.381 167.997 674.581 167.887 L 675.148 167.683 C 676.773 167.22 676.346 167.12 677.538 167.58 L 686.831 170.968 L 685.225 171.562 C 684.384 171.834 684.38 171.72 683.605 171.434 C 682.226 170.924 675.12 168.235 674.318 168.069 L 674.318 168.069 Z M 672.458 160.727 L 672.575 164.326 C 671.54 164.502 671.172 165.015 670.101 164.594 C 669.363 164.304 668.669 164.031 667.923 163.804 L 667.939 162.098 L 672.458 160.727 Z M 669.159 169.228 C 668.2 169.667 666.211 170.16 665.077 170.506 L 652.523 174.326 C 646.997 175.988 641.407 177.733 635.884 179.394 L 606.88 188.224 C 605.594 188.617 604.053 189.167 602.758 189.447 L 602.654 186.177 C 604.778 185.756 607.561 184.692 609.766 184.043 C 611.498 183.533 615.156 182.399 616.92 182.001 L 616.791 177.666 L 647.773 168.252 C 651.024 167.234 654.461 166.186 657.77 165.192 C 661.071 164.201 664.364 163.111 667.67 162.197 L 667.726 163.81 L 648.187 169.737 L 648.144 168.391 C 648.113 168.373 648.065 168.334 648.053 168.333 C 648.043 168.332 647.981 168.405 647.972 168.374 C 647.956 168.32 647.932 168.472 647.901 168.514 L 648.067 172.428 C 648.708 172.345 650.327 171.849 650.911 171.604 C 651.985 171.152 658.473 169.162 658.963 169.177 C 659.376 168.838 662.06 168.131 662.546 167.982 L 673.392 164.702 L 673.356 161.315 C 673.333 160.517 673.22 160.659 673.047 160.526 C 673.069 161.232 673.31 163.921 673.004 164.341 C 672.594 163.935 672.748 161.763 672.708 160.657 L 676.28 159.592 L 676.499 167.039 L 669.159 169.228 Z M 689.236 155.633 L 689.705 170.128 C 689.364 170.352 688.527 170.546 688.078 170.692 C 687.224 170.97 687.123 170.85 686.34 170.56 L 679.901 168.189 C 678.978 167.838 677.615 167.261 676.729 167.04 C 676.73 165.894 676.576 160.221 676.424 159.517 L 689.236 155.633 Z M 689.892 168.622 C 689.846 167.97 689.886 167.309 689.872 166.654 L 689.411 155.559 L 690.021 155.402 C 690.275 157.612 690.211 160.485 690.292 162.778 C 690.311 163.324 690.746 169.698 690.369 170.145 C 689.832 169.986 690.004 170.222 689.892 168.622 L 689.892 168.622 Z" style="fill:#0e0e10;fill-rule:evenodd" id="path545"/>
    <path d="M 629.583 170.491 C 629.623 172.603 630.382 172.715 632.23 172.154 C 633.076 171.898 635.503 171.037 636.182 171.048 C 636.634 170.627 637.636 170.494 638.311 170.289 L 644.875 168.295 C 647.767 167.395 650.653 166.558 653.528 165.663 C 663.46 162.572 662.854 163.961 662.723 158.104 C 662.578 151.688 662.783 151.919 657.907 153.415 C 656.45 153.863 655.098 154.291 653.631 154.722 C 650.728 155.577 647.869 156.507 644.978 157.355 C 643.679 157.736 631.442 161.331 630.479 161.888 L 630.146 162.117 C 629.686 162.551 629.358 163.248 629.337 164.081 C 629.81 163.882 629.501 164.185 629.669 163.491 C 629.736 163.215 629.776 162.877 629.971 162.638 L 630.594 162.064 C 630.959 161.828 632.534 161.409 633.106 161.241 L 648.699 156.495 C 652.136 155.426 655.622 154.382 659.069 153.346 C 659.539 153.204 659.923 153.084 660.392 152.928 C 662.773 152.135 662.189 154.421 662.206 155.367 C 662.216 155.912 662.19 156.532 662.315 157.039 C 662.443 157.562 662.47 156.756 662.383 157.633 C 662.358 157.89 662.329 158.042 662.324 158.339 C 662.285 160.61 662.918 162.463 660.942 163.084 L 632.66 171.7 C 629.749 172.58 629.834 172.782 629.717 168.27 C 629.699 167.539 629.661 166.809 629.64 166.078 L 629.581 164.435 C 629.454 164.045 629.748 164.318 629.328 164.143 L 629.583 170.491 Z" style="fill:#0e0e10;fill-rule:evenodd" id="path547"/>
    <path d="M 659.244 130.838 C 659.379 130.379 659.419 130.598 659.603 130.181 C 659.75 129.845 659.681 129.676 659.888 129.289 L 659.994 129.592 C 660.072 129.833 660.118 129.843 660.078 130.162 C 660.017 130.655 659.717 130.793 659.244 130.838 L 659.244 130.838 Z M 658.906 129.826 C 659.247 129.716 659.25 129.801 659.408 129.519 C 659.536 130.207 659.444 130.413 658.83 130.54 C 659.048 130.298 659.145 130.311 658.987 129.921 C 658.933 129.979 658.887 129.928 658.818 130.135 C 658.779 130.248 658.77 130.382 658.797 130.508 C 658.842 130.727 658.849 130.69 658.954 130.823 C 658.976 130.851 659.058 130.93 659.082 130.953 L 659.235 131.081 C 661.255 131.035 660.023 127.957 658.906 129.826 L 658.906 129.826 Z" style="fill:#0e0e10;fill-rule:evenodd" id="path623"/>
  </g>
  <g transform="matrix(1, 0, 0, 1, 549.52001953125, -147.20700073242188)">
    <path d="M -433.1 352.936 L -433.79 353.134 L -433.69 351.742 C -433.69 351.643 -433.79 351.643 -433.79 351.544 C -433.79 351.544 -433.79 351.444 -433.89 351.444 C -433.99 351.444 -433.99 351.345 -434.09 351.345 C -434.19 351.345 -434.19 351.345 -434.29 351.444 L -435.48 351.742 L -435.58 353.632 L -436.28 353.83 L -436.18 351.643 C -436.18 351.643 -436.18 351.544 -436.18 351.544 C -436.08 351.544 -436.08 351.444 -436.08 351.444 C -435.98 351.345 -435.98 351.345 -435.98 351.345 C -435.88 351.345 -435.88 351.245 -435.78 351.245 L -434.29 350.847 C -434.19 350.748 -434.09 350.748 -433.99 350.748 C -433.89 350.748 -433.79 350.748 -433.69 350.748 C -433.6 350.748 -433.5 350.748 -433.5 350.847 C -433.4 350.847 -433.3 350.947 -433.2 350.947 C -433.2 351.046 -433.1 351.145 -433.1 351.245 C -433.1 351.245 -433.1 351.444 -433.1 351.544 L -433.1 352.936 Z M -429.02 349.257 C -429.12 349.456 -429.22 349.754 -429.32 349.952 C -429.42 350.152 -429.52 350.45 -429.72 350.649 C -429.82 350.847 -430.02 351.046 -430.12 351.245 C -430.31 351.444 -430.51 351.643 -430.71 351.842 C -430.91 352.04 -431.11 352.14 -431.41 352.339 C -431.61 352.439 -431.9 352.538 -432.2 352.637 C -432.2 352.637 -432.3 352.637 -432.3 352.637 C -432.3 352.637 -432.4 352.637 -432.4 352.637 C -432.4 352.637 -432.5 352.538 -432.5 352.538 C -432.5 352.538 -432.5 352.439 -432.5 352.439 L -432.4 350.251 L -431.71 350.052 L -431.81 351.941 C -431.61 351.842 -431.51 351.742 -431.31 351.643 C -431.21 351.544 -431.01 351.444 -430.91 351.345 C -430.71 351.145 -430.61 351.046 -430.51 350.847 C -430.31 350.649 -430.21 350.549 -430.12 350.35 C -430.02 350.152 -430.02 350.052 -429.92 349.853 C -429.82 349.754 -429.82 349.555 -429.72 349.456 L -429.02 349.257 Z M -428.03 348.461 L -428.72 348.66 L -428.72 348.163 L -428.03 347.964 L -428.03 348.461 Z M -428.23 351.444 L -428.82 351.643 L -428.72 349.157 L -428.13 348.959 L -428.23 351.444 Z" style="fill-rule: evenodd;" id="path-5"/>
    <path d="M -437.87 350.251 C -436.58 349.952 -436.18 351.046 -436.98 352.737 C -437.67 354.427 -439.36 356.216 -440.56 356.515 C -441.55 356.813 -441.95 356.316 -441.85 355.421 L -441.45 355.222 C -441.35 355.521 -441.05 355.72 -440.65 355.521 C -439.76 355.322 -438.57 354.128 -437.97 352.836 C -437.37 351.544 -437.67 350.748 -438.57 351.046 C -439.16 351.245 -439.86 351.842 -440.46 352.637 L -440.75 352.737 C -439.86 351.544 -438.77 350.549 -437.87 350.251 L -437.87 350.251 Z" style="fill-rule: evenodd;" id="path-6"/>
    <path d="M -445.23 354.626 L -437.97 352.439 C -437.97 352.24 -437.87 352.14 -437.87 351.941 L -444.93 354.029 L -445.23 354.626 Z M -446.22 356.515 L -439.16 354.427 C -438.96 354.228 -438.77 354.029 -438.67 353.83 L -445.92 355.918 L -446.22 356.515 Z M -445.73 355.521 L -438.47 353.433 C -438.37 353.234 -438.27 353.035 -438.17 352.836 L -445.43 355.023 L -445.73 355.521 Z" style="fill-rule: evenodd;" id="path-7"/>
    <path d="M -448.41 360.591 L -448.81 359.597 L -448.61 359.597 L -448.41 360.194 L -448.31 360.392 C -448.31 360.392 -448.31 360.293 -448.31 360.094 L -448.01 359.398 L -447.81 359.398 L -447.71 359.995 L -447.61 360.094 L -447.61 359.896 L -447.32 359.199 L -447.12 359.199 L -447.51 360.392 L -447.71 360.392 L -447.91 359.796 L -448.01 359.697 L -448.21 360.591 L -448.41 360.591 Z M -446.82 360.094 L -447.12 359.199 L -446.92 359.1 L -446.72 359.697 L -446.72 359.896 C -446.72 359.896 -446.62 359.796 -446.62 359.597 L -446.42 358.901 L -446.22 358.901 L -446.02 359.497 L -446.02 359.597 L -445.92 359.398 L -445.63 358.702 L -445.43 358.702 L -445.92 359.896 L -446.12 359.896 L -446.22 359.299 L -446.32 359.199 L -446.62 360.094 L -446.82 360.094 Z M -445.13 359.597 L -445.43 358.702 L -445.23 358.603 L -445.03 359.199 L -445.03 359.398 C -445.03 359.398 -445.03 359.299 -444.93 359.1 L -444.73 358.404 L -444.53 358.404 L -444.33 359.001 L -444.33 359.199 L -444.23 358.901 L -444.04 358.205 L -443.84 358.205 L -444.23 359.398 L -444.43 359.398 L -444.63 358.802 L -444.63 358.702 L -444.93 359.597 L -445.13 359.597 Z" style="fill-rule: evenodd;" id="path-8"/>
    <path d="M -443.74 359.199 L -443.74 359.001 L -443.54 359.001 L -443.54 359.199 L -443.74 359.199 Z M -443.14 359.1 L -443.14 358.006 L -442.94 357.907 L -442.94 358.106 C -442.84 357.907 -442.74 357.807 -442.54 357.807 C -442.44 357.807 -442.44 357.708 -442.35 357.807 C -442.35 357.807 -442.25 357.807 -442.25 357.807 C -442.25 357.807 -442.15 357.907 -442.15 357.907 C -442.15 358.006 -442.15 358.006 -442.15 358.106 L -442.15 358.802 L -442.44 358.802 L -442.35 358.205 C -442.35 358.106 -442.35 358.006 -442.35 358.006 C -442.44 358.006 -442.44 358.006 -442.44 357.907 C -442.54 357.907 -442.54 357.907 -442.64 357.907 C -442.74 358.006 -442.74 358.006 -442.84 358.106 C -442.94 358.205 -442.94 358.304 -442.94 358.404 L -442.94 359.001 L -443.14 359.1 Z M -441.55 358.602 L -441.95 357.609 L -441.75 357.609 L -441.55 358.106 C -441.45 358.205 -441.45 358.304 -441.45 358.304 C -441.45 358.304 -441.45 358.205 -441.35 358.106 L -441.05 357.409 L -440.85 357.31 L -441.35 358.503 L -441.55 358.602 Z M -440.65 357.012 L -440.65 356.813 L -440.46 356.813 L -440.46 357.012 L -440.65 357.012 Z M -440.75 358.304 L -440.65 357.211 L -440.46 357.211 L -440.56 358.304 L -440.75 358.304 Z M -440.26 357.907 L -440.06 357.807 C -440.06 357.907 -440.06 357.907 -439.96 357.907 C -439.96 358.006 -439.86 358.006 -439.76 357.907 C -439.66 357.907 -439.66 357.907 -439.56 357.807 C -439.56 357.807 -439.46 357.708 -439.46 357.708 C -439.46 357.609 -439.56 357.609 -439.56 357.609 C -439.56 357.609 -439.66 357.609 -439.76 357.609 C -439.96 357.609 -440.06 357.609 -440.06 357.609 C -440.16 357.609 -440.16 357.609 -440.16 357.509 C -440.26 357.509 -440.26 357.409 -440.26 357.409 C -440.26 357.31 -440.26 357.31 -440.16 357.211 C -440.16 357.211 -440.16 357.211 -440.06 357.111 C -440.06 357.111 -440.06 357.111 -439.96 357.012 C -439.86 357.012 -439.86 357.012 -439.76 357.012 C -439.66 356.913 -439.66 356.913 -439.56 356.913 C -439.46 356.913 -439.46 356.913 -439.36 357.012 C -439.36 357.012 -439.36 357.012 -439.36 357.111 L -439.56 357.211 C -439.56 357.111 -439.56 357.111 -439.56 357.111 C -439.66 357.111 -439.66 357.111 -439.76 357.111 C -439.86 357.111 -439.96 357.211 -439.96 357.211 C -440.06 357.211 -440.06 357.31 -440.06 357.31 C -440.06 357.31 -440.06 357.409 -440.06 357.409 C -439.96 357.409 -439.96 357.409 -439.96 357.409 C -439.96 357.409 -439.86 357.409 -439.76 357.409 C -439.66 357.409 -439.56 357.409 -439.46 357.409 C -439.36 357.409 -439.36 357.409 -439.36 357.409 C -439.26 357.509 -439.26 357.509 -439.26 357.609 C -439.26 357.708 -439.36 357.708 -439.36 357.807 C -439.36 357.807 -439.46 357.907 -439.56 358.006 C -439.56 358.006 -439.66 358.006 -439.76 358.106 C -439.96 358.106 -440.06 358.106 -440.16 358.106 C -440.26 358.106 -440.26 358.006 -440.26 357.907 L -440.26 357.907 Z M -439.16 357.31 C -439.16 357.111 -439.06 356.913 -438.96 356.813 C -438.87 356.714 -438.67 356.614 -438.57 356.614 C -438.37 356.515 -438.27 356.515 -438.17 356.614 C -438.07 356.714 -437.97 356.813 -437.97 357.012 C -437.97 357.111 -438.07 357.211 -438.07 357.31 C -438.17 357.409 -438.17 357.509 -438.27 357.609 C -438.37 357.609 -438.47 357.708 -438.57 357.708 C -438.77 357.807 -438.87 357.807 -438.96 357.708 C -439.06 357.609 -439.16 357.509 -439.16 357.31 L -439.16 357.31 Z M -438.96 357.31 C -438.96 357.409 -438.87 357.509 -438.87 357.509 C -438.77 357.609 -438.67 357.609 -438.57 357.609 C -438.47 357.509 -438.37 357.509 -438.37 357.409 C -438.27 357.31 -438.17 357.211 -438.17 357.012 C -438.17 356.913 -438.27 356.813 -438.27 356.813 C -438.37 356.714 -438.47 356.714 -438.57 356.714 C -438.67 356.813 -438.77 356.813 -438.77 356.913 C -438.87 357.012 -438.87 357.111 -438.96 357.31 Z M -437.77 357.509 L -437.77 356.018 L -437.57 355.918 L -437.57 357.409 L -437.77 357.509 Z M -436.48 357.111 L -436.48 356.913 C -436.58 357.111 -436.68 357.211 -436.88 357.211 C -436.98 357.211 -436.98 357.211 -437.07 357.211 C -437.07 357.211 -437.18 357.211 -437.18 357.211 C -437.27 357.111 -437.27 357.111 -437.27 357.111 C -437.27 357.012 -437.27 357.012 -437.27 356.913 L -437.27 356.216 L -437.07 356.216 L -437.07 356.813 C -437.07 356.913 -437.07 356.913 -437.07 357.012 C -437.07 357.012 -436.98 357.012 -436.98 357.012 C -436.98 357.111 -436.88 357.111 -436.78 357.012 C -436.78 357.012 -436.68 357.012 -436.68 356.913 C -436.58 356.913 -436.58 356.913 -436.58 356.813 C -436.48 356.714 -436.48 356.714 -436.48 356.614 L -436.48 356.018 L -436.28 355.918 L -436.28 357.012 L -436.48 357.111 Z M -435.19 356.316 L -434.99 356.316 C -434.99 356.415 -435.09 356.515 -435.19 356.614 C -435.29 356.714 -435.38 356.813 -435.48 356.813 C -435.68 356.913 -435.78 356.813 -435.88 356.813 C -435.98 356.714 -436.08 356.614 -436.08 356.415 C -435.98 356.316 -435.98 356.216 -435.98 356.117 C -435.88 356.018 -435.88 355.918 -435.78 355.819 C -435.68 355.72 -435.58 355.72 -435.48 355.72 C -435.38 355.62 -435.19 355.62 -435.19 355.72 C -435.09 355.72 -434.99 355.819 -434.99 355.918 L -435.19 356.018 C -435.19 355.918 -435.29 355.819 -435.29 355.819 C -435.38 355.819 -435.38 355.819 -435.48 355.819 C -435.58 355.819 -435.68 355.918 -435.68 356.018 C -435.78 356.117 -435.78 356.216 -435.78 356.316 C -435.78 356.515 -435.78 356.614 -435.78 356.614 C -435.68 356.714 -435.58 356.714 -435.48 356.714 C -435.38 356.614 -435.38 356.614 -435.29 356.515 C -435.29 356.515 -435.19 356.415 -435.19 356.316 Z M -434.89 356.117 C -434.89 355.918 -434.79 355.72 -434.69 355.62 C -434.59 355.421 -434.49 355.421 -434.29 355.322 C -434.19 355.322 -433.99 355.322 -433.89 355.421 C -433.79 355.421 -433.79 355.521 -433.79 355.72 C -433.79 355.918 -433.79 356.018 -433.89 356.117 C -433.89 356.216 -433.99 356.216 -434.09 356.316 C -434.19 356.415 -434.29 356.415 -434.39 356.515 C -434.49 356.515 -434.69 356.515 -434.79 356.415 C -434.89 356.415 -434.89 356.216 -434.89 356.117 L -434.89 356.117 Z M -434.69 356.018 C -434.69 356.117 -434.69 356.216 -434.59 356.316 C -434.49 356.316 -434.49 356.316 -434.39 356.316 C -434.29 356.316 -434.19 356.216 -434.09 356.117 C -433.99 356.018 -433.99 355.918 -433.99 355.819 C -433.99 355.62 -433.99 355.62 -434.09 355.521 C -434.09 355.521 -434.19 355.421 -434.29 355.521 C -434.39 355.521 -434.49 355.62 -434.59 355.72 C -434.69 355.72 -434.69 355.918 -434.69 356.018 L -434.69 356.018 Z M -432.7 355.62 L -432.5 355.62 C -432.6 355.72 -432.6 355.819 -432.7 355.918 C -432.8 356.018 -432.9 356.018 -433.1 356.117 C -433.2 356.117 -433.4 356.117 -433.5 356.117 C -433.6 356.018 -433.6 355.918 -433.6 355.72 C -433.6 355.521 -433.5 355.322 -433.4 355.222 C -433.3 355.123 -433.2 355.023 -433 354.924 C -432.9 354.924 -432.7 354.924 -432.6 355.023 C -432.5 355.023 -432.5 355.222 -432.5 355.322 C -432.5 355.421 -432.5 355.421 -432.5 355.421 L -433.4 355.72 C -433.4 355.819 -433.4 355.918 -433.3 355.918 C -433.2 355.918 -433.2 356.018 -433 355.918 C -433 355.918 -432.9 355.918 -432.9 355.819 C -432.8 355.819 -432.8 355.72 -432.7 355.62 L -432.7 355.62 Z M -433.4 355.521 L -432.7 355.322 C -432.7 355.222 -432.7 355.222 -432.8 355.123 C -432.8 355.123 -432.9 355.123 -433 355.123 C -433.1 355.123 -433.2 355.222 -433.3 355.222 C -433.3 355.322 -433.4 355.421 -433.4 355.521 L -433.4 355.521 Z M -432.3 355.521 L -432.1 355.421 C -432.1 355.521 -432.1 355.521 -432 355.62 C -432 355.62 -431.9 355.62 -431.81 355.62 C -431.71 355.521 -431.71 355.521 -431.61 355.521 C -431.61 355.421 -431.61 355.421 -431.51 355.322 C -431.51 355.322 -431.61 355.222 -431.61 355.222 C -431.61 355.222 -431.71 355.222 -431.81 355.222 C -432 355.222 -432.1 355.222 -432.1 355.222 C -432.2 355.222 -432.2 355.222 -432.3 355.222 C -432.3 355.123 -432.3 355.123 -432.3 355.023 C -432.3 355.023 -432.3 354.924 -432.2 354.924 C -432.2 354.825 -432.2 354.825 -432.1 354.825 C -432.1 354.725 -432.1 354.725 -432 354.725 C -432 354.626 -431.9 354.626 -431.81 354.626 C -431.71 354.626 -431.71 354.526 -431.61 354.626 C -431.51 354.626 -431.51 354.626 -431.41 354.626 C -431.41 354.626 -431.41 354.725 -431.41 354.825 L -431.61 354.825 C -431.61 354.825 -431.61 354.725 -431.61 354.725 C -431.71 354.725 -431.71 354.725 -431.81 354.725 C -431.9 354.825 -432 354.825 -432 354.825 C -432.1 354.924 -432.1 354.924 -432.1 355.023 C -432.1 355.023 -432.1 355.023 -432.1 355.023 C -432.1 355.023 -432 355.023 -432 355.023 C -432 355.023 -431.9 355.023 -431.81 355.023 C -431.71 355.023 -431.61 355.023 -431.51 355.023 C -431.51 355.023 -431.41 355.123 -431.41 355.123 C -431.41 355.123 -431.31 355.222 -431.31 355.222 C -431.31 355.322 -431.41 355.421 -431.41 355.421 C -431.41 355.521 -431.51 355.521 -431.61 355.62 C -431.71 355.62 -431.71 355.72 -431.81 355.72 C -432 355.819 -432.1 355.819 -432.2 355.72 C -432.3 355.72 -432.3 355.62 -432.3 355.521 L -432.3 355.521 Z M -431.11 355.521 L -431.01 355.322 L -430.81 355.222 L -430.81 355.421 L -431.11 355.521 Z M -429.72 354.725 L -429.52 354.626 C -429.52 354.825 -429.62 354.924 -429.62 355.023 C -429.72 355.123 -429.82 355.123 -430.02 355.222 C -430.12 355.222 -430.31 355.222 -430.41 355.123 C -430.51 355.123 -430.51 354.924 -430.51 354.825 C -430.51 354.626 -430.51 354.526 -430.41 354.427 C -430.41 354.327 -430.31 354.228 -430.21 354.228 C -430.12 354.128 -430.02 354.128 -429.92 354.029 C -429.82 354.029 -429.72 354.029 -429.62 354.029 C -429.52 354.128 -429.52 354.128 -429.52 354.228 L -429.72 354.327 C -429.72 354.228 -429.72 354.228 -429.82 354.228 C -429.82 354.228 -429.92 354.228 -429.92 354.228 C -430.02 354.228 -430.12 354.327 -430.21 354.427 C -430.31 354.427 -430.31 354.626 -430.31 354.725 C -430.31 354.825 -430.31 354.924 -430.21 355.023 C -430.21 355.023 -430.12 355.023 -430.02 355.023 C -429.92 355.023 -429.82 355.023 -429.82 354.924 C -429.72 354.825 -429.72 354.825 -429.72 354.725 L -429.72 354.725 Z M -429.42 354.427 C -429.42 354.228 -429.32 354.128 -429.22 353.93 C -429.12 353.83 -428.92 353.731 -428.82 353.731 C -428.62 353.632 -428.52 353.632 -428.43 353.731 C -428.33 353.83 -428.23 353.93 -428.23 354.128 C -428.23 354.228 -428.33 354.327 -428.33 354.427 C -428.43 354.526 -428.43 354.626 -428.52 354.725 C -428.62 354.725 -428.72 354.825 -428.82 354.825 C -429.02 354.924 -429.12 354.924 -429.22 354.825 C -429.32 354.725 -429.42 354.626 -429.42 354.427 Z M -429.22 354.427 C -429.22 354.526 -429.12 354.626 -429.12 354.626 C -429.02 354.725 -428.92 354.725 -428.82 354.725 C -428.72 354.626 -428.62 354.626 -428.62 354.526 C -428.52 354.427 -428.52 354.327 -428.43 354.128 C -428.43 354.029 -428.52 353.93 -428.52 353.93 C -428.62 353.83 -428.72 353.83 -428.82 353.83 C -428.92 353.93 -429.02 353.93 -429.02 354.029 C -429.12 354.128 -429.22 354.228 -429.22 354.427 Z M -428.03 354.626 L -428.03 353.532 L -427.83 353.433 L -427.83 353.632 C -427.83 353.532 -427.73 353.433 -427.63 353.433 C -427.63 353.333 -427.53 353.333 -427.43 353.333 C -427.33 353.333 -427.33 353.333 -427.23 353.333 C -427.23 353.333 -427.13 353.333 -427.13 353.433 C -427.03 353.233 -426.93 353.134 -426.74 353.134 C -426.64 353.035 -426.54 353.035 -426.44 353.134 C -426.44 353.134 -426.44 353.233 -426.44 353.333 L -426.44 354.128 L -426.64 354.128 L -426.64 353.532 C -426.64 353.433 -426.64 353.333 -426.64 353.333 C -426.64 353.333 -426.64 353.333 -426.74 353.233 C -426.74 353.233 -426.74 353.233 -426.83 353.333 C -426.93 353.333 -426.93 353.333 -427.03 353.433 C -427.03 353.532 -427.13 353.532 -427.13 353.731 L -427.13 354.327 L -427.33 354.427 L -427.33 353.632 C -427.33 353.632 -427.33 353.532 -427.33 353.532 C -427.43 353.433 -427.43 353.433 -427.53 353.532 C -427.53 353.532 -427.63 353.532 -427.63 353.532 C -427.73 353.632 -427.73 353.632 -427.83 353.731 C -427.83 353.83 -427.83 353.83 -427.83 353.93 L -427.83 354.526 L -428.03 354.626 Z M -426.04 354.029 L -426.04 353.83 L -425.84 353.731 L -425.84 353.93 L -426.04 354.029 Z M -425.34 353.731 L -425.44 353.83 L -425.44 352.339 L -425.24 352.24 L -425.24 352.836 C -425.14 352.737 -425.05 352.637 -424.94 352.538 C -424.85 352.538 -424.75 352.538 -424.75 352.538 C -424.65 352.538 -424.55 352.538 -424.55 352.637 C -424.55 352.637 -424.45 352.737 -424.45 352.737 C -424.45 352.836 -424.45 352.935 -424.45 352.935 C -424.45 353.134 -424.45 353.333 -424.55 353.433 C -424.75 353.532 -424.85 353.632 -424.94 353.731 C -425.14 353.731 -425.24 353.731 -425.24 353.632 L -425.34 353.731 Z M -425.24 353.233 C -425.24 353.333 -425.24 353.433 -425.24 353.532 C -425.14 353.532 -425.05 353.632 -424.94 353.532 C -424.85 353.532 -424.85 353.433 -424.75 353.433 C -424.65 353.333 -424.65 353.134 -424.65 353.035 C -424.65 352.935 -424.65 352.836 -424.75 352.737 C -424.75 352.737 -424.85 352.737 -424.94 352.737 C -425.05 352.737 -425.14 352.836 -425.14 352.935 C -425.24 352.935 -425.24 353.134 -425.24 353.233 L -425.24 353.233 Z M -424.25 353.433 L -424.15 352.339 L -423.95 352.339 L -423.95 352.438 C -423.95 352.438 -423.85 352.339 -423.85 352.339 C -423.85 352.24 -423.75 352.24 -423.75 352.24 C -423.65 352.24 -423.55 352.24 -423.55 352.24 L -423.55 352.438 C -423.65 352.438 -423.65 352.438 -423.75 352.438 C -423.75 352.438 -423.85 352.438 -423.85 352.438 C -423.85 352.538 -423.95 352.538 -423.95 352.637 C -423.95 352.637 -423.95 352.737 -423.95 352.836 L -423.95 353.433 L -424.25 353.433 Z" style="fill-rule: evenodd;" id="path-9"/>
  </g>
</svg>