<?xml version="1.0" encoding="utf-8"?>
<svg xmlns="http://www.w3.org/2000/svg" viewBox="329.527 30.024 112.648 91.233" width="112.648px" height="91.233px">
  <path d="M 412.27 40.632 L 412.27 40.329 L 412.674 40.228 L 412.775 40.531 L 412.27 40.632 Z M 412.37 40.834 L 412.27 40.632 L 412.775 40.43 L 412.876 40.632 L 412.471 40.935 L 412.37 40.834 Z M 412.573 41.137 L 412.471 40.935 L 412.775 40.632 L 412.977 40.733 L 412.674 41.137 L 412.573 41.137 Z M 412.876 41.238 L 412.674 41.137 L 412.876 40.733 L 413.078 40.733 L 413.078 41.238 L 412.876 41.238 Z M 413.28 41.137 L 413.078 41.238 L 412.977 40.733 L 413.179 40.733 L 413.28 41.137 Z M 413.583 41.036 L 413.28 41.137 L 413.078 40.733 L 413.28 40.632 L 413.583 40.935 L 413.583 41.036 Z M 413.785 40.733 L 413.583 40.935 L 413.28 40.632 L 413.381 40.43 L 413.785 40.733 Z M 413.987 40.43 L 413.785 40.733 L 413.381 40.43 L 413.482 40.228 L 413.987 40.329 L 413.987 40.43 Z M 414.088 40.127 L 413.987 40.329 L 413.482 40.228 L 413.583 39.925 L 414.088 40.026 L 414.088 40.127 Z M 414.088 39.723 L 414.088 40.026 L 413.583 40.026 L 413.583 39.723 L 414.088 39.622 L 414.088 39.723 Z M 413.987 39.42 L 414.088 39.622 L 413.583 39.824 L 413.482 39.521 L 413.987 39.319 L 413.987 39.42 Z M 413.785 39.117 L 413.987 39.319 L 413.583 39.622 L 413.381 39.42 L 413.684 39.117 L 413.785 39.117 Z M 413.583 39.016 L 413.684 39.117 L 413.482 39.521 L 413.28 39.42 L 413.482 38.915 L 413.583 39.016 Z M 413.179 38.915 L 413.482 38.915 L 413.381 39.42 L 413.179 39.42 L 413.078 39.016 L 413.179 38.915 Z M 412.876 39.117 L 413.078 39.016 L 413.28 39.42 L 413.078 39.521 L 412.876 39.117 Z M 412.674 39.319 L 412.876 39.117 L 413.179 39.42 L 412.977 39.622 L 412.573 39.319 L 412.674 39.319 Z M 412.471 39.622 L 412.573 39.319 L 412.977 39.622 L 412.876 39.824 L 412.37 39.622 L 412.471 39.622 Z M 412.27 39.925 L 412.37 39.622 L 412.876 39.824 L 412.775 40.127 L 412.27 39.925 Z M 412.27 40.228 L 412.27 39.925 L 412.775 40.026 L 412.674 40.329 L 412.27 40.329 L 412.27 40.228 Z M 337.307 55.181 L 338.217 55.585 L 338.107 55.989 L 337.097 55.686 L 337.307 55.181 Z M 329.527 116.508 L 330.027 57.303 L 330.537 57.303 L 329.927 116.508 L 329.527 116.508 Z M 330.437 57.1 L 342.757 61.647 L 342.557 62.051 L 330.227 57.606 L 330.437 57.1 Z M 342.257 77.105 L 342.457 61.849 L 342.957 61.849 L 342.757 77.105 L 342.257 77.105 Z M 342.657 76.903 L 354.681 81.247 L 354.479 81.753 L 342.457 77.307 L 342.657 76.903 Z M 354.074 112.366 L 354.378 81.45 L 354.782 81.551 L 354.479 112.366 L 354.074 112.366 Z M 342.357 107.718 L 354.378 112.164 L 354.176 112.568 L 342.157 108.223 L 342.357 107.718 Z M 341.847 120.953 L 341.947 107.92 L 342.457 107.92 L 342.357 121.054 L 341.847 120.953 Z M 329.827 116.205 L 342.157 120.751 L 342.047 121.257 L 329.627 116.71 L 329.827 116.205 Z M 354.479 81.247 L 441.872 54.171 L 441.973 54.676 L 354.681 81.753 L 354.479 81.247 Z M 442.175 54.373 L 441.872 85.289 L 441.367 85.289 L 441.67 54.373 L 442.175 54.373 Z M 441.67 85.491 L 354.378 112.568 L 354.176 112.164 L 441.569 85.087 L 441.67 85.491 Z M 440.66 84.481 L 355.388 110.951 L 355.287 110.547 L 440.559 84.076 L 440.66 84.481 Z M 441.064 68.214 L 440.862 84.278 L 440.357 84.278 L 440.559 68.214 L 441.064 68.214 Z M 355.388 94.483 L 440.761 68.012 L 440.862 68.416 L 355.489 94.887 L 355.388 94.483 Z M 355.085 110.749 L 355.186 94.685 L 355.691 94.685 L 355.59 110.749 L 355.085 110.749 Z M 428.031 49.725 L 440.054 54.171 L 439.852 54.575 L 427.829 50.129 L 428.031 49.725 Z M 429.95 49.725 L 441.973 54.171 L 441.872 54.676 L 429.748 50.23 L 429.95 49.725 Z M 429.95 50.23 L 342.657 77.307 L 342.457 76.903 L 429.849 49.725 L 429.95 50.23 Z M 354.58 81.045 L 343.467 77.004 L 343.667 76.499 L 354.681 80.641 L 354.58 81.045 Z M 440.054 54.575 L 354.681 81.045 L 354.58 80.641 L 439.852 54.171 L 440.054 54.575 Z M 342.657 61.647 L 343.667 61.344 L 343.767 61.748 L 342.757 62.051 L 342.657 61.647 Z M 343.267 76.802 L 343.467 61.546 L 343.967 61.546 L 343.767 76.802 L 343.267 76.802 Z M 343.567 61.748 L 332.147 57.606 L 332.357 57.101 L 343.767 61.344 L 343.567 61.748 Z M 330.227 57.101 L 336.397 55.181 L 336.497 55.686 L 330.437 57.606 L 330.227 57.101 Z M 336.497 55.181 L 337.507 55.585 L 337.307 55.989 L 336.397 55.686 L 336.497 55.181 Z M 332.247 57.101 L 337.307 55.585 L 337.407 55.989 L 332.357 57.606 L 332.247 57.101 Z M 355.287 102.364 L 428.536 79.631 L 428.637 80.136 L 355.489 102.768 L 355.287 102.364 Z M 428.637 79.631 L 440.761 84.076 L 440.559 84.481 L 428.536 80.136 L 428.637 79.631 Z M 428.031 50.23 L 343.667 76.398 L 343.467 75.893 L 427.829 49.725 L 428.031 50.23 Z M 428.94 71.952 L 428.839 79.833 L 428.334 79.833 L 428.435 71.952 L 428.94 71.952 Z M 429.243 35.076 L 429.041 57.808 L 428.536 57.808 L 428.738 35.076 L 429.243 35.076 Z M 389.638 67.406 L 389.638 70.033 L 389.133 70.033 L 389.234 67.406 L 389.638 67.406 Z M 382.768 69.225 L 389.335 67.204 L 389.537 67.608 L 382.97 69.629 L 382.768 69.225 Z M 382.667 72.054 L 382.667 69.427 L 383.172 69.427 L 383.071 72.054 L 382.667 72.054 Z M 374.079 93.169 L 374.079 88.825 L 374.584 88.825 L 374.483 93.169 L 374.079 93.169 Z M 380.848 91.35 L 374.382 93.371 L 374.18 92.866 L 380.747 90.846 L 380.848 91.35 Z M 381.151 86.804 L 381.05 91.149 L 380.545 91.149 L 380.646 86.804 L 381.151 86.804 Z M 366.097 95.897 L 359.53 97.918 L 359.429 97.514 L 365.996 95.493 L 366.097 95.897 Z M 366.299 91.351 L 366.299 95.695 L 365.794 95.695 L 365.895 91.351 L 366.299 91.351 Z M 359.227 97.716 L 359.328 93.372 L 359.833 93.372 L 359.732 97.716 L 359.227 97.716 Z M 406.511 62.253 L 406.41 64.88 L 406.005 64.88 L 406.005 62.253 L 406.511 62.253 Z M 399.64 63.971 L 406.106 61.95 L 406.308 62.455 L 399.741 64.476 L 399.64 63.971 Z M 399.438 66.901 L 399.438 64.274 L 399.943 64.274 L 399.943 66.901 L 399.438 66.901 Z M 390.851 87.916 L 390.851 83.571 L 391.356 83.571 L 391.356 87.916 L 390.851 87.916 Z M 397.721 86.097 L 391.154 88.118 L 391.053 87.713 L 397.519 85.693 L 397.721 86.097 Z M 397.923 81.551 L 397.822 85.895 L 397.418 85.895 L 397.418 81.551 L 397.923 81.551 Z M 372.867 72.66 L 372.867 75.287 L 372.361 75.287 L 372.361 72.66 L 372.867 72.66 Z M 365.996 74.478 L 372.564 72.357 L 372.665 72.862 L 366.199 74.882 L 365.996 74.478 Z M 365.794 77.307 L 365.895 74.68 L 366.299 74.68 L 366.299 77.307 L 365.794 77.307 Z M 356.095 77.812 L 356.095 80.439 L 355.59 80.439 L 355.59 77.812 L 356.095 77.812 Z M 350.737 79.227 L 355.792 77.61 L 355.893 78.116 L 350.837 79.631 L 350.737 79.227 Z M 420.352 78.722 L 420.453 74.478 L 420.958 74.478 L 420.857 78.722 L 420.352 78.722 Z M 427.222 76.903 L 420.756 79.025 L 420.554 78.52 L 427.121 76.499 L 427.222 76.903 Z M 427.425 72.458 L 427.425 76.701 L 426.919 76.701 L 427.02 72.357 L 427.425 72.458 Z M 405.601 83.369 L 405.702 79.025 L 406.106 79.025 L 406.106 83.369 L 405.601 83.369 Z M 412.472 81.551 L 405.905 83.571 L 405.803 83.066 L 412.371 81.045 L 412.472 81.551 Z M 412.674 77.004 L 412.674 81.348 L 412.168 81.348 L 412.168 77.004 L 412.674 77.004 Z M 423.282 57 L 423.282 59.626 L 422.777 59.626 L 422.777 57 L 423.282 57 Z M 416.412 58.818 L 422.979 56.797 L 423.08 57.202 L 416.513 59.222 L 416.412 58.818 Z M 416.21 61.647 L 416.21 59.02 L 416.715 59.02 L 416.715 61.647 L 416.21 61.647 Z M 338.617 55.787 L 341.547 58.01 L 341.247 58.414 L 338.317 56.191 L 338.617 55.787 Z M 342.257 59.727 L 342.157 60.94 L 341.747 60.94 L 341.747 59.727 L 342.257 59.727 Z M 428.536 93.169 L 343.167 119.64 L 343.057 119.135 L 428.334 92.664 L 428.536 93.169 Z M 428.738 89.33 L 428.738 92.967 L 428.233 92.866 L 428.233 89.33 L 428.738 89.33 Z M 429.748 89.027 L 429.647 93.877 L 429.243 93.877 L 429.243 89.027 L 429.748 89.027 Z M 429.546 94.18 L 342.157 121.257 L 342.047 120.751 L 429.344 93.675 L 429.546 94.18 Z M 342.857 119.337 L 342.957 108.324 L 343.467 108.324 L 343.367 119.438 L 342.857 119.337 Z M 354.681 80.742 L 354.681 78.116 L 355.186 78.116 L 355.186 80.742 L 354.681 80.742 Z M 423.282 90.745 L 428.536 92.664 L 428.334 93.169 L 423.08 91.25 L 423.282 90.745 Z M 348.817 110.547 L 343.267 112.265 L 343.167 111.861 L 348.717 110.143 L 348.817 110.547 Z M 365.289 95.19 L 366.097 95.493 L 365.996 95.897 L 365.087 95.695 L 365.289 95.19 Z M 359.429 97.009 L 365.087 95.19 L 365.289 95.695 L 359.53 97.413 L 359.429 97.009 Z M 364.986 95.392 L 364.986 91.654 L 365.491 91.654 L 365.39 95.392 L 364.986 95.392 Z M 371.452 75.489 L 371.553 72.862 L 371.957 72.862 L 371.957 75.59 L 371.452 75.489 Z M 380.04 90.644 L 380.848 90.846 L 380.747 91.351 L 379.939 91.048 L 380.04 90.644 Z M 374.18 92.361 L 379.939 90.644 L 380.04 91.048 L 374.382 92.866 L 374.18 92.361 Z M 379.737 90.846 L 379.737 87.006 L 380.242 87.107 L 380.242 90.846 L 379.737 90.846 Z M 388.325 70.336 L 388.325 67.709 L 388.83 67.709 L 388.729 70.336 L 388.325 70.336 Z M 396.812 85.39 L 397.721 85.693 L 397.519 86.097 L 396.71 85.895 L 396.812 85.39 Z M 391.053 87.209 L 396.71 85.39 L 396.812 85.895 L 391.154 87.613 L 391.053 87.209 Z M 396.508 85.592 L 396.508 81.854 L 397.013 81.854 L 397.013 85.592 L 396.508 85.592 Z M 405.096 65.082 L 405.096 62.455 L 405.601 62.455 L 405.601 65.082 L 405.096 65.082 Z M 411.562 80.843 L 412.471 81.045 L 412.37 81.551 L 411.461 81.248 L 411.562 80.843 Z M 405.803 82.561 L 411.461 80.843 L 411.562 81.248 L 405.905 83.066 L 405.803 82.561 Z M 428.94 34.873 L 429.95 34.57 L 430.051 34.974 L 429.041 35.277 L 428.94 34.873 Z M 417.725 30.63 L 429.142 34.873 L 428.94 35.277 L 417.523 31.135 L 417.725 30.63 Z M 412.472 32.246 L 417.523 30.63 L 417.624 31.135 L 412.573 32.752 L 412.472 32.246 Z M 412.371 32.752 L 411.461 32.348 L 411.663 31.943 L 412.573 32.246 L 412.371 32.752 Z M 411.461 31.943 L 417.624 30.024 L 417.725 30.428 L 411.663 32.348 L 411.461 31.943 Z M 417.725 30.024 L 430.152 34.57 L 429.95 34.974 L 417.523 30.428 L 417.725 30.024 Z M 411.259 81.045 L 411.36 77.307 L 411.764 77.307 L 411.764 81.045 L 411.259 81.045 Z M 417.826 30.933 L 417.624 53.261 L 417.119 53.261 L 417.321 30.933 L 417.826 30.933 Z M 430.253 34.772 L 430.152 50.028 L 429.647 50.028 L 429.748 34.772 L 430.253 34.772 Z M 421.868 59.93 L 421.868 57.303 L 422.373 57.303 L 422.373 59.93 L 421.868 59.93 Z M 415.098 54.07 L 407.622 49.321 L 407.824 48.917 L 415.301 53.666 L 415.098 54.07 Z M 407.42 49.119 L 407.521 39.319 L 408.026 39.319 L 407.925 49.119 L 407.42 49.119 Z M 408.228 37.298 L 411.259 33.156 L 411.562 33.459 L 408.632 37.601 L 408.228 37.298 Z M 408.329 37.702 L 407.42 37.298 L 407.521 36.894 L 408.531 37.197 L 408.329 37.702 Z M 407.319 36.894 L 410.249 32.853 L 410.653 33.156 L 407.622 37.197 L 407.319 36.894 Z M 410.552 32.752 L 411.461 33.055 L 411.36 33.56 L 410.35 33.156 L 410.552 32.752 Z M 406.915 38.713 L 407.925 39.016 L 407.723 39.521 L 406.814 39.117 L 406.915 38.713 Z M 406.814 48.614 L 407.824 48.917 L 407.622 49.321 L 406.713 49.018 L 406.814 48.614 Z M 406.511 48.816 L 406.612 38.915 L 407.117 38.915 L 407.016 48.816 L 406.511 48.816 Z M 426.414 76.196 L 427.222 76.499 L 427.121 76.903 L 426.212 76.701 L 426.414 76.196 Z M 420.554 78.014 L 426.212 76.196 L 426.414 76.701 L 420.756 78.419 L 420.554 78.014 Z M 414.795 54.171 L 406.612 49.018 L 406.915 48.614 L 415.098 53.766 L 414.795 54.171 Z M 426.111 76.499 L 426.111 72.66 L 426.616 72.66 L 426.515 76.499 L 426.111 76.499 Z M 337.507 55.989 L 337.307 55.585 L 337.507 55.484 L 337.607 55.484 L 337.807 55.484 L 338.007 55.484 L 338.107 55.585 L 338.317 55.585 L 338.417 55.686 L 338.617 55.787 L 338.317 56.191 L 338.217 56.09 L 338.107 55.989 L 338.007 55.989 L 337.907 55.989 L 337.807 55.989 L 337.707 55.989 L 337.607 55.989 L 337.507 55.989 Z M 341.247 58.414 L 341.547 58.01 L 341.747 58.212 L 341.847 58.414 L 341.947 58.616 L 342.047 58.818 L 342.157 59.02 L 342.157 59.222 L 342.257 59.525 L 342.157 59.728 L 341.747 59.728 L 341.747 59.525 L 341.747 59.323 L 341.647 59.121 L 341.647 59.02 L 341.547 58.818 L 341.447 58.717 L 341.347 58.515 L 341.247 58.414 Z M 336.497 55.686 L 336.397 55.181 L 336.597 55.181 L 336.797 55.181 L 336.997 55.181 L 337.307 55.181 L 337.097 55.686 L 336.997 55.585 L 336.797 55.585 L 336.697 55.585 L 336.497 55.686 Z M 408.026 39.319 L 407.521 39.319 L 407.622 39.016 L 407.622 38.713 L 407.622 38.511 L 407.723 38.207 L 407.824 38.005 L 407.925 37.702 L 408.127 37.5 L 408.228 37.298 L 408.632 37.601 L 408.531 37.803 L 408.329 38.005 L 408.329 38.207 L 408.228 38.41 L 408.127 38.612 L 408.127 38.814 L 408.026 39.016 L 408.026 39.319 Z M 411.562 33.459 L 411.259 33.156 L 411.36 33.055 L 411.461 32.853 L 411.562 32.752 L 411.764 32.651 L 411.865 32.55 L 412.067 32.449 L 412.27 32.348 L 412.371 32.246 L 412.573 32.752 L 412.472 32.752 L 412.27 32.853 L 412.168 32.954 L 412.067 32.954 L 411.967 33.055 L 411.764 33.257 L 411.663 33.358 L 411.562 33.459 Z M 407.117 38.915 L 406.612 38.915 L 406.612 38.713 L 406.713 38.41 L 406.713 38.107 L 406.814 37.904 L 406.915 37.601 L 407.016 37.399 L 407.117 37.197 L 407.319 36.894 L 407.622 37.197 L 407.521 37.399 L 407.42 37.601 L 407.319 37.803 L 407.218 38.005 L 407.218 38.308 L 407.117 38.511 L 407.117 38.713 L 407.117 38.915 Z M 410.653 33.055 L 410.249 32.853 L 410.35 32.651 L 410.552 32.55 L 410.653 32.449 L 410.754 32.246 L 410.956 32.145 L 411.158 32.045 L 411.259 31.943 L 411.461 31.943 L 411.663 32.348 L 411.461 32.449 L 411.36 32.449 L 411.158 32.55 L 411.057 32.651 L 410.956 32.752 L 410.855 32.853 L 410.754 32.954 L 410.653 33.055 Z M 412.674 39.319 L 413.179 39.319 L 413.179 39.521 L 413.179 39.723 L 413.179 39.925 L 413.078 40.026 L 412.977 40.228 L 412.876 40.43 L 412.775 40.531 L 412.674 40.733 L 412.371 40.329 L 412.472 40.228 L 412.573 40.127 L 412.573 40.026 L 412.674 39.925 L 412.674 39.723 L 412.674 39.622 L 412.674 39.521 L 412.674 39.319 Z" style="fill-rule: evenodd;" id="path505" transform="matrix(1, 0, 0, 1, 0, -1.4210854715202004e-14)"/>
</svg>