<?xml version="1.0" encoding="utf-8"?>
<svg xmlns="http://www.w3.org/2000/svg" viewBox="195.61 25.319 109.408 88.663" width="109.408px" height="88.663px">
  <path d="M 276.032 35.645 L 276.032 35.361 L 276.411 35.266 L 276.505 35.55 L 276.032 35.645 Z M 276.127 35.929 L 276.032 35.645 L 276.411 35.455 L 276.505 35.74 L 276.221 35.929 L 276.127 35.929 Z M 276.316 36.118 L 276.221 35.929 L 276.505 35.645 L 276.695 35.74 L 276.411 36.118 L 276.316 36.118 Z M 276.6 36.213 L 276.411 36.118 L 276.6 35.74 L 276.79 35.74 L 276.695 36.213 L 276.6 36.213 Z M 276.979 36.213 L 276.695 36.213 L 276.695 35.74 L 276.884 35.74 L 277.074 36.118 L 276.979 36.213 Z M 277.263 36.024 L 277.074 36.118 L 276.79 35.74 L 276.979 35.645 L 277.263 35.929 L 277.263 36.024 Z M 277.453 35.74 L 277.263 35.929 L 276.979 35.645 L 277.169 35.455 L 277.453 35.74 Z M 277.642 35.455 L 277.453 35.74 L 277.074 35.55 L 277.263 35.266 L 277.642 35.361 L 277.642 35.455 Z M 277.737 35.077 L 277.642 35.361 L 277.263 35.266 L 277.263 34.981 L 277.737 35.077 Z M 277.737 34.792 L 277.737 35.077 L 277.263 35.077 L 277.263 34.792 L 277.737 34.697 L 277.737 34.792 Z M 277.642 34.508 L 277.737 34.697 L 277.263 34.887 L 277.263 34.603 L 277.642 34.413 L 277.642 34.508 Z M 277.453 34.224 L 277.642 34.413 L 277.263 34.697 L 277.169 34.508 L 277.453 34.129 L 277.453 34.224 Z M 277.263 34.035 L 277.453 34.129 L 277.169 34.603 L 277.074 34.508 L 277.169 34.035 L 277.263 34.035 Z M 276.884 34.035 L 277.169 34.035 L 277.169 34.508 L 276.884 34.508 L 276.884 34.035 Z M 276.6 34.129 L 276.884 34.035 L 276.979 34.508 L 276.79 34.603 L 276.6 34.224 L 276.6 34.129 Z M 276.411 34.319 L 276.6 34.224 L 276.884 34.508 L 276.695 34.697 L 276.316 34.413 L 276.411 34.319 Z M 276.127 34.603 L 276.316 34.413 L 276.695 34.697 L 276.505 34.887 L 276.127 34.697 L 276.127 34.603 Z M 276.032 34.981 L 276.127 34.697 L 276.6 34.887 L 276.505 35.077 L 276.032 34.981 Z M 276.032 35.266 L 276.032 34.981 L 276.505 35.077 L 276.411 35.361 L 276.032 35.361 L 276.032 35.266 Z M 203.188 49.854 L 204.136 50.138 L 203.946 50.611 L 202.999 50.233 L 203.188 49.854 Z M 195.61 109.341 L 196.179 51.843 L 196.652 51.843 L 196.084 109.341 L 195.61 109.341 Z M 196.463 51.653 L 208.493 56.106 L 208.303 56.484 L 196.368 52.127 L 196.463 51.653 Z M 208.019 71.072 L 208.209 56.295 L 208.682 56.295 L 208.493 71.072 L 208.019 71.072 Z M 208.398 70.883 L 220.049 75.145 L 219.954 75.524 L 208.209 71.262 L 208.398 70.883 Z M 219.481 105.363 L 219.765 75.335 L 220.239 75.335 L 219.954 105.363 L 219.481 105.363 Z M 208.019 100.816 L 219.765 105.173 L 219.576 105.552 L 207.925 101.289 L 208.019 100.816 Z M 207.64 113.698 L 207.735 101.1 L 208.209 101.1 L 208.114 113.698 L 207.64 113.698 Z M 195.894 109.152 L 207.924 113.509 L 207.83 113.982 L 195.8 109.531 L 195.894 109.152 Z M 219.954 75.145 L 304.734 48.812 L 304.923 49.285 L 220.049 75.524 L 219.954 75.145 Z M 305.018 49.001 L 304.734 79.029 L 304.26 79.029 L 304.544 49.001 L 305.018 49.001 Z M 304.544 79.218 L 219.765 105.552 L 219.67 105.173 L 304.449 78.84 L 304.544 79.218 Z M 303.597 78.271 L 220.712 103.942 L 220.618 103.563 L 303.502 77.892 L 303.597 78.271 Z M 303.881 62.452 L 303.786 78.082 L 303.313 78.082 L 303.502 62.452 L 303.881 62.452 Z M 220.807 87.933 L 303.597 62.262 L 303.786 62.642 L 220.902 88.312 L 220.807 87.933 Z M 220.428 103.752 L 220.618 88.123 L 221.091 88.123 L 220.902 103.752 L 220.428 103.752 Z M 291.282 44.549 L 303.028 48.812 L 302.839 49.19 L 291.093 44.928 L 291.282 44.549 Z M 293.177 44.549 L 304.923 48.812 L 304.734 49.285 L 292.987 44.928 L 293.177 44.549 Z M 293.177 44.928 L 208.303 71.262 L 208.209 70.883 L 293.082 44.549 L 293.177 44.928 Z M 219.954 74.956 L 209.156 70.977 L 209.345 70.599 L 220.144 74.482 L 219.954 74.956 Z M 302.934 49.19 L 220.144 74.956 L 219.954 74.482 L 302.839 48.812 L 302.934 49.19 Z M 208.398 56.106 L 209.345 55.726 L 209.44 56.2 L 208.493 56.484 L 208.398 56.106 Z M 209.061 70.788 L 209.156 56.011 L 209.629 56.011 L 209.44 70.788 L 209.061 70.788 Z M 209.345 56.2 L 198.262 52.127 L 198.357 51.748 L 209.44 55.726 L 209.345 56.2 Z M 196.368 51.653 L 202.241 49.854 L 202.43 50.233 L 196.463 52.127 L 196.368 51.653 Z M 202.43 49.854 L 203.378 50.138 L 203.188 50.611 L 202.241 50.233 L 202.43 49.854 Z M 198.262 51.748 L 203.188 50.138 L 203.378 50.611 L 198.357 52.127 L 198.262 51.748 Z M 220.712 95.606 L 291.756 73.535 L 291.946 74.009 L 220.807 96.079 L 220.712 95.606 Z M 291.946 73.535 L 303.597 77.892 L 303.502 78.271 L 291.756 74.009 L 291.946 73.535 Z M 291.282 44.928 L 209.345 70.314 L 209.156 69.935 L 291.093 44.454 L 291.282 44.928 Z M 292.135 66.052 L 292.04 73.819 L 291.661 73.724 L 291.661 66.052 L 292.135 66.052 Z M 292.514 30.246 L 292.324 52.411 L 291.851 52.411 L 292.04 30.246 L 292.514 30.246 Z M 254.055 61.694 L 254.055 64.252 L 253.582 64.252 L 253.582 61.694 L 254.055 61.694 Z M 247.425 63.399 L 253.771 61.505 L 253.866 61.884 L 247.52 63.873 L 247.425 63.399 Z M 247.235 66.241 L 247.235 63.683 L 247.709 63.683 L 247.709 66.241 L 247.235 66.241 Z M 238.9 86.607 L 238.9 82.439 L 239.373 82.439 L 239.373 86.702 L 238.9 86.607 Z M 245.53 84.902 L 239.184 86.891 L 239.089 86.417 L 245.436 84.428 L 245.53 84.902 Z M 245.72 80.45 L 245.72 84.712 L 245.246 84.712 L 245.246 80.45 L 245.72 80.45 Z M 231.132 89.354 L 224.785 91.343 L 224.691 90.87 L 231.037 88.88 L 231.132 89.354 Z M 231.416 84.902 L 231.321 89.164 L 230.848 89.164 L 230.943 84.902 L 231.416 84.902 Z M 224.501 91.154 L 224.596 86.891 L 224.975 86.891 L 224.975 91.154 L 224.501 91.154 Z M 270.348 56.579 L 270.348 59.136 L 269.875 59.136 L 269.875 56.579 L 270.348 56.579 Z M 263.718 58.379 L 270.064 56.39 L 270.159 56.863 L 263.812 58.758 L 263.718 58.379 Z M 263.528 61.126 L 263.528 58.568 L 264.002 58.568 L 264.002 61.126 L 263.528 61.126 Z M 255.192 81.586 L 255.287 77.419 L 255.666 77.419 L 255.666 81.586 L 255.192 81.586 Z M 261.823 79.881 L 255.476 81.776 L 255.382 81.397 L 261.728 79.408 L 261.823 79.881 Z M 262.012 75.429 L 262.012 79.597 L 261.539 79.597 L 261.634 75.429 L 262.012 75.429 Z M 237.763 66.715 L 237.668 69.272 L 237.289 69.272 L 237.289 66.715 L 237.763 66.715 Z M 231.132 68.514 L 237.479 66.525 L 237.573 66.999 L 231.227 68.893 L 231.132 68.514 Z M 230.943 71.261 L 230.943 68.704 L 231.416 68.704 L 231.321 71.261 L 230.943 71.261 Z M 221.375 71.83 L 221.375 74.387 L 220.902 74.387 L 220.996 71.83 L 221.375 71.83 Z M 216.166 73.156 L 221.091 71.546 L 221.281 72.019 L 216.355 73.535 L 216.166 73.156 Z M 283.894 72.682 L 283.989 68.514 L 284.368 68.514 L 284.368 72.682 L 283.894 72.682 Z M 290.525 70.883 L 284.178 72.872 L 284.084 72.493 L 290.43 70.503 L 290.525 70.883 Z M 290.714 66.525 L 290.714 70.693 L 290.241 70.693 L 290.335 66.525 L 290.714 66.525 Z M 269.591 77.134 L 269.591 72.967 L 270.064 72.967 L 269.969 77.134 L 269.591 77.134 Z M 276.221 75.429 L 269.875 77.324 L 269.685 76.945 L 276.032 74.956 L 276.221 75.429 Z M 276.411 70.977 L 276.316 75.145 L 275.937 75.145 L 275.937 70.977 L 276.411 70.977 Z M 286.641 51.559 L 286.641 54.116 L 286.167 54.116 L 286.262 51.559 L 286.641 51.559 Z M 280.01 53.358 L 286.357 51.369 L 286.546 51.748 L 280.2 53.737 L 280.01 53.358 Z M 279.821 56.106 L 279.916 53.548 L 280.295 53.548 L 280.295 56.106 L 279.821 56.106 Z M 204.42 50.327 L 207.261 52.6 L 206.977 52.98 L 204.136 50.706 L 204.42 50.327 Z M 207.924 54.211 L 207.924 55.348 L 207.451 55.348 L 207.546 54.211 L 207.924 54.211 Z M 291.756 86.702 L 208.967 112.372 L 208.777 111.899 L 291.662 86.228 L 291.756 86.702 Z M 291.946 83.007 L 291.946 86.417 L 291.472 86.417 L 291.567 83.007 L 291.946 83.007 Z M 292.988 82.723 L 292.893 87.365 L 292.419 87.365 L 292.514 82.723 L 292.988 82.723 Z M 292.798 87.649 L 207.925 113.982 L 207.83 113.509 L 292.609 87.175 L 292.798 87.649 Z M 208.588 112.183 L 208.777 101.384 L 209.156 101.384 L 209.061 112.183 L 208.588 112.183 Z M 220.144 74.577 L 220.144 72.019 L 220.618 72.114 L 220.523 74.672 L 220.144 74.577 Z M 286.736 84.334 L 291.756 86.228 L 291.662 86.607 L 286.546 84.807 L 286.736 84.334 Z M 214.366 103.563 L 208.967 105.268 L 208.872 104.794 L 214.271 103.184 L 214.366 103.563 Z M 230.374 88.691 L 231.132 88.88 L 231.037 89.354 L 230.185 89.07 L 230.374 88.691 Z M 224.691 90.396 L 230.185 88.691 L 230.374 89.07 L 224.786 90.775 L 224.691 90.396 Z M 230.09 88.88 L 230.09 85.186 L 230.564 85.186 L 230.469 88.88 L 230.09 88.88 Z M 236.437 69.556 L 236.437 66.999 L 236.91 66.999 L 236.91 69.556 L 236.437 69.556 Z M 244.678 84.239 L 245.53 84.428 L 245.436 84.902 L 244.583 84.618 L 244.678 84.239 Z M 239.089 85.944 L 244.583 84.239 L 244.678 84.618 L 239.184 86.323 L 239.089 85.944 Z M 244.394 84.428 L 244.394 80.734 L 244.867 80.734 L 244.867 84.428 L 244.394 84.428 Z M 252.729 64.536 L 252.729 61.978 L 253.203 61.978 L 253.203 64.536 L 252.729 64.536 Z M 260.971 79.124 L 261.823 79.408 L 261.728 79.881 L 260.876 79.597 L 260.971 79.124 Z M 255.382 80.829 L 260.876 79.124 L 260.971 79.597 L 255.476 81.302 L 255.382 80.829 Z M 260.686 79.408 L 260.781 75.714 L 261.16 75.714 L 261.16 79.408 L 260.686 79.408 Z M 269.022 59.421 L 269.022 56.863 L 269.496 56.863 L 269.496 59.421 L 269.022 59.421 Z M 275.369 74.672 L 276.221 74.956 L 276.032 75.429 L 275.274 75.145 L 275.369 74.672 Z M 269.685 76.377 L 275.274 74.672 L 275.369 75.145 L 269.875 76.85 L 269.685 76.377 Z M 292.23 30.056 L 293.177 29.772 L 293.272 30.15 L 292.325 30.53 L 292.23 30.056 Z M 281.242 25.983 L 292.325 30.056 L 292.23 30.435 L 281.147 26.456 L 281.242 25.983 Z M 276.127 27.498 L 281.147 25.983 L 281.242 26.456 L 276.316 27.972 L 276.127 27.498 Z M 276.127 27.972 L 275.179 27.593 L 275.369 27.214 L 276.316 27.498 L 276.127 27.972 Z M 275.274 27.214 L 281.147 25.319 L 281.336 25.793 L 275.369 27.593 L 275.274 27.214 Z M 281.336 25.319 L 293.367 29.772 L 293.177 30.15 L 281.147 25.793 L 281.336 25.319 Z M 275.084 74.956 L 275.084 71.261 L 275.558 71.261 L 275.558 74.956 L 275.084 74.956 Z M 281.431 26.172 L 281.147 47.864 L 280.768 47.864 L 280.957 26.172 L 281.431 26.172 Z M 293.461 29.961 L 293.367 44.739 L 292.893 44.739 L 292.987 29.961 L 293.461 29.961 Z M 285.315 54.4 L 285.41 51.843 L 285.788 51.843 L 285.788 54.4 L 285.315 54.4 Z M 278.779 48.717 L 271.485 44.075 L 271.674 43.696 L 278.968 48.338 L 278.779 48.717 Z M 271.39 43.886 L 271.485 34.319 L 271.864 34.319 L 271.769 43.886 L 271.39 43.886 Z M 272.053 32.424 L 274.99 28.445 L 275.369 28.73 L 272.432 32.708 L 272.053 32.424 Z M 272.148 32.803 L 271.296 32.424 L 271.39 32.045 L 272.338 32.329 L 272.148 32.803 Z M 271.201 32.045 L 274.043 28.067 L 274.421 28.351 L 271.485 32.329 L 271.201 32.045 Z M 274.327 27.972 L 275.274 28.351 L 275.084 28.73 L 274.137 28.445 L 274.327 27.972 Z M 270.822 33.845 L 271.769 34.129 L 271.58 34.603 L 270.633 34.224 L 270.822 33.845 Z M 270.727 43.412 L 271.674 43.696 L 271.485 44.17 L 270.538 43.791 L 270.727 43.412 Z M 270.443 43.602 L 270.538 34.035 L 271.011 34.035 L 270.917 43.602 L 270.443 43.602 Z M 289.672 70.219 L 290.525 70.503 L 290.43 70.883 L 289.577 70.693 L 289.672 70.219 Z M 284.083 71.924 L 289.577 70.219 L 289.672 70.693 L 284.178 72.398 L 284.083 71.924 Z M 278.495 48.812 L 270.538 43.791 L 270.727 43.412 L 278.684 48.433 L 278.495 48.812 Z M 289.388 70.503 L 289.483 66.809 L 289.862 66.809 L 289.862 70.503 L 289.388 70.503 Z M 203.378 50.611 L 203.188 50.138 L 203.378 50.138 L 203.472 50.138 L 203.662 50.138 L 203.851 50.138 L 204.041 50.138 L 204.136 50.232 L 204.325 50.232 L 204.42 50.327 L 204.136 50.706 L 204.041 50.706 L 203.946 50.611 L 203.851 50.611 L 203.756 50.517 L 203.662 50.517 L 203.567 50.517 L 203.472 50.517 L 203.378 50.611 Z M 206.977 52.884 L 207.261 52.6 L 207.451 52.79 L 207.64 52.98 L 207.735 53.169 L 207.83 53.358 L 207.924 53.548 L 207.924 53.737 L 207.924 54.021 L 207.924 54.211 L 207.546 54.211 L 207.546 54.021 L 207.451 53.832 L 207.451 53.643 L 207.356 53.453 L 207.356 53.358 L 207.261 53.169 L 207.167 53.074 L 206.977 52.884 Z M 202.43 50.232 L 202.241 49.854 L 202.336 49.759 L 202.525 49.759 L 202.62 49.759 L 202.715 49.759 L 202.809 49.759 L 202.904 49.759 L 203.093 49.759 L 203.188 49.854 L 202.999 50.232 L 202.904 50.232 L 202.809 50.232 L 202.715 50.232 L 202.62 50.232 L 202.525 50.232 L 202.43 50.232 Z M 271.864 34.319 L 271.485 34.319 L 271.485 34.129 L 271.485 33.845 L 271.58 33.561 L 271.58 33.372 L 271.674 33.087 L 271.864 32.898 L 271.959 32.614 L 272.053 32.424 L 272.432 32.708 L 272.338 32.898 L 272.243 33.087 L 272.148 33.276 L 272.053 33.466 L 271.959 33.656 L 271.959 33.94 L 271.864 34.129 L 271.864 34.319 Z M 275.369 28.73 L 274.99 28.445 L 275.084 28.256 L 275.179 28.161 L 275.369 27.972 L 275.464 27.877 L 275.653 27.783 L 275.842 27.688 L 275.937 27.593 L 276.127 27.498 L 276.316 27.972 L 276.127 27.972 L 276.032 28.067 L 275.937 28.161 L 275.748 28.256 L 275.653 28.351 L 275.558 28.445 L 275.464 28.541 L 275.369 28.73 Z M 271.011 34.035 L 270.538 34.035 L 270.538 33.75 L 270.538 33.466 L 270.633 33.276 L 270.727 32.992 L 270.822 32.803 L 270.917 32.519 L 271.011 32.329 L 271.201 32.045 L 271.485 32.329 L 271.39 32.519 L 271.296 32.708 L 271.201 32.898 L 271.106 33.182 L 271.011 33.372 L 271.011 33.561 L 271.011 33.845 L 271.011 34.035 Z M 274.421 28.351 L 274.043 28.067 L 274.137 27.972 L 274.327 27.783 L 274.421 27.688 L 274.611 27.593 L 274.706 27.404 L 274.895 27.309 L 275.084 27.309 L 275.179 27.214 L 275.369 27.593 L 275.274 27.688 L 275.084 27.783 L 274.99 27.783 L 274.8 27.877 L 274.706 27.972 L 274.611 28.067 L 274.516 28.256 L 274.421 28.351 Z M 276.411 34.413 L 276.884 34.319 L 276.884 34.508 L 276.884 34.697 L 276.884 34.887 L 276.789 35.077 L 276.695 35.266 L 276.6 35.455 L 276.505 35.55 L 276.411 35.74 L 276.126 35.361 L 276.221 35.266 L 276.221 35.171 L 276.316 35.077 L 276.411 34.981 L 276.411 34.792 L 276.411 34.697 L 276.411 34.508 L 276.411 34.413 Z" style="fill-rule: evenodd;" id="path382" transform="matrix(1, 0, 0, 1, 0, -1.4210854715202004e-14)"/>
  <path d="M 279.347 59.042 L 249.319 68.136 L 249.225 67.757 L 279.253 58.568 L 279.347 59.042 Z M 281.526 60.463 L 281.052 60.463 L 281.052 60.273 L 281.052 60.084 L 280.958 59.894 L 280.958 59.705 L 280.863 59.61 L 280.768 59.421 L 280.673 59.326 L 280.579 59.231 L 280.484 59.136 L 280.295 59.042 L 280.2 59.042 L 280.01 58.947 L 279.916 58.947 L 279.726 58.947 L 279.537 58.947 L 279.347 59.042 L 279.253 58.568 L 279.442 58.568 L 279.631 58.474 L 279.916 58.474 L 280.105 58.568 L 280.295 58.568 L 280.484 58.663 L 280.673 58.758 L 280.863 58.852 L 281.052 59.042 L 281.147 59.136 L 281.242 59.326 L 281.336 59.516 L 281.431 59.8 L 281.526 59.989 L 281.526 60.273 L 281.526 60.463 Z M 280.958 65.672 L 281.052 60.463 L 281.526 60.463 L 281.336 65.672 L 280.958 65.672 Z M 279.063 68.798 L 278.968 68.42 L 279.158 68.325 L 279.347 68.23 L 279.537 68.136 L 279.726 68.041 L 279.821 67.851 L 280.01 67.757 L 280.2 67.567 L 280.295 67.377 L 280.484 67.188 L 280.579 66.999 L 280.673 66.809 L 280.768 66.525 L 280.863 66.336 L 280.863 66.146 L 280.958 65.862 L 280.958 65.672 L 281.336 65.672 L 281.336 65.957 L 281.336 66.241 L 281.242 66.43 L 281.147 66.715 L 281.052 66.904 L 280.958 67.188 L 280.863 67.377 L 280.673 67.662 L 280.484 67.851 L 280.389 68.041 L 280.2 68.23 L 279.916 68.325 L 279.726 68.514 L 279.537 68.609 L 279.347 68.704 L 279.063 68.798 Z M 248.94 77.513 L 278.968 68.42 L 279.063 68.798 L 249.13 77.987 L 248.94 77.513 Z M 246.762 76.092 L 247.235 76.092 L 247.235 76.282 L 247.235 76.471 L 247.33 76.661 L 247.33 76.85 L 247.425 77.04 L 247.52 77.134 L 247.614 77.229 L 247.709 77.324 L 247.804 77.419 L 247.993 77.513 L 248.088 77.608 L 248.277 77.608 L 248.372 77.608 L 248.562 77.608 L 248.751 77.608 L 248.94 77.513 L 249.13 77.987 L 248.846 78.082 L 248.656 78.082 L 248.372 78.082 L 248.183 78.082 L 247.993 77.987 L 247.804 77.892 L 247.614 77.797 L 247.425 77.703 L 247.235 77.608 L 247.141 77.419 L 247.046 77.229 L 246.951 77.04 L 246.856 76.85 L 246.856 76.566 L 246.762 76.377 L 246.762 76.092 Z M 247.33 70.883 L 247.235 76.092 L 246.762 76.092 L 246.951 70.883 L 247.33 70.883 Z M 249.224 67.757 L 249.319 68.136 L 249.13 68.23 L 248.94 68.325 L 248.751 68.42 L 248.561 68.609 L 248.467 68.704 L 248.277 68.893 L 248.088 69.082 L 247.993 69.178 L 247.804 69.367 L 247.709 69.651 L 247.614 69.841 L 247.519 70.03 L 247.425 70.219 L 247.425 70.503 L 247.425 70.693 L 247.33 70.883 L 246.951 70.883 L 246.951 70.599 L 246.951 70.409 L 247.046 70.125 L 247.141 69.841 L 247.235 69.651 L 247.33 69.367 L 247.425 69.178 L 247.614 68.988 L 247.804 68.798 L 247.993 68.514 L 248.183 68.42 L 248.372 68.23 L 248.561 68.041 L 248.751 67.946 L 248.94 67.851 L 249.224 67.757 Z" style="fill-rule: evenodd;" id="path384" transform="matrix(1, 0, 0, 1, 0, -1.4210854715202004e-14)"/>
  <path d="M 256.708 68.988 L 257.087 68.798 C 257.182 68.988 257.182 68.988 257.276 69.082 C 257.371 69.082 257.466 69.082 257.561 69.082 C 257.75 68.988 257.845 68.988 257.939 68.893 C 258.034 68.798 258.034 68.704 258.034 68.609 C 258.034 68.609 258.034 68.609 258.034 68.514 C 257.939 68.514 257.939 68.514 257.845 68.514 C 257.845 68.514 257.655 68.514 257.466 68.514 C 257.276 68.514 257.087 68.514 256.992 68.514 C 256.897 68.42 256.803 68.325 256.803 68.136 C 256.803 68.041 256.803 67.946 256.897 67.851 C 256.992 67.662 257.087 67.567 257.182 67.473 C 257.276 67.473 257.466 67.377 257.655 67.283 C 257.939 67.188 258.129 67.188 258.224 67.283 C 258.413 67.377 258.508 67.473 258.508 67.662 L 258.034 67.851 C 258.034 67.757 257.939 67.662 257.939 67.662 C 257.845 67.662 257.75 67.662 257.655 67.662 C 257.466 67.662 257.371 67.757 257.276 67.851 C 257.276 67.851 257.276 67.946 257.276 67.946 C 257.276 68.041 257.276 68.041 257.276 68.041 C 257.371 68.136 257.466 68.136 257.75 68.041 C 257.939 68.041 258.129 68.041 258.224 68.136 C 258.318 68.136 258.413 68.136 258.413 68.23 C 258.508 68.325 258.508 68.42 258.508 68.514 C 258.508 68.609 258.508 68.798 258.413 68.893 C 258.318 68.988 258.224 69.082 258.034 69.178 C 257.939 69.272 257.75 69.367 257.561 69.367 C 257.276 69.462 257.087 69.462 256.897 69.462 C 256.803 69.367 256.708 69.178 256.708 68.988 Z M 258.981 66.999 L 259.36 66.809 L 259.36 67.946 C 259.36 68.136 259.36 68.23 259.36 68.23 C 259.36 68.325 259.455 68.42 259.455 68.42 C 259.55 68.42 259.644 68.42 259.739 68.42 C 259.929 68.42 260.023 68.325 260.118 68.23 C 260.118 68.23 260.213 68.136 260.213 68.041 C 260.213 67.946 260.213 67.851 260.213 67.662 L 260.307 66.62 L 260.686 66.431 L 260.686 67.473 C 260.686 67.757 260.686 67.946 260.592 68.041 C 260.592 68.136 260.592 68.23 260.497 68.325 C 260.402 68.42 260.307 68.514 260.213 68.609 C 260.118 68.609 259.929 68.704 259.739 68.798 C 259.55 68.798 259.455 68.894 259.266 68.798 C 259.171 68.798 259.076 68.798 259.076 68.704 C 258.981 68.704 258.981 68.609 258.887 68.514 C 258.887 68.42 258.887 68.23 258.887 68.041 L 258.981 66.999 Z M 263.149 67.757 L 262.676 67.851 L 262.486 67.473 L 261.539 67.757 L 261.349 68.23 L 260.876 68.42 L 261.823 66.146 L 262.297 65.957 L 263.149 67.757 Z M 262.297 67.188 L 262.012 66.525 L 261.728 67.378 L 262.297 67.188 Z" style="fill-rule: evenodd;" id="path386" transform="matrix(1, 0, 0, 1, 0, -1.4210854715202004e-14)"/>
  <path d="M 264.191 67.473 L 264.191 65.388 L 264.665 65.294 L 264.57 66.999 L 265.707 66.62 L 265.707 66.999 L 264.191 67.473 Z M 265.991 65.862 C 265.991 65.672 265.991 65.483 266.086 65.388 C 266.18 65.199 266.18 65.104 266.275 65.01 C 266.37 64.915 266.465 64.82 266.654 64.725 C 266.749 64.631 266.938 64.536 267.128 64.536 C 267.412 64.441 267.696 64.441 267.886 64.536 C 268.075 64.725 268.17 64.915 268.17 65.294 C 268.17 65.578 268.075 65.862 267.791 66.146 C 267.601 66.336 267.412 66.525 267.033 66.62 C 266.749 66.715 266.465 66.715 266.275 66.62 C 266.086 66.431 265.991 66.241 265.991 65.862 Z M 266.465 65.767 C 266.465 65.957 266.465 66.146 266.559 66.241 C 266.749 66.336 266.843 66.336 267.033 66.241 C 267.223 66.241 267.412 66.146 267.507 65.957 C 267.601 65.767 267.696 65.578 267.696 65.388 C 267.696 65.104 267.601 65.01 267.507 64.915 C 267.412 64.82 267.317 64.82 267.128 64.915 C 266.938 64.915 266.749 65.01 266.654 65.199 C 266.559 65.294 266.465 65.483 266.465 65.767 Z M 269.496 65.104 L 269.591 64.725 L 270.538 64.441 L 270.538 65.294 C 270.443 65.388 270.254 65.483 270.064 65.672 C 269.875 65.767 269.685 65.862 269.496 65.862 C 269.306 65.957 269.117 65.957 268.928 65.957 C 268.738 65.862 268.643 65.767 268.548 65.672 C 268.454 65.483 268.454 65.388 268.454 65.199 C 268.454 64.915 268.454 64.725 268.548 64.536 C 268.738 64.347 268.833 64.157 269.022 64.062 C 269.212 63.967 269.401 63.873 269.591 63.778 C 269.875 63.683 270.064 63.683 270.254 63.778 C 270.348 63.778 270.443 63.967 270.538 64.062 L 270.064 64.347 C 270.064 64.252 269.969 64.157 269.875 64.157 C 269.78 64.062 269.685 64.062 269.591 64.157 C 269.401 64.157 269.212 64.347 269.117 64.441 C 268.928 64.631 268.928 64.82 268.928 65.01 C 268.928 65.294 268.928 65.388 269.022 65.483 C 269.212 65.578 269.306 65.578 269.496 65.578 C 269.591 65.483 269.685 65.483 269.78 65.388 C 269.875 65.388 269.969 65.294 270.064 65.199 L 270.064 64.915 L 269.496 65.104 Z M 270.822 64.441 C 270.822 64.252 270.917 64.062 270.917 63.873 C 271.011 63.778 271.106 63.683 271.201 63.589 C 271.296 63.494 271.39 63.399 271.485 63.305 C 271.58 63.21 271.769 63.115 271.959 63.115 C 272.243 63.02 272.527 63.02 272.716 63.115 C 272.906 63.21 273.001 63.494 273.001 63.778 C 273.001 64.157 272.906 64.441 272.716 64.631 C 272.527 64.915 272.243 65.104 271.864 65.199 C 271.58 65.294 271.296 65.294 271.106 65.104 C 270.917 65.01 270.822 64.82 270.822 64.441 Z M 271.296 64.347 C 271.296 64.536 271.39 64.725 271.485 64.82 C 271.58 64.915 271.769 64.915 271.864 64.82 C 272.053 64.82 272.243 64.631 272.338 64.536 C 272.432 64.347 272.527 64.157 272.527 63.967 C 272.527 63.683 272.527 63.589 272.432 63.494 C 272.243 63.399 272.148 63.399 271.959 63.399 C 271.769 63.494 271.58 63.589 271.485 63.778 C 271.39 63.873 271.296 64.062 271.296 64.347 Z" style="fill-rule: evenodd;" id="path388" transform="matrix(1, 0, 0, 1, 0, -1.4210854715202004e-14)"/>
  <path d="M 263.907 70.693 L 263.339 70.883 L 263.244 70.503 L 262.297 70.693 L 262.107 71.262 L 261.634 71.356 L 262.581 69.083 L 263.055 68.988 L 263.907 70.693 Z M 263.055 70.125 L 262.77 69.462 L 262.486 70.314 L 263.055 70.125 Z M 265.896 69.841 C 265.991 69.935 266.18 69.935 266.275 69.935 L 266.086 70.314 C 265.991 70.314 265.991 70.314 265.896 70.219 C 265.896 70.219 265.802 70.219 265.612 70.125 C 265.422 70.314 265.328 70.314 265.138 70.409 C 264.759 70.503 264.475 70.503 264.286 70.314 C 264.096 70.219 264.002 70.03 264.096 69.651 C 264.096 69.367 264.191 69.082 264.381 68.798 C 264.57 68.609 264.854 68.42 265.138 68.325 C 265.517 68.23 265.802 68.23 265.991 68.325 C 266.18 68.514 266.275 68.704 266.18 68.988 C 266.18 69.178 266.18 69.367 266.086 69.556 C 266.086 69.651 265.991 69.746 265.896 69.841 Z M 265.612 69.746 C 265.612 69.651 265.707 69.556 265.707 69.462 C 265.707 69.367 265.707 69.272 265.802 69.178 C 265.802 68.893 265.707 68.798 265.612 68.704 C 265.517 68.609 265.328 68.609 265.138 68.609 C 264.949 68.704 264.854 68.798 264.665 68.988 C 264.57 69.082 264.57 69.272 264.475 69.556 C 264.475 69.746 264.57 69.935 264.665 70.03 C 264.759 70.125 264.949 70.125 265.138 70.03 C 265.138 70.03 265.233 70.03 265.328 69.935 C 265.233 69.935 265.138 69.935 265.044 69.935 L 265.138 69.651 C 265.328 69.651 265.422 69.651 265.612 69.746 Z M 266.654 67.946 L 267.033 67.757 L 267.033 68.893 C 267.033 69.082 267.033 69.178 267.033 69.178 C 267.033 69.272 267.128 69.367 267.128 69.367 C 267.222 69.367 267.317 69.367 267.412 69.367 C 267.601 69.367 267.696 69.272 267.791 69.178 C 267.791 69.178 267.885 69.082 267.885 68.988 C 267.885 68.893 267.885 68.798 267.885 68.609 L 267.98 67.473 L 268.359 67.377 L 268.359 68.42 C 268.359 68.704 268.359 68.893 268.264 68.988 C 268.264 69.082 268.264 69.178 268.17 69.272 C 268.075 69.367 267.98 69.462 267.885 69.556 C 267.791 69.556 267.601 69.651 267.412 69.746 C 267.222 69.746 267.128 69.746 266.938 69.746 C 266.843 69.746 266.749 69.746 266.749 69.651 C 266.654 69.651 266.654 69.556 266.559 69.462 C 266.559 69.367 266.559 69.178 266.559 68.988 L 266.654 67.946 Z M 268.738 69.272 L 268.833 67.283 L 269.306 67.093 L 269.212 69.178 L 268.738 69.272 Z" style="fill-rule: evenodd;" id="path390" transform="matrix(1, 0, 0, 1, 0, -1.4210854715202004e-14)"/>
</svg>