
<svg xmlns="http://www.w3.org/2000/svg" viewBox="40.51 36.236 110.87 89.682" width="110.87px" height="89.682px">
  <path d="M 121.94 46.576 L 121.94 46.377 L 122.34 46.278 L 122.44 46.576 L 121.94 46.675 L 121.94 46.576 Z M 122.05 46.874 L 121.94 46.675 L 122.44 46.476 L 122.54 46.675 L 122.14 46.974 L 122.05 46.874 Z M 122.34 47.073 L 122.14 46.974 L 122.44 46.576 L 122.64 46.775 L 122.34 47.173 L 122.34 47.073 Z M 122.54 47.173 L 122.34 47.173 L 122.54 46.675 L 122.74 46.775 L 122.74 47.173 L 122.54 47.173 Z M 122.94 47.173 L 122.74 47.173 L 122.64 46.775 L 122.84 46.675 L 123.04 47.173 L 122.94 47.173 Z M 123.24 46.974 L 123.04 47.173 L 122.74 46.775 L 122.94 46.576 L 123.24 46.974 Z M 123.44 46.775 L 123.24 46.974 L 122.94 46.675 L 123.04 46.476 L 123.44 46.675 L 123.44 46.775 Z M 123.64 46.476 L 123.44 46.675 L 123.04 46.476 L 123.14 46.178 L 123.64 46.377 L 123.64 46.476 Z M 123.74 46.079 L 123.64 46.377 L 123.14 46.278 L 123.24 45.98 L 123.74 46.079 Z M 123.74 45.781 L 123.74 46.079 L 123.24 46.079 L 123.24 45.781 L 123.74 45.681 L 123.74 45.781 Z M 123.64 45.482 L 123.74 45.681 L 123.24 45.781 L 123.14 45.581 L 123.64 45.383 L 123.64 45.482 Z M 123.44 45.184 L 123.64 45.383 L 123.24 45.681 L 123.04 45.482 L 123.34 45.085 L 123.44 45.184 Z M 123.24 44.985 L 123.34 45.085 L 123.14 45.581 L 122.94 45.482 L 123.14 44.985 L 123.24 44.985 Z M 122.84 44.985 L 123.14 44.985 L 123.04 45.482 L 122.84 45.482 L 122.84 44.985 Z M 122.54 45.085 L 122.84 44.985 L 122.94 45.482 L 122.74 45.581 L 122.54 45.184 L 122.54 45.085 Z M 122.34 45.283 L 122.54 45.184 L 122.84 45.482 L 122.64 45.681 L 122.24 45.383 L 122.34 45.283 Z M 122.14 45.581 L 122.24 45.383 L 122.64 45.581 L 122.54 45.88 L 122.05 45.681 L 122.14 45.581 Z M 121.94 45.98 L 122.05 45.681 L 122.54 45.781 L 122.44 46.079 L 121.94 45.98 Z M 121.94 46.278 L 121.94 45.98 L 122.44 46.079 L 122.34 46.377 L 121.94 46.377 L 121.94 46.278 Z M 48.17 60.993 L 49.07 61.291 L 48.97 61.788 L 47.97 61.39 L 48.17 60.993 Z M 40.51 121.245 L 40.62 110.04 L 41.87 110.607 L 41.83 109.107 L 40.64 108.588 L 40.75 97.959 L 41.77 98.166 L 41.71 96.51 L 40.77 96.276 L 41.11 63.081 L 41.51 63.081 L 41.23 95.993 L 41.88 96.304 L 41.92 98.464 L 41.21 98.244 L 41.12 108.382 L 42.2 108.744 L 42.2 111.281 L 41.1 110.919 L 41.01 121.245 L 40.51 121.245 Z M 41.41 62.882 L 53.54 67.356 L 53.44 67.754 L 41.21 63.28 L 41.41 62.882 Z M 53.04 82.469 L 53.24 67.555 L 53.74 67.555 L 53.54 82.469 L 53.04 82.469 Z M 53.44 82.27 L 65.27 86.645 L 65.07 87.042 L 53.24 82.767 L 53.44 82.27 Z M 64.68 117.268 L 64.97 86.844 L 65.47 86.844 L 65.17 117.268 L 64.68 117.268 Z M 53.14 112.694 L 64.97 117.069 L 64.78 117.467 L 52.94 113.092 L 53.14 112.694 Z M 52.64 125.719 L 52.84 112.893 L 53.24 112.893 L 53.14 125.719 L 52.64 125.719 Z M 40.81 121.046 L 52.94 125.52 L 52.84 125.918 L 40.61 121.543 L 40.81 121.046 Z M 65.07 86.645 L 151.08 59.999 L 151.18 60.396 L 65.27 87.042 L 65.07 86.645 Z M 151.38 60.197 L 151.08 90.621 L 150.58 90.621 L 150.88 60.197 L 151.38 60.197 Z M 150.88 90.821 L 64.97 117.467 L 64.78 117.069 L 150.78 90.323 L 150.88 90.821 Z M 149.88 89.826 L 65.97 115.876 L 65.87 115.379 L 149.79 89.329 L 149.88 89.826 Z M 150.28 73.819 L 150.08 89.628 L 149.59 89.628 L 149.79 73.719 L 150.28 73.819 Z M 65.97 99.57 L 149.98 73.521 L 150.08 74.018 L 66.17 100.067 L 65.97 99.57 Z M 65.67 115.677 L 65.77 99.769 L 66.27 99.868 L 66.17 115.677 L 65.67 115.677 Z M 137.46 55.624 L 149.29 59.899 L 149.09 60.396 L 137.26 56.021 L 137.46 55.624 Z M 139.35 55.624 L 151.18 59.999 L 151.08 60.396 L 139.15 56.021 L 139.35 55.624 Z M 139.35 56.121 L 53.44 82.767 L 53.24 82.27 L 139.24 55.624 L 139.35 56.121 Z M 65.17 86.446 L 54.24 82.469 L 54.43 81.971 L 65.37 85.949 L 65.17 86.446 Z M 149.29 60.396 L 65.27 86.446 L 65.17 85.949 L 149.09 59.899 L 149.29 60.396 Z M 53.44 67.356 L 54.43 66.958 L 54.53 67.456 L 53.54 67.754 L 53.44 67.356 Z M 54.04 82.171 L 54.24 67.257 L 54.73 67.257 L 54.53 82.171 L 54.04 82.171 Z M 54.34 67.456 L 43.1 63.379 L 43.3 62.882 L 54.53 67.058 L 54.34 67.456 Z M 41.21 62.882 L 47.28 60.993 L 47.37 61.39 L 41.41 63.28 L 41.21 62.882 Z M 47.37 60.993 L 48.37 61.291 L 48.17 61.788 L 47.28 61.39 L 47.37 60.993 Z M 43.2 62.882 L 48.17 61.291 L 48.27 61.788 L 43.3 63.379 L 43.2 62.882 Z M 65.87 107.425 L 137.95 85.054 L 138.05 85.452 L 66.07 107.823 L 65.87 107.425 Z M 138.05 85.054 L 149.98 89.428 L 149.79 89.827 L 137.95 85.452 L 138.05 85.054 Z M 137.46 56.021 L 54.43 81.773 L 54.24 81.375 L 137.26 55.624 L 137.46 56.021 Z M 138.35 77.497 L 138.25 85.253 L 137.75 85.253 L 137.85 77.497 L 138.35 77.497 Z M 138.65 41.207 L 138.45 63.578 L 137.95 63.578 L 138.15 41.207 L 138.65 41.207 Z M 99.67 73.023 L 99.67 75.609 L 99.18 75.609 L 99.28 73.023 L 99.67 73.023 Z M 93.01 74.813 L 99.38 72.825 L 99.57 73.222 L 93.11 75.211 L 93.01 74.813 Z M 92.81 77.597 L 92.81 75.012 L 93.31 75.012 L 93.21 77.597 L 92.81 77.597 Z M 84.36 98.278 L 84.36 94.102 L 84.86 94.102 L 84.76 98.278 L 84.36 98.278 Z M 91.12 96.488 L 84.66 98.576 L 84.46 98.079 L 90.92 96.09 L 91.12 96.488 Z M 91.32 92.113 L 91.22 96.289 L 90.73 96.289 L 90.82 92.014 L 91.32 92.113 Z M 76.51 101.061 L 70.05 103.05 L 69.94 102.553 L 76.41 100.565 L 76.51 101.061 Z M 76.71 96.587 L 76.71 100.863 L 76.21 100.863 L 76.31 96.587 L 76.71 96.587 Z M 69.75 102.851 L 69.85 98.576 L 70.34 98.576 L 70.24 102.851 L 69.75 102.851 Z M 116.28 67.853 L 116.18 70.438 L 115.78 70.438 L 115.78 67.853 L 116.28 67.853 Z M 109.52 69.643 L 115.98 67.654 L 116.08 68.052 L 109.62 70.14 L 109.52 69.643 Z M 109.32 72.427 L 109.32 69.842 L 109.81 69.842 L 109.81 72.427 L 109.32 72.427 Z M 100.87 93.207 L 100.87 88.932 L 101.36 88.932 L 101.36 93.207 L 100.87 93.207 Z M 107.63 91.417 L 101.17 93.406 L 101.07 92.909 L 107.43 90.92 L 107.63 91.417 Z M 107.83 86.943 L 107.73 91.218 L 107.33 91.218 L 107.33 86.943 L 107.83 86.943 Z M 83.17 78.094 L 83.17 80.679 L 82.67 80.679 L 82.67 78.094 L 83.17 78.094 Z M 76.41 79.884 L 82.87 77.895 L 82.97 78.392 L 76.61 80.381 L 76.41 79.884 Z M 76.21 82.767 L 76.31 80.083 L 76.71 80.083 L 76.71 82.767 L 76.21 82.767 Z M 66.66 83.264 L 66.66 85.849 L 66.17 85.849 L 66.17 83.264 L 66.66 83.264 Z M 61.39 84.557 L 66.37 83.065 L 66.47 83.463 L 61.49 85.054 L 61.39 84.557 Z M 130 84.159 L 130 79.884 L 130.5 79.884 L 130.4 84.159 L 130 84.159 Z M 136.66 82.37 L 130.3 84.358 L 130.1 83.96 L 136.56 81.971 L 136.66 82.37 Z M 136.86 77.895 L 136.86 82.171 L 136.36 82.171 L 136.46 77.895 L 136.86 77.895 Z M 115.38 88.633 L 115.48 84.458 L 115.88 84.458 L 115.88 88.633 L 115.38 88.633 Z M 122.14 86.943 L 115.68 88.932 L 115.58 88.435 L 122.05 86.446 L 122.14 86.943 Z M 122.34 82.469 L 122.34 86.645 L 121.85 86.645 L 121.85 82.469 L 122.34 82.469 Z M 132.78 62.783 L 132.78 65.368 L 132.29 65.368 L 132.29 62.783 L 132.78 62.783 Z M 126.02 64.473 L 132.49 62.484 L 132.58 62.981 L 126.12 64.97 L 126.02 64.473 Z M 125.82 67.356 L 125.82 64.771 L 126.32 64.771 L 126.32 67.356 L 125.82 67.356 Z M 49.46 61.49 L 52.35 63.776 L 52.05 64.175 L 49.17 61.888 L 49.46 61.49 Z M 53.04 65.467 L 52.94 66.561 L 52.55 66.561 L 52.55 65.467 L 53.04 65.467 Z M 137.95 98.278 L 53.94 124.327 L 53.84 123.93 L 137.85 97.88 L 137.95 98.278 Z M 138.15 94.599 L 138.15 98.079 L 137.66 98.079 L 137.66 94.599 L 138.15 94.599 Z M 139.15 94.301 L 139.05 99.073 L 138.65 99.073 L 138.65 94.301 L 139.15 94.301 Z M 138.95 99.272 L 52.94 125.918 L 52.84 125.52 L 138.75 98.874 L 138.95 99.272 Z M 53.64 124.129 L 53.74 113.291 L 54.24 113.291 L 54.14 124.129 L 53.64 124.129 Z M 65.27 86.147 L 65.37 83.563 L 65.77 83.563 L 65.77 86.147 L 65.27 86.147 Z M 132.78 95.991 L 137.95 97.88 L 137.75 98.278 L 132.58 96.389 L 132.78 95.991 Z M 59.51 115.479 L 54.04 117.168 L 53.94 116.672 L 59.41 114.981 L 59.51 115.479 Z M 75.71 100.366 L 76.51 100.565 L 76.41 101.061 L 75.51 100.763 L 75.71 100.366 Z M 69.94 102.056 L 75.51 100.366 L 75.71 100.763 L 70.14 102.553 L 69.94 102.056 Z M 75.41 100.565 L 75.41 96.885 L 75.91 96.885 L 75.81 100.565 L 75.41 100.565 Z M 81.88 80.978 L 81.88 78.392 L 82.27 78.392 L 82.27 80.978 L 81.88 80.978 Z M 90.23 95.792 L 91.12 96.09 L 90.92 96.488 L 90.13 96.289 L 90.23 95.792 Z M 84.46 97.582 L 90.13 95.792 L 90.23 96.289 L 84.66 97.979 L 84.46 97.582 Z M 89.93 96.09 L 89.93 92.312 L 90.43 92.312 L 90.43 96.09 L 89.93 96.09 Z M 98.38 75.907 L 98.38 73.222 L 98.88 73.222 L 98.78 75.907 L 98.38 75.907 Z M 106.73 90.721 L 107.63 90.92 L 107.43 91.417 L 106.63 91.119 L 106.73 90.721 Z M 101.07 92.411 L 106.63 90.721 L 106.73 91.119 L 101.17 92.909 L 101.07 92.411 Z M 106.43 90.92 L 106.53 87.241 L 106.93 87.241 L 106.93 90.92 L 106.43 90.92 Z M 114.89 70.737 L 114.89 68.151 L 115.38 68.151 L 115.38 70.737 L 114.89 70.737 Z M 121.25 86.147 L 122.14 86.446 L 122.05 86.943 L 121.15 86.645 L 121.25 86.147 Z M 115.58 87.937 L 121.15 86.147 L 121.25 86.645 L 115.68 88.335 L 115.58 87.937 Z M 138.35 40.909 L 139.35 40.61 L 139.44 41.107 L 138.45 41.405 L 138.35 40.909 Z M 127.31 36.832 L 138.55 41.008 L 138.35 41.406 L 127.12 37.329 L 127.31 36.832 Z M 122.14 38.423 L 127.12 36.832 L 127.22 37.329 L 122.24 38.821 L 122.14 38.423 Z M 122.05 38.821 L 121.15 38.523 L 121.35 38.025 L 122.24 38.423 L 122.05 38.821 Z M 121.15 38.025 L 127.22 36.236 L 127.31 36.633 L 121.35 38.523 L 121.15 38.025 Z M 127.31 36.236 L 139.54 40.611 L 139.35 41.107 L 127.22 36.633 L 127.31 36.236 Z M 120.95 86.446 L 121.05 82.668 L 121.55 82.668 L 121.45 86.446 L 120.95 86.446 Z M 127.41 37.031 L 127.22 59.004 L 126.72 59.004 L 126.92 37.031 L 127.41 37.031 Z M 139.64 40.909 L 139.54 55.823 L 139.05 55.823 L 139.15 40.909 L 139.64 40.909 Z M 131.39 65.566 L 131.39 62.981 L 131.89 62.981 L 131.89 65.566 L 131.39 65.566 Z M 124.73 59.899 L 117.37 55.226 L 117.57 54.828 L 124.93 59.501 L 124.73 59.899 Z M 117.27 55.027 L 117.27 45.283 L 117.77 45.283 L 117.67 55.027 L 117.27 55.027 Z M 117.97 43.394 L 120.95 39.317 L 121.25 39.616 L 118.37 43.593 L 117.97 43.394 Z M 118.07 43.693 L 117.17 43.394 L 117.27 42.897 L 118.27 43.295 L 118.07 43.693 Z M 117.07 42.997 L 119.96 38.92 L 120.35 39.218 L 117.37 43.295 L 117.07 42.997 Z M 120.25 38.92 L 121.15 39.218 L 121.05 39.616 L 120.06 39.317 L 120.25 38.92 Z M 116.68 44.786 L 117.67 45.085 L 117.47 45.581 L 116.58 45.184 L 116.68 44.786 Z M 116.58 54.431 L 117.57 54.828 L 117.37 55.226 L 116.48 54.928 L 116.58 54.431 Z M 116.28 54.63 L 116.38 44.985 L 116.87 44.985 L 116.78 54.63 L 116.28 54.63 Z M 135.86 81.673 L 136.66 81.971 L 136.56 82.37 L 135.67 82.171 L 135.86 81.673 Z M 130.1 83.364 L 135.67 81.673 L 135.86 82.171 L 130.3 83.861 L 130.1 83.364 Z M 124.43 59.999 L 116.38 54.828 L 116.68 54.431 L 124.73 59.601 L 124.43 59.999 Z M 135.57 81.872 L 135.57 78.194 L 136.06 78.194 L 135.96 81.872 L 135.57 81.872 Z M 48.37 61.788 L 48.17 61.291 L 48.37 61.291 L 48.47 61.291 L 48.67 61.291 L 48.87 61.291 L 48.97 61.291 L 49.17 61.39 L 49.26 61.49 L 49.46 61.49 L 49.17 61.888 L 49.07 61.888 L 48.97 61.788 L 48.87 61.788 L 48.77 61.788 L 48.67 61.689 L 48.57 61.689 L 48.47 61.788 L 48.37 61.788 Z M 52.05 64.175 L 52.35 63.776 L 52.55 63.976 L 52.64 64.175 L 52.74 64.373 L 52.84 64.572 L 52.94 64.771 L 52.94 64.97 L 53.04 65.169 L 53.04 65.467 L 52.55 65.368 L 52.55 65.268 L 52.55 65.069 L 52.45 64.87 L 52.45 64.671 L 52.35 64.572 L 52.25 64.373 L 52.15 64.274 L 52.05 64.175 Z M 47.37 61.39 L 47.28 60.993 L 47.48 60.893 L 47.67 60.893 L 47.97 60.893 L 48.17 60.993 L 47.97 61.39 L 47.87 61.39 L 47.67 61.39 L 47.57 61.39 L 47.37 61.39 Z M 117.77 45.283 L 117.27 45.283 L 117.37 45.085 L 117.37 44.786 L 117.47 44.488 L 117.47 44.289 L 117.57 43.991 L 117.67 43.792 L 117.87 43.593 L 117.97 43.394 L 118.37 43.593 L 118.27 43.792 L 118.17 43.991 L 118.07 44.19 L 117.97 44.388 L 117.87 44.687 L 117.87 44.886 L 117.77 45.085 L 117.77 45.283 Z M 121.35 39.616 L 120.95 39.318 L 121.05 39.119 L 121.15 39.019 L 121.25 38.92 L 121.45 38.721 L 121.55 38.622 L 121.75 38.523 L 121.94 38.423 L 122.05 38.423 L 122.24 38.821 L 122.14 38.92 L 121.94 38.92 L 121.85 39.019 L 121.75 39.119 L 121.65 39.218 L 121.45 39.318 L 121.35 39.417 L 121.35 39.616 Z M 116.87 44.985 L 116.38 44.985 L 116.38 44.687 L 116.48 44.488 L 116.48 44.19 L 116.58 43.892 L 116.68 43.693 L 116.78 43.493 L 116.87 43.195 L 117.07 42.997 L 117.37 43.295 L 117.27 43.493 L 117.17 43.693 L 117.07 43.892 L 116.97 44.09 L 116.97 44.289 L 116.87 44.488 L 116.87 44.786 L 116.87 44.985 Z M 120.36 39.218 L 119.96 39.019 L 120.06 38.821 L 120.25 38.721 L 120.36 38.523 L 120.45 38.423 L 120.65 38.324 L 120.85 38.224 L 120.95 38.124 L 121.15 38.025 L 121.35 38.522 L 121.15 38.522 L 121.05 38.622 L 120.95 38.721 L 120.75 38.821 L 120.65 38.92 L 120.55 39.019 L 120.45 39.119 L 120.36 39.218 Z M 122.34 45.383 L 122.84 45.283 L 122.84 45.482 L 122.84 45.681 L 122.84 45.88 L 122.74 46.079 L 122.64 46.278 L 122.64 46.377 L 122.44 46.576 L 122.34 46.675 L 122.05 46.377 L 122.14 46.278 L 122.24 46.178 L 122.24 46.079 L 122.34 45.88 L 122.34 45.781 L 122.34 45.681 L 122.44 45.482 L 122.34 45.383 Z" style="fill-rule: evenodd;" id="path368"/>
  <g transform="matrix(1, 0, 0, 1, 546.8250122070312, -273.8330078125)">
    <path d="M -421.66 344.285 L -452.09 353.532 L -452.19 353.134 L -421.76 343.788 L -421.66 344.285 Z M -419.48 345.777 L -419.87 345.677 L -419.87 345.479 L -419.97 345.28 L -419.97 345.18 L -420.07 344.982 L -420.07 344.783 L -420.17 344.683 L -420.27 344.583 L -420.37 344.484 L -420.57 344.385 L -420.67 344.285 L -420.77 344.285 L -420.97 344.186 L -421.07 344.186 L -421.27 344.186 L -421.46 344.186 L -421.66 344.285 L -421.76 343.788 L -421.56 343.788 L -421.37 343.689 L -421.07 343.689 L -420.87 343.788 L -420.67 343.788 L -420.47 343.888 L -420.27 343.987 L -420.07 344.087 L -419.97 344.285 L -419.77 344.385 L -419.68 344.583 L -419.58 344.783 L -419.58 344.982 L -419.48 345.28 L -419.48 345.479 L -419.48 345.777 Z M -420.07 351.046 L -419.87 345.677 L -419.48 345.777 L -419.58 351.046 L -420.07 351.046 Z M -421.96 354.228 L -422.06 353.731 L -421.86 353.731 L -421.66 353.632 L -421.46 353.532 L -421.27 353.333 L -421.17 353.233 L -420.97 353.035 L -420.87 352.836 L -420.67 352.737 L -420.57 352.538 L -420.47 352.339 L -420.37 352.14 L -420.27 351.842 L -420.17 351.643 L -420.07 351.444 L -420.07 351.245 L -420.07 351.046 L -419.58 351.046 L -419.58 351.245 L -419.68 351.544 L -419.68 351.742 L -419.77 352.04 L -419.87 352.339 L -419.97 352.538 L -420.17 352.737 L -420.27 352.935 L -420.47 353.233 L -420.67 353.433 L -420.87 353.532 L -421.07 353.731 L -421.27 353.93 L -421.46 354.029 L -421.66 354.128 L -421.96 354.228 Z M -452.49 362.978 L -422.06 353.731 L -421.96 354.228 L -452.29 363.475 L -452.49 362.978 Z M -454.67 361.585 L -454.18 361.585 L -454.18 361.785 L -454.18 361.983 L -454.08 362.182 L -454.08 362.381 L -453.98 362.48 L -453.88 362.58 L -453.78 362.779 L -453.68 362.878 L -453.58 362.878 L -453.48 362.978 L -453.28 363.077 L -453.18 363.077 L -452.98 363.077 L -452.79 363.077 L -452.69 363.077 L -452.49 362.978 L -452.29 363.475 L -452.59 363.574 L -452.79 363.574 L -452.98 363.574 L -453.28 363.574 L -453.48 363.475 L -453.68 363.375 L -453.88 363.375 L -453.98 363.177 L -454.18 363.077 L -454.28 362.878 L -454.38 362.679 L -454.48 362.48 L -454.57 362.282 L -454.67 362.083 L -454.67 361.785 L -454.67 361.585 Z M -454.08 356.316 L -454.18 361.585 L -454.67 361.585 L -454.48 356.316 L -454.08 356.316 Z M -452.19 353.134 L -452.09 353.532 L -452.29 353.632 L -452.39 353.731 L -452.59 353.83 L -452.79 353.93 L -452.98 354.128 L -453.18 354.228 L -453.28 354.427 L -453.48 354.626 L -453.58 354.825 L -453.68 355.023 L -453.78 355.222 L -453.88 355.421 L -453.98 355.62 L -453.98 355.819 L -454.08 356.117 L -454.08 356.316 L -454.48 356.316 L -454.48 356.018 L -454.48 355.72 L -454.38 355.521 L -454.28 355.222 L -454.18 355.023 L -454.08 354.725 L -453.98 354.526 L -453.78 354.328 L -453.68 354.128 L -453.48 353.93 L -453.28 353.731 L -453.08 353.532 L -452.88 353.433 L -452.69 353.333 L -452.39 353.134 L -452.19 353.134 Z" style="fill-rule: evenodd;" id="path370"/>
    <path d="M -433.1 352.936 L -433.79 353.134 L -433.69 351.742 C -433.69 351.643 -433.79 351.643 -433.79 351.544 C -433.79 351.544 -433.79 351.444 -433.89 351.444 C -433.99 351.444 -433.99 351.345 -434.09 351.345 C -434.19 351.345 -434.19 351.345 -434.29 351.444 L -435.48 351.742 L -435.58 353.632 L -436.28 353.83 L -436.18 351.643 C -436.18 351.643 -436.18 351.544 -436.18 351.544 C -436.08 351.544 -436.08 351.444 -436.08 351.444 C -435.98 351.345 -435.98 351.345 -435.98 351.345 C -435.88 351.345 -435.88 351.245 -435.78 351.245 L -434.29 350.847 C -434.19 350.748 -434.09 350.748 -433.99 350.748 C -433.89 350.748 -433.79 350.748 -433.69 350.748 C -433.6 350.748 -433.5 350.748 -433.5 350.847 C -433.4 350.847 -433.3 350.947 -433.2 350.947 C -433.2 351.046 -433.1 351.145 -433.1 351.245 C -433.1 351.245 -433.1 351.444 -433.1 351.544 L -433.1 352.936 Z M -429.02 349.257 C -429.12 349.456 -429.22 349.754 -429.32 349.952 C -429.42 350.152 -429.52 350.45 -429.72 350.649 C -429.82 350.847 -430.02 351.046 -430.12 351.245 C -430.31 351.444 -430.51 351.643 -430.71 351.842 C -430.91 352.04 -431.11 352.14 -431.41 352.339 C -431.61 352.439 -431.9 352.538 -432.2 352.637 C -432.2 352.637 -432.3 352.637 -432.3 352.637 C -432.3 352.637 -432.4 352.637 -432.4 352.637 C -432.4 352.637 -432.5 352.538 -432.5 352.538 C -432.5 352.538 -432.5 352.439 -432.5 352.439 L -432.4 350.251 L -431.71 350.052 L -431.81 351.941 C -431.61 351.842 -431.51 351.742 -431.31 351.643 C -431.21 351.544 -431.01 351.444 -430.91 351.345 C -430.71 351.145 -430.61 351.046 -430.51 350.847 C -430.31 350.649 -430.21 350.549 -430.12 350.35 C -430.02 350.152 -430.02 350.052 -429.92 349.853 C -429.82 349.754 -429.82 349.555 -429.72 349.456 L -429.02 349.257 Z M -428.03 348.461 L -428.72 348.66 L -428.72 348.163 L -428.03 347.964 L -428.03 348.461 Z M -428.23 351.444 L -428.82 351.643 L -428.72 349.157 L -428.13 348.959 L -428.23 351.444 Z" style="fill-rule: evenodd;" id="path372"/>
    <path d="M -437.87 350.251 C -436.58 349.952 -436.18 351.046 -436.98 352.737 C -437.67 354.427 -439.36 356.216 -440.56 356.515 C -441.55 356.813 -441.95 356.316 -441.85 355.421 L -441.45 355.222 C -441.35 355.521 -441.05 355.72 -440.65 355.521 C -439.76 355.322 -438.57 354.128 -437.97 352.836 C -437.37 351.544 -437.67 350.748 -438.57 351.046 C -439.16 351.245 -439.86 351.842 -440.46 352.637 L -440.75 352.737 C -439.86 351.544 -438.77 350.549 -437.87 350.251 L -437.87 350.251 Z" style="fill-rule: evenodd;" id="path374"/>
    <path d="M -445.23 354.626 L -437.97 352.439 C -437.97 352.24 -437.87 352.14 -437.87 351.941 L -444.93 354.029 L -445.23 354.626 Z M -446.22 356.515 L -439.16 354.427 C -438.96 354.228 -438.77 354.029 -438.67 353.83 L -445.92 355.918 L -446.22 356.515 Z M -445.73 355.521 L -438.47 353.433 C -438.37 353.234 -438.27 353.035 -438.17 352.836 L -445.43 355.023 L -445.73 355.521 Z" style="fill-rule: evenodd;" id="path376"/>
    <path d="M -448.41 360.591 L -448.81 359.597 L -448.61 359.597 L -448.41 360.194 L -448.31 360.392 C -448.31 360.392 -448.31 360.293 -448.31 360.094 L -448.01 359.398 L -447.81 359.398 L -447.71 359.995 L -447.61 360.094 L -447.61 359.896 L -447.32 359.199 L -447.12 359.199 L -447.51 360.392 L -447.71 360.392 L -447.91 359.796 L -448.01 359.697 L -448.21 360.591 L -448.41 360.591 Z M -446.82 360.094 L -447.12 359.199 L -446.92 359.1 L -446.72 359.697 L -446.72 359.896 C -446.72 359.896 -446.62 359.796 -446.62 359.597 L -446.42 358.901 L -446.22 358.901 L -446.02 359.497 L -446.02 359.597 L -445.92 359.398 L -445.63 358.702 L -445.43 358.702 L -445.92 359.896 L -446.12 359.896 L -446.22 359.299 L -446.32 359.199 L -446.62 360.094 L -446.82 360.094 Z M -445.13 359.597 L -445.43 358.702 L -445.23 358.603 L -445.03 359.199 L -445.03 359.398 C -445.03 359.398 -445.03 359.299 -444.93 359.1 L -444.73 358.404 L -444.53 358.404 L -444.33 359.001 L -444.33 359.199 L -444.23 358.901 L -444.04 358.205 L -443.84 358.205 L -444.23 359.398 L -444.43 359.398 L -444.63 358.802 L -444.63 358.702 L -444.93 359.597 L -445.13 359.597 Z" style="fill-rule: evenodd;" id="path378"/>
    <path d="M -443.74 359.199 L -443.74 359.001 L -443.54 359.001 L -443.54 359.199 L -443.74 359.199 Z M -443.14 359.1 L -443.14 358.006 L -442.94 357.907 L -442.94 358.106 C -442.84 357.907 -442.74 357.807 -442.54 357.807 C -442.44 357.807 -442.44 357.708 -442.35 357.807 C -442.35 357.807 -442.25 357.807 -442.25 357.807 C -442.25 357.807 -442.15 357.907 -442.15 357.907 C -442.15 358.006 -442.15 358.006 -442.15 358.106 L -442.15 358.802 L -442.44 358.802 L -442.35 358.205 C -442.35 358.106 -442.35 358.006 -442.35 358.006 C -442.44 358.006 -442.44 358.006 -442.44 357.907 C -442.54 357.907 -442.54 357.907 -442.64 357.907 C -442.74 358.006 -442.74 358.006 -442.84 358.106 C -442.94 358.205 -442.94 358.304 -442.94 358.404 L -442.94 359.001 L -443.14 359.1 Z M -441.55 358.602 L -441.95 357.609 L -441.75 357.609 L -441.55 358.106 C -441.45 358.205 -441.45 358.304 -441.45 358.304 C -441.45 358.304 -441.45 358.205 -441.35 358.106 L -441.05 357.409 L -440.85 357.31 L -441.35 358.503 L -441.55 358.602 Z M -440.65 357.012 L -440.65 356.813 L -440.46 356.813 L -440.46 357.012 L -440.65 357.012 Z M -440.75 358.304 L -440.65 357.211 L -440.46 357.211 L -440.56 358.304 L -440.75 358.304 Z M -440.26 357.907 L -440.06 357.807 C -440.06 357.907 -440.06 357.907 -439.96 357.907 C -439.96 358.006 -439.86 358.006 -439.76 357.907 C -439.66 357.907 -439.66 357.907 -439.56 357.807 C -439.56 357.807 -439.46 357.708 -439.46 357.708 C -439.46 357.609 -439.56 357.609 -439.56 357.609 C -439.56 357.609 -439.66 357.609 -439.76 357.609 C -439.96 357.609 -440.06 357.609 -440.06 357.609 C -440.16 357.609 -440.16 357.609 -440.16 357.509 C -440.26 357.509 -440.26 357.409 -440.26 357.409 C -440.26 357.31 -440.26 357.31 -440.16 357.211 C -440.16 357.211 -440.16 357.211 -440.06 357.111 C -440.06 357.111 -440.06 357.111 -439.96 357.012 C -439.86 357.012 -439.86 357.012 -439.76 357.012 C -439.66 356.913 -439.66 356.913 -439.56 356.913 C -439.46 356.913 -439.46 356.913 -439.36 357.012 C -439.36 357.012 -439.36 357.012 -439.36 357.111 L -439.56 357.211 C -439.56 357.111 -439.56 357.111 -439.56 357.111 C -439.66 357.111 -439.66 357.111 -439.76 357.111 C -439.86 357.111 -439.96 357.211 -439.96 357.211 C -440.06 357.211 -440.06 357.31 -440.06 357.31 C -440.06 357.31 -440.06 357.409 -440.06 357.409 C -439.96 357.409 -439.96 357.409 -439.96 357.409 C -439.96 357.409 -439.86 357.409 -439.76 357.409 C -439.66 357.409 -439.56 357.409 -439.46 357.409 C -439.36 357.409 -439.36 357.409 -439.36 357.409 C -439.26 357.509 -439.26 357.509 -439.26 357.609 C -439.26 357.708 -439.36 357.708 -439.36 357.807 C -439.36 357.807 -439.46 357.907 -439.56 358.006 C -439.56 358.006 -439.66 358.006 -439.76 358.106 C -439.96 358.106 -440.06 358.106 -440.16 358.106 C -440.26 358.106 -440.26 358.006 -440.26 357.907 L -440.26 357.907 Z M -439.16 357.31 C -439.16 357.111 -439.06 356.913 -438.96 356.813 C -438.87 356.714 -438.67 356.614 -438.57 356.614 C -438.37 356.515 -438.27 356.515 -438.17 356.614 C -438.07 356.714 -437.97 356.813 -437.97 357.012 C -437.97 357.111 -438.07 357.211 -438.07 357.31 C -438.17 357.409 -438.17 357.509 -438.27 357.609 C -438.37 357.609 -438.47 357.708 -438.57 357.708 C -438.77 357.807 -438.87 357.807 -438.96 357.708 C -439.06 357.609 -439.16 357.509 -439.16 357.31 L -439.16 357.31 Z M -438.96 357.31 C -438.96 357.409 -438.87 357.509 -438.87 357.509 C -438.77 357.609 -438.67 357.609 -438.57 357.609 C -438.47 357.509 -438.37 357.509 -438.37 357.409 C -438.27 357.31 -438.17 357.211 -438.17 357.012 C -438.17 356.913 -438.27 356.813 -438.27 356.813 C -438.37 356.714 -438.47 356.714 -438.57 356.714 C -438.67 356.813 -438.77 356.813 -438.77 356.913 C -438.87 357.012 -438.87 357.111 -438.96 357.31 Z M -437.77 357.509 L -437.77 356.018 L -437.57 355.918 L -437.57 357.409 L -437.77 357.509 Z M -436.48 357.111 L -436.48 356.913 C -436.58 357.111 -436.68 357.211 -436.88 357.211 C -436.98 357.211 -436.98 357.211 -437.07 357.211 C -437.07 357.211 -437.18 357.211 -437.18 357.211 C -437.27 357.111 -437.27 357.111 -437.27 357.111 C -437.27 357.012 -437.27 357.012 -437.27 356.913 L -437.27 356.216 L -437.07 356.216 L -437.07 356.813 C -437.07 356.913 -437.07 356.913 -437.07 357.012 C -437.07 357.012 -436.98 357.012 -436.98 357.012 C -436.98 357.111 -436.88 357.111 -436.78 357.012 C -436.78 357.012 -436.68 357.012 -436.68 356.913 C -436.58 356.913 -436.58 356.913 -436.58 356.813 C -436.48 356.714 -436.48 356.714 -436.48 356.614 L -436.48 356.018 L -436.28 355.918 L -436.28 357.012 L -436.48 357.111 Z M -435.19 356.316 L -434.99 356.316 C -434.99 356.415 -435.09 356.515 -435.19 356.614 C -435.29 356.714 -435.38 356.813 -435.48 356.813 C -435.68 356.913 -435.78 356.813 -435.88 356.813 C -435.98 356.714 -436.08 356.614 -436.08 356.415 C -435.98 356.316 -435.98 356.216 -435.98 356.117 C -435.88 356.018 -435.88 355.918 -435.78 355.819 C -435.68 355.72 -435.58 355.72 -435.48 355.72 C -435.38 355.62 -435.19 355.62 -435.19 355.72 C -435.09 355.72 -434.99 355.819 -434.99 355.918 L -435.19 356.018 C -435.19 355.918 -435.29 355.819 -435.29 355.819 C -435.38 355.819 -435.38 355.819 -435.48 355.819 C -435.58 355.819 -435.68 355.918 -435.68 356.018 C -435.78 356.117 -435.78 356.216 -435.78 356.316 C -435.78 356.515 -435.78 356.614 -435.78 356.614 C -435.68 356.714 -435.58 356.714 -435.48 356.714 C -435.38 356.614 -435.38 356.614 -435.29 356.515 C -435.29 356.515 -435.19 356.415 -435.19 356.316 Z M -434.89 356.117 C -434.89 355.918 -434.79 355.72 -434.69 355.62 C -434.59 355.421 -434.49 355.421 -434.29 355.322 C -434.19 355.322 -433.99 355.322 -433.89 355.421 C -433.79 355.421 -433.79 355.521 -433.79 355.72 C -433.79 355.918 -433.79 356.018 -433.89 356.117 C -433.89 356.216 -433.99 356.216 -434.09 356.316 C -434.19 356.415 -434.29 356.415 -434.39 356.515 C -434.49 356.515 -434.69 356.515 -434.79 356.415 C -434.89 356.415 -434.89 356.216 -434.89 356.117 L -434.89 356.117 Z M -434.69 356.018 C -434.69 356.117 -434.69 356.216 -434.59 356.316 C -434.49 356.316 -434.49 356.316 -434.39 356.316 C -434.29 356.316 -434.19 356.216 -434.09 356.117 C -433.99 356.018 -433.99 355.918 -433.99 355.819 C -433.99 355.62 -433.99 355.62 -434.09 355.521 C -434.09 355.521 -434.19 355.421 -434.29 355.521 C -434.39 355.521 -434.49 355.62 -434.59 355.72 C -434.69 355.72 -434.69 355.918 -434.69 356.018 L -434.69 356.018 Z M -432.7 355.62 L -432.5 355.62 C -432.6 355.72 -432.6 355.819 -432.7 355.918 C -432.8 356.018 -432.9 356.018 -433.1 356.117 C -433.2 356.117 -433.4 356.117 -433.5 356.117 C -433.6 356.018 -433.6 355.918 -433.6 355.72 C -433.6 355.521 -433.5 355.322 -433.4 355.222 C -433.3 355.123 -433.2 355.023 -433 354.924 C -432.9 354.924 -432.7 354.924 -432.6 355.023 C -432.5 355.023 -432.5 355.222 -432.5 355.322 C -432.5 355.421 -432.5 355.421 -432.5 355.421 L -433.4 355.72 C -433.4 355.819 -433.4 355.918 -433.3 355.918 C -433.2 355.918 -433.2 356.018 -433 355.918 C -433 355.918 -432.9 355.918 -432.9 355.819 C -432.8 355.819 -432.8 355.72 -432.7 355.62 L -432.7 355.62 Z M -433.4 355.521 L -432.7 355.322 C -432.7 355.222 -432.7 355.222 -432.8 355.123 C -432.8 355.123 -432.9 355.123 -433 355.123 C -433.1 355.123 -433.2 355.222 -433.3 355.222 C -433.3 355.322 -433.4 355.421 -433.4 355.521 L -433.4 355.521 Z M -432.3 355.521 L -432.1 355.421 C -432.1 355.521 -432.1 355.521 -432 355.62 C -432 355.62 -431.9 355.62 -431.81 355.62 C -431.71 355.521 -431.71 355.521 -431.61 355.521 C -431.61 355.421 -431.61 355.421 -431.51 355.322 C -431.51 355.322 -431.61 355.222 -431.61 355.222 C -431.61 355.222 -431.71 355.222 -431.81 355.222 C -432 355.222 -432.1 355.222 -432.1 355.222 C -432.2 355.222 -432.2 355.222 -432.3 355.222 C -432.3 355.123 -432.3 355.123 -432.3 355.023 C -432.3 355.023 -432.3 354.924 -432.2 354.924 C -432.2 354.825 -432.2 354.825 -432.1 354.825 C -432.1 354.725 -432.1 354.725 -432 354.725 C -432 354.626 -431.9 354.626 -431.81 354.626 C -431.71 354.626 -431.71 354.526 -431.61 354.626 C -431.51 354.626 -431.51 354.626 -431.41 354.626 C -431.41 354.626 -431.41 354.725 -431.41 354.825 L -431.61 354.825 C -431.61 354.825 -431.61 354.725 -431.61 354.725 C -431.71 354.725 -431.71 354.725 -431.81 354.725 C -431.9 354.825 -432 354.825 -432 354.825 C -432.1 354.924 -432.1 354.924 -432.1 355.023 C -432.1 355.023 -432.1 355.023 -432.1 355.023 C -432.1 355.023 -432 355.023 -432 355.023 C -432 355.023 -431.9 355.023 -431.81 355.023 C -431.71 355.023 -431.61 355.023 -431.51 355.023 C -431.51 355.023 -431.41 355.123 -431.41 355.123 C -431.41 355.123 -431.31 355.222 -431.31 355.222 C -431.31 355.322 -431.41 355.421 -431.41 355.421 C -431.41 355.521 -431.51 355.521 -431.61 355.62 C -431.71 355.62 -431.71 355.72 -431.81 355.72 C -432 355.819 -432.1 355.819 -432.2 355.72 C -432.3 355.72 -432.3 355.62 -432.3 355.521 L -432.3 355.521 Z M -431.11 355.521 L -431.01 355.322 L -430.81 355.222 L -430.81 355.421 L -431.11 355.521 Z M -429.72 354.725 L -429.52 354.626 C -429.52 354.825 -429.62 354.924 -429.62 355.023 C -429.72 355.123 -429.82 355.123 -430.02 355.222 C -430.12 355.222 -430.31 355.222 -430.41 355.123 C -430.51 355.123 -430.51 354.924 -430.51 354.825 C -430.51 354.626 -430.51 354.526 -430.41 354.427 C -430.41 354.327 -430.31 354.228 -430.21 354.228 C -430.12 354.128 -430.02 354.128 -429.92 354.029 C -429.82 354.029 -429.72 354.029 -429.62 354.029 C -429.52 354.128 -429.52 354.128 -429.52 354.228 L -429.72 354.327 C -429.72 354.228 -429.72 354.228 -429.82 354.228 C -429.82 354.228 -429.92 354.228 -429.92 354.228 C -430.02 354.228 -430.12 354.327 -430.21 354.427 C -430.31 354.427 -430.31 354.626 -430.31 354.725 C -430.31 354.825 -430.31 354.924 -430.21 355.023 C -430.21 355.023 -430.12 355.023 -430.02 355.023 C -429.92 355.023 -429.82 355.023 -429.82 354.924 C -429.72 354.825 -429.72 354.825 -429.72 354.725 L -429.72 354.725 Z M -429.42 354.427 C -429.42 354.228 -429.32 354.128 -429.22 353.93 C -429.12 353.83 -428.92 353.731 -428.82 353.731 C -428.62 353.632 -428.52 353.632 -428.43 353.731 C -428.33 353.83 -428.23 353.93 -428.23 354.128 C -428.23 354.228 -428.33 354.327 -428.33 354.427 C -428.43 354.526 -428.43 354.626 -428.52 354.725 C -428.62 354.725 -428.72 354.825 -428.82 354.825 C -429.02 354.924 -429.12 354.924 -429.22 354.825 C -429.32 354.725 -429.42 354.626 -429.42 354.427 Z M -429.22 354.427 C -429.22 354.526 -429.12 354.626 -429.12 354.626 C -429.02 354.725 -428.92 354.725 -428.82 354.725 C -428.72 354.626 -428.62 354.626 -428.62 354.526 C -428.52 354.427 -428.52 354.327 -428.43 354.128 C -428.43 354.029 -428.52 353.93 -428.52 353.93 C -428.62 353.83 -428.72 353.83 -428.82 353.83 C -428.92 353.93 -429.02 353.93 -429.02 354.029 C -429.12 354.128 -429.22 354.228 -429.22 354.427 Z M -428.03 354.626 L -428.03 353.532 L -427.83 353.433 L -427.83 353.632 C -427.83 353.532 -427.73 353.433 -427.63 353.433 C -427.63 353.333 -427.53 353.333 -427.43 353.333 C -427.33 353.333 -427.33 353.333 -427.23 353.333 C -427.23 353.333 -427.13 353.333 -427.13 353.433 C -427.03 353.233 -426.93 353.134 -426.74 353.134 C -426.64 353.035 -426.54 353.035 -426.44 353.134 C -426.44 353.134 -426.44 353.233 -426.44 353.333 L -426.44 354.128 L -426.64 354.128 L -426.64 353.532 C -426.64 353.433 -426.64 353.333 -426.64 353.333 C -426.64 353.333 -426.64 353.333 -426.74 353.233 C -426.74 353.233 -426.74 353.233 -426.83 353.333 C -426.93 353.333 -426.93 353.333 -427.03 353.433 C -427.03 353.532 -427.13 353.532 -427.13 353.731 L -427.13 354.327 L -427.33 354.427 L -427.33 353.632 C -427.33 353.632 -427.33 353.532 -427.33 353.532 C -427.43 353.433 -427.43 353.433 -427.53 353.532 C -427.53 353.532 -427.63 353.532 -427.63 353.532 C -427.73 353.632 -427.73 353.632 -427.83 353.731 C -427.83 353.83 -427.83 353.83 -427.83 353.93 L -427.83 354.526 L -428.03 354.626 Z M -426.04 354.029 L -426.04 353.83 L -425.84 353.731 L -425.84 353.93 L -426.04 354.029 Z M -425.34 353.731 L -425.44 353.83 L -425.44 352.339 L -425.24 352.24 L -425.24 352.836 C -425.14 352.737 -425.05 352.637 -424.94 352.538 C -424.85 352.538 -424.75 352.538 -424.75 352.538 C -424.65 352.538 -424.55 352.538 -424.55 352.637 C -424.55 352.637 -424.45 352.737 -424.45 352.737 C -424.45 352.836 -424.45 352.935 -424.45 352.935 C -424.45 353.134 -424.45 353.333 -424.55 353.433 C -424.75 353.532 -424.85 353.632 -424.94 353.731 C -425.14 353.731 -425.24 353.731 -425.24 353.632 L -425.34 353.731 Z M -425.24 353.233 C -425.24 353.333 -425.24 353.433 -425.24 353.532 C -425.14 353.532 -425.05 353.632 -424.94 353.532 C -424.85 353.532 -424.85 353.433 -424.75 353.433 C -424.65 353.333 -424.65 353.134 -424.65 353.035 C -424.65 352.935 -424.65 352.836 -424.75 352.737 C -424.75 352.737 -424.85 352.737 -424.94 352.737 C -425.05 352.737 -425.14 352.836 -425.14 352.935 C -425.24 352.935 -425.24 353.134 -425.24 353.233 L -425.24 353.233 Z M -424.25 353.433 L -424.15 352.339 L -423.95 352.339 L -423.95 352.438 C -423.95 352.438 -423.85 352.339 -423.85 352.339 C -423.85 352.24 -423.75 352.24 -423.75 352.24 C -423.65 352.24 -423.55 352.24 -423.55 352.24 L -423.55 352.438 C -423.65 352.438 -423.65 352.438 -423.75 352.438 C -423.75 352.438 -423.85 352.438 -423.85 352.438 C -423.85 352.538 -423.95 352.538 -423.95 352.637 C -423.95 352.637 -423.95 352.737 -423.95 352.836 L -423.95 353.433 L -424.25 353.433 Z" style="fill-rule: evenodd;" id="path380"/>
  </g>
</svg>